<ttFont>
        <CharString name=".notdef">
          472 0 700 rmoveto
          0 0 432 0 0 0 rrcurveto
          0 0 0 -700 0 0 rrcurveto
          0 0 -432 0 0 0 rrcurveto
          0 0 0 700 0 0 rrcurveto
          50 -650 rmoveto
          0 0 332 0 0 0 rrcurveto
          0 0 0 600 0 0 rrcurveto
          0 0 -332 0 0 0 rrcurveto
          0 0 0 -600 0 0 rrcurveto
          endchar
        </CharString>
        <CharString name="Acute accent">
          594 70 1384 rmoveto
          162 177 113 133 63 89 rrcurveto
          0 0 156 -135 0 0 rrcurveto
          -23 -40 -60 -66 -99 -92 rrcurveto
          -97 -90 -67 -52 -37 -14 rrcurveto
          0 0 -111 90 0 0 rrcurveto
          endchar
        </CharString>
        <CharString name="Ampersand">
          1532 1082 62 rmoveto
          -98 -52 -98 -26 -99 0 rrcurveto
          -99 0 -87 9 -74 17 rrcurveto
          -74 17 -64 25 -53 34 rrcurveto
          -113 73 -56 102 0 133 rrcurveto
          0 166 104 131 207 96 rrcurveto
          -55 74 -37 57 -19 40 rrcurveto
          -39 81 -19 72 0 64 rrcurveto
          0 64 10 54 19 45 rrcurveto
          19 44 28 37 36 31 rrcurveto
          74 64 101 32 127 0 rrcurveto
          113 0 92 -35 70 -70 rrcurveto
          66 -66 33 -80 0 -93 rrcurveto
          0 -171 -66 -130 -131 -91 rrcurveto
          -42 -29 -47 -27 -53 -25 rrcurveto
          59 -85 66 -87 72 -88 rrcurveto
          71 -88 49 -58 26 -28 rrcurveto
          55 57 27 76 0 95 rrcurveto
          0 56 -11 68 -22 81 rrcurveto
          0 0 192 0 0 0 rrcurveto
          19 -63 10 -68 0 -75 rrcurveto
          0 -145 -46 -114 -92 -83 rrcurveto
          55 -35 72 -23 89 -10 rrcurveto
          0 0 0 -113 0 0 rrcurveto
          -33 -10 -39 -5 -45 0 rrcurveto
          -90 0 -83 26 -77 52 rrcurveto
          -417 796 rmoveto
          81 36 60 43 38 49 rrcurveto
          44 57 22 71 0 85 rrcurveto
          0 46 -16 42 -32 38 rrcurveto
          -36 43 -48 22 -59 0 rrcurveto
          -95 0 -63 -35 -31 -71 rrcurveto
          -11 -25 -6 -30 0 -36 rrcurveto
          0 -37 3 -31 6 -25 rrcurveto
          6 -26 9 -25 13 -23 rrcurveto
          13 -24 16 -25 19 -26 rrcurveto
          19 -26 22 -31 26 -36 rrcurveto
          -89 -200 rmoveto
          -135 -70 -67 -86 0 -102 rrcurveto
          0 -116 68 -78 136 -41 rrcurveto
          49 -15 52 -7 55 0 rrcurveto
          55 0 42 4 29 8 rrcurveto
          29 7 29 10 28 11 rrcurveto
          -94 105 -123 158 -153 212 rrcurveto
          endchar
        </CharString>
        <CharString name="Apostrophe">
          772 285 1685 rmoveto
          0 0 242 0 0 0 rrcurveto
          0 0 -32 -719 0 0 rrcurveto
          0 0 -177 0 0 0 rrcurveto
          0 0 -33 719 0 0 rrcurveto
          endchar
        </CharString>
        <CharString name="Asterisk">
          1208 579 1228 rmoveto
          0 0 -39 167 0 0 rrcurveto
          0 0 -19 265 0 0 rrcurveto
          0 0 192 0 0 0 rrcurveto
          0 0 -13 -262 0 0 rrcurveto
          0 0 -34 -168 0 0 rrcurveto
          13 13 11 10 9 9 rrcurveto
          9 8 9 9 11 10 rrcurveto
          10 9 9 9 9 9 rrcurveto
          21 21 12 10 2 1 rrcurveto
          0 0 220 146 0 0 rrcurveto
          0 0 95 -163 0 0 rrcurveto
          0 0 -232 -121 0 0 rrcurveto
          0 0 -164 -55 0 0 rrcurveto
          0 0 165 -49 0 0 rrcurveto
          0 0 236 -115 0 0 rrcurveto
          0 0 -97 -170 0 0 rrcurveto
          0 0 -217 144 0 0 rrcurveto
          0 0 -131 113 0 0 rrcurveto
          0 0 39 -168 0 0 rrcurveto
          0 0 21 -262 0 0 rrcurveto
          0 0 -192 -1 0 0 rrcurveto
          0 0 12 263 0 0 rrcurveto
          0 0 35 170 0 0 rrcurveto
          0 0 -126 -121 0 0 rrcurveto
          0 0 -218 -146 0 0 rrcurveto
          0 0 -96 164 0 0 rrcurveto
          0 0 231 124 0 0 rrcurveto
          0 0 165 53 0 0 rrcurveto
          -1 1 -5 1 -8 3 rrcurveto
          -8 2 -10 3 -12 4 rrcurveto
          -12 3 -13 4 -13 4 rrcurveto
          -14 4 -13 4 -12 3 rrcurveto
          -29 8 -15 4 -1 1 rrcurveto
          0 0 -234 118 0 0 rrcurveto
          0 0 93 165 0 0 rrcurveto
          0 0 220 -145 0 0 rrcurveto
          0 0 129 -113 0 0 rrcurveto
          endchar
        </CharString>
        <CharString name="At sign">
          2218 1523 -246 rmoveto
          0 0 39 -129 0 0 rrcurveto
          -73 -45 -108 -32 -145 -18 rrcurveto
          -47 -5 -48 -3 -48 0 rrcurveto
          -254 0 -204 74 -153 148 rrcurveto
          -166 160 -83 227 0 293 rrcurveto
          0 221 46 196 93 173 rrcurveto
          88 166 123 130 159 93 rrcurveto
          158 93 177 47 195 0 rrcurveto
          227 0 182 -62 136 -123 rrcurveto
          141 -127 70 -175 0 -224 rrcurveto
          0 -253 -59 -206 -119 -158 rrcurveto
          -71 -95 -83 -65 -97 -35 rrcurveto
          -47 -17 -47 -8 -47 0 rrcurveto
          -103 0 -51 81 2 162 rrcurveto
          1 21 2 25 3 29 rrcurveto
          -77 -148 -88 -98 -98 -47 rrcurveto
          -35 -17 -36 -8 -36 0 rrcurveto
          -36 0 -35 9 -34 18 rrcurveto
          -73 37 -53 73 -31 108 rrcurveto
          -15 51 -8 43 0 37 rrcurveto
          0 37 0 31 1 26 rrcurveto
          1 26 5 38 10 49 rrcurveto
          10 49 15 47 20 47 rrcurveto
          20 47 25 44 31 41 rrcurveto
          30 41 36 37 41 31 rrcurveto
          89 67 100 34 111 0 rrcurveto
          110 0 82 -18 53 -37 rrcurveto
          0 0 172 31 0 0 rrcurveto
          -51 -185 -37 -168 -23 -150 rrcurveto
          -23 -151 -12 -101 0 -52 rrcurveto
          0 -52 12 -26 25 0 rrcurveto
          25 0 25 8 27 15 rrcurveto
          26 15 26 22 25 28 rrcurveto
          25 27 24 34 23 39 rrcurveto
          23 39 20 43 17 47 rrcurveto
          37 103 18 101 0 97 rrcurveto
          0 97 -7 79 -15 61 rrcurveto
          -15 61 -20 53 -27 45 rrcurveto
          -27 44 -32 37 -37 30 rrcurveto
          -38 29 -42 24 -45 17 rrcurveto
          -85 32 -92 16 -99 0 rrcurveto
          -100 0 -85 -10 -70 -21 rrcurveto
          -70 -21 -65 -31 -61 -39 rrcurveto
          -61 -39 -56 -48 -50 -56 rrcurveto
          -51 -56 -43 -63 -36 -71 rrcurveto
          -75 -148 -38 -166 0 -183 rrcurveto
          0 -350 120 -234 239 -117 rrcurveto
          100 -49 123 -25 146 0 rrcurveto
          145 0 129 28 112 56 rrcurveto
          -678 691 rmoveto
          0 -182 47 -91 93 0 rrcurveto
          43 0 52 41 60 81 rrcurveto
          85 117 68 138 49 161 rrcurveto
          15 48 10 43 5 38 rrcurveto
          -21 37 -43 24 -65 10 rrcurveto
          -17 3 -16 1 -15 0 rrcurveto
          -103 0 -85 -48 -67 -95 rrcurveto
          -63 -89 -32 -109 0 -128 rrcurveto
          endchar
        </CharString>
        <CharString name="Backslash">
          854 260 1599 rmoveto
          0 0 -198 0 0 0 rrcurveto
          0 0 570 -1962 0 0 rrcurveto
          0 0 198 0 0 0 rrcurveto
          0 0 -570 1962 0 0 rrcurveto
          endchar
        </CharString>
        <CharString name="Broken bar">
          855 346 1780 rmoveto
          0 0 203 0 0 0 rrcurveto
          0 0 0 -830 0 0 rrcurveto
          0 0 -203 0 0 0 rrcurveto
          0 0 0 830 0 0 rrcurveto
          0 -1139 rmoveto
          0 0 203 0 0 0 rrcurveto
          0 0 0 -827 0 0 rrcurveto
          0 0 -203 0 0 0 rrcurveto
          0 0 0 827 0 0 rrcurveto
          endchar
        </CharString>
        <CharString name="Cedilla">
          485 296 -94 rmoveto
          0 47 -8 41 -17 36 rrcurveto
          0 0 83 4 0 0 rrcurveto
          0 0 43 -4 0 0 rrcurveto
          39 -41 20 -70 0 -99 rrcurveto
          0 -147 -53 -91 -105 -33 rrcurveto
          -27 -9 -24 -4 -21 0 rrcurveto
          -21 0 -18 1 -15 1 rrcurveto
          -15 1 -15 2 -13 3 rrcurveto
          -31 6 -20 7 -11 7 rrcurveto
          0 0 15 142 0 0 rrcurveto
          15 -9 28 -5 39 0 rrcurveto
          88 0 44 71 0 143 rrcurveto
          endchar
        </CharString>
        <CharString name="Cent sign">
          1183 973 923 rmoveto
          -59 42 -86 21 -111 0 rrcurveto
          -87 0 -73 -30 -59 -60 rrcurveto
          -73 -75 -36 -110 0 -145 rrcurveto
          0 -125 30 -100 59 -76 rrcurveto
          59 -77 77 -38 97 0 rrcurveto
          76 0 75 15 73 29 rrcurveto
          19 7 16 8 13 8 rrcurveto
          0 0 45 -125 0 0 rrcurveto
          -61 -57 -91 -34 -122 -13 rrcurveto
          0 0 -3 -204 0 0 rrcurveto
          0 0 -150 0 0 0 rrcurveto
          0 0 4 205 0 0 rrcurveto
          -135 17 -106 62 -76 106 rrcurveto
          -74 102 -37 128 0 154 rrcurveto
          0 160 38 132 77 104 rrcurveto
          81 111 115 66 149 19 rrcurveto
          0 0 6 227 0 0 rrcurveto
          0 0 149 0 0 0 rrcurveto
          0 0 -5 -223 0 0 rrcurveto
          100 -7 74 -19 47 -31 rrcurveto
          0 0 -35 -174 0 0 rrcurveto
          endchar
        </CharString>
        <CharString name="Circumflex accent">
          1363 599 1531 rmoveto
          0 0 205 0 0 0 rrcurveto
          0 0 394 -1041 0 0 rrcurveto
          0 0 -211 0 0 0 rrcurveto
          0 0 -286 798 0 0 rrcurveto
          0 0 -285 -798 0 0 rrcurveto
          0 0 -211 0 0 0 rrcurveto
          0 0 394 1041 0 0 rrcurveto
          endchar
        </CharString>
        <CharString name="Colon">
          602 213 21 rmoveto
          -13 13 -11 17 -9 19 rrcurveto
          -9 19 -4 22 0 23 rrcurveto
          0 23 4 21 9 21 rrcurveto
          9 20 12 18 15 15 rrcurveto
          33 35 33 17 33 0 rrcurveto
          33 0 25 -4 18 -8 rrcurveto
          18 -8 15 -11 12 -14 rrcurveto
          26 -29 13 -32 0 -33 rrcurveto
          0 -34 -4 -27 -8 -21 rrcurveto
          -9 -21 -11 -18 -15 -16 rrcurveto
          -33 -33 -38 -17 -44 0 rrcurveto
          -38 0 -33 14 -29 29 rrcurveto
          0 796 rmoveto
          -13 13 -11 17 -9 19 rrcurveto
          -9 19 -4 22 0 23 rrcurveto
          0 23 4 21 9 21 rrcurveto
          9 20 12 18 15 15 rrcurveto
          33 35 33 17 33 0 rrcurveto
          33 0 25 -4 18 -8 rrcurveto
          18 -8 15 -11 12 -14 rrcurveto
          26 -29 13 -32 0 -33 rrcurveto
          0 -34 -4 -27 -8 -21 rrcurveto
          -9 -21 -11 -18 -15 -16 rrcurveto
          -33 -33 -38 -17 -44 0 rrcurveto
          -38 0 -33 14 -29 29 rrcurveto
          endchar
        </CharString>
        <CharString name="Comma">
          602 180 140 rmoveto
          0 0 139 131 0 0 rrcurveto
          65 -25 49 -46 34 -68 rrcurveto
          29 -57 14 -58 0 -61 rrcurveto
          0 -61 -7 -55 -14 -48 rrcurveto
          -15 -49 -19 -43 -25 -39 rrcurveto
          -50 -79 -62 -54 -73 -28 rrcurveto
          0 0 -74 92 0 0 rrcurveto
          0 0 0 26 0 0 rrcurveto
          59 29 41 58 21 87 rrcurveto
          7 27 3 26 0 25 rrcurveto
          0 25 -3 24 -7 23 rrcurveto
          -7 23 -9 21 -11 20 rrcurveto
          -25 43 -29 24 -31 4 rrcurveto
          0 0 0 63 0 0 rrcurveto
          endchar
        </CharString>
        <CharString name="Copyright sign">
          2129 214 962 rmoveto
          0 81 10 79 21 75 rrcurveto
          20 75 29 70 38 65 rrcurveto
          37 65 45 59 53 53 rrcurveto
          53 53 58 46 64 38 rrcurveto
          135 79 147 40 160 0 rrcurveto
          159 0 148 -40 135 -79 rrcurveto
          131 -77 104 -105 76 -133 rrcurveto
          79 -137 39 -147 0 -159 rrcurveto
          0 -159 -39 -149 -79 -137 rrcurveto
          -117 -205 -174 -135 -229 -64 rrcurveto
          -75 -21 -77 -11 -81 0 rrcurveto
          -159 0 -147 40 -136 80 rrcurveto
          -130 77 -103 105 -77 134 rrcurveto
          -79 136 -39 148 0 160 rrcurveto
          167 200 rmoveto
          -17 -64 -8 -66 0 -69 rrcurveto
          0 -69 8 -67 17 -63 rrcurveto
          17 -64 23 -60 31 -56 rrcurveto
          31 -56 37 -51 43 -45 rrcurveto
          43 -46 49 -39 54 -33 rrcurveto
          113 -69 125 -34 137 0 rrcurveto
          137 0 125 34 113 69 rrcurveto
          167 101 109 150 52 199 rrcurveto
          17 63 8 67 0 69 rrcurveto
          0 69 -8 66 -17 64 rrcurveto
          -17 64 -23 60 -31 56 rrcurveto
          -31 55 -37 51 -43 46 rrcurveto
          -43 45 -49 39 -54 33 rrcurveto
          -113 69 -125 34 -137 0 rrcurveto
          -137 0 -125 -34 -113 -69 rrcurveto
          -167 -101 -110 -150 -51 -198 rrcurveto
          974 -465 rmoveto
          0 0 45 -124 0 0 rrcurveto
          -75 -63 -107 -31 -137 0 rrcurveto
          -133 0 -108 48 -82 97 rrcurveto
          -78 92 -39 111 0 129 rrcurveto
          0 146 42 117 85 89 rrcurveto
          91 95 123 47 155 0 rrcurveto
          89 0 80 -19 69 -37 rrcurveto
          0 0 -32 -164 0 0 rrcurveto
          -65 42 -75 21 -85 0 rrcurveto
          -89 0 -70 -31 -51 -62 rrcurveto
          -49 -59 -24 -77 0 -93 rrcurveto
          0 -106 26 -83 51 -60 rrcurveto
          49 -57 69 -29 88 0 rrcurveto
          88 0 79 20 70 41 rrcurveto
          endchar
        </CharString>
        <CharString name="Currency sign">
          1527 784 331 rmoveto
          -83 0 -75 21 -69 41 rrcurveto
          0 0 -211 -212 0 0 rrcurveto
          0 0 -127 127 0 0 rrcurveto
          0 0 206 206 0 0 rrcurveto
          -55 78 -28 87 0 95 rrcurveto
          0 95 27 85 55 76 rrcurveto
          0 0 -205 205 0 0 rrcurveto
          0 0 126 128 0 0 rrcurveto
          0 0 210 -212 0 0 rrcurveto
          70 43 76 21 83 0 rrcurveto
          80 0 76 -21 73 -43 rrcurveto
          0 0 215 214 0 0 rrcurveto
          0 0 127 -127 0 0 rrcurveto
          0 0 -209 -209 0 0 rrcurveto
          54 -77 27 -85 0 -94 rrcurveto
          0 -94 -27 -85 -54 -77 rrcurveto
          0 0 205 -205 0 0 rrcurveto
          0 0 -127 -127 0 0 rrcurveto
          0 0 -210 210 0 0 rrcurveto
          -70 -43 -77 -21 -83 0 rrcurveto
          1 164 rmoveto
          73 0 62 27 52 55 rrcurveto
          51 54 26 65 0 77 rrcurveto
          0 77 -26 65 -51 53 rrcurveto
          -52 55 -62 27 -73 0 rrcurveto
          -73 0 -63 -27 -52 -55 rrcurveto
          -52 -54 -26 -65 0 -76 rrcurveto
          0 -76 26 -65 52 -55 rrcurveto
          52 -55 63 -27 73 0 rrcurveto
          endchar
        </CharString>
        <CharString name="Degree symbol">
          912 476 939 rmoveto
          -95 0 -80 32 -65 65 rrcurveto
          -67 65 -33 80 0 97 rrcurveto
          0 97 33 81 66 65 rrcurveto
          65 64 81 32 95 0 rrcurveto
          95 0 81 -32 65 -65 rrcurveto
          66 -65 33 -80 0 -97 rrcurveto
          0 -97 -33 -81 -66 -65 rrcurveto
          -65 -64 -81 -32 -95 0 rrcurveto
          0 144 rmoveto
          52 0 44 18 35 37 rrcurveto
          36 37 18 47 0 56 rrcurveto
          0 55 -18 47 -36 37 rrcurveto
          -35 37 -44 18 -52 0 rrcurveto
          -51 0 -44 -18 -35 -36 rrcurveto
          -36 -37 -18 -47 0 -56 rrcurveto
          0 -55 18 -46 36 -39 rrcurveto
          35 -37 43 -18 52 0 rrcurveto
          endchar
        </CharString>
        <CharString name="Diaeresis">
          863 727 1374 rmoveto
          -19 -7 -18 -4 -19 0 rrcurveto
          -19 0 -18 3 -16 6 rrcurveto
          -16 6 -14 9 -12 11 rrcurveto
          -25 25 -13 27 0 30 rrcurveto
          0 29 5 24 9 18 rrcurveto
          9 18 11 16 14 13 rrcurveto
          31 29 31 15 32 0 rrcurveto
          31 0 24 -3 17 -7 rrcurveto
          16 -7 13 -9 11 -12 rrcurveto
          21 -23 10 -27 0 -30 rrcurveto
          0 -30 -4 -24 -9 -18 rrcurveto
          -9 -19 -11 -15 -14 -13 rrcurveto
          -14 -13 -16 -11 -19 -7 rrcurveto
          -458 0 rmoveto
          -19 -7 -18 -4 -19 0 rrcurveto
          -19 0 -18 3 -16 6 rrcurveto
          -16 6 -14 9 -12 11 rrcurveto
          -25 25 -13 27 0 30 rrcurveto
          0 29 5 24 9 18 rrcurveto
          9 18 11 16 15 13 rrcurveto
          31 29 32 15 31 0 rrcurveto
          31 0 23 -3 17 -7 rrcurveto
          16 -7 13 -9 11 -12 rrcurveto
          21 -23 10 -27 0 -30 rrcurveto
          0 -30 -4 -24 -9 -18 rrcurveto
          -9 -19 -11 -15 -14 -13 rrcurveto
          -14 -13 -16 -11 -19 -7 rrcurveto
          endchar
        </CharString>
        <CharString name="Digit Eight">
          1307 338 713 rmoveto
          39 33 48 31 56 27 rrcurveto
          -167 106 -83 130 0 154 rrcurveto
          0 117 46 93 91 68 rrcurveto
          85 62 109 31 133 0 rrcurveto
          132 0 106 -32 81 -64 rrcurveto
          81 -65 41 -84 0 -104 rrcurveto
          0 -125 -51 -110 -102 -94 rrcurveto
          -35 -33 -43 -28 -49 -24 rrcurveto
          109 -63 74 -51 40 -40 rrcurveto
          79 -80 39 -84 0 -89 rrcurveto
          0 -131 -50 -102 -99 -74 rrcurveto
          -93 -69 -117 -35 -143 0 rrcurveto
          -143 0 -119 30 -95 61 rrcurveto
          -111 71 -55 101 0 130 rrcurveto
          0 129 55 112 111 95 rrcurveto
          373 171 rmoveto
          106 35 69 71 33 106 rrcurveto
          10 33 5 33 0 33 rrcurveto
          0 32 -5 29 -10 26 rrcurveto
          -10 26 -16 23 -21 19 rrcurveto
          -45 41 -61 21 -78 0 rrcurveto
          -73 0 -60 -18 -47 -36 rrcurveto
          -49 -37 -25 -50 0 -64 rrcurveto
          0 -94 57 -85 113 -77 rrcurveto
          34 -23 36 -22 37 -22 rrcurveto
          -328 -482 rmoveto
          0 -83 26 -64 52 -47 rrcurveto
          52 -47 81 -23 109 0 rrcurveto
          73 0 63 21 54 41 rrcurveto
          57 44 29 58 0 71 rrcurveto
          0 103 -74 93 -147 81 rrcurveto
          -42 23 -43 24 -45 24 rrcurveto
          -114 -47 -76 -72 -37 -99 rrcurveto
          -12 -32 -6 -34 0 -35 rrcurveto
          endchar
        </CharString>
        <CharString name="Digit Five">
          1227 225 -188 rmoveto
          21 -1 21 -1 21 0 rrcurveto
          171 0 141 39 110 77 rrcurveto
          111 78 55 99 0 120 rrcurveto
          0 101 -26 76 -51 51 rrcurveto
          -52 51 -83 25 -114 0 rrcurveto
          -77 0 -90 -16 -103 -32 rrcurveto
          0 0 -50 30 0 0 rrcurveto
          0 0 56 743 0 0 rrcurveto
          0 0 771 0 0 0 rrcurveto
          0 0 -22 -190 0 0 rrcurveto
          0 0 -578 0 0 0 rrcurveto
          0 0 -39 -400 0 0 rrcurveto
          84 19 78 10 71 0 rrcurveto
          71 0 64 -11 57 -21 rrcurveto
          56 -21 47 -31 38 -39 rrcurveto
          77 -79 39 -111 0 -141 rrcurveto
          0 -71 -16 -71 -32 -69 rrcurveto
          -33 -69 -48 -62 -63 -55 rrcurveto
          -142 -123 -187 -63 -231 -3 rrcurveto
          -55 0 -41 4 -28 9 rrcurveto
          0 0 1 148 0 0 rrcurveto
          endchar
        </CharString>
        <CharString name="Digit Four">
          1339 720 1299 rmoveto
          0 0 79 0 0 0 rrcurveto
          0 0 136 -84 0 0 rrcurveto
          0 0 -466 -894 0 0 rrcurveto
          0 0 -89 -151 0 0 rrcurveto
          0 0 460 0 0 0 rrcurveto
          0 0 18 433 0 0 rrcurveto
          0 0 202 0 0 0 rrcurveto
          0 0 0 -433 0 0 rrcurveto
          0 0 231 0 0 0 rrcurveto
          0 0 0 -170 0 0 rrcurveto
          0 0 -231 0 0 0 rrcurveto
          0 0 0 -376 0 0 rrcurveto
          0 0 -220 0 0 0 rrcurveto
          0 0 0 376 0 0 rrcurveto
          0 0 -650 0 0 0 rrcurveto
          0 0 -54 104 0 0 rrcurveto
          0 0 584 1195 0 0 rrcurveto
          endchar
        </CharString>
        <CharString name="Digit Nine">
          1399 1001 625 rmoveto
          0 327 -102 163 -203 0 rrcurveto
          -81 0 -67 -33 -54 -67 rrcurveto
          -51 -63 -26 -67 0 -71 rrcurveto
          0 -72 6 -59 13 -46 rrcurveto
          12 -47 17 -39 22 -31 rrcurveto
          44 -62 59 -31 73 0 rrcurveto
          59 0 47 8 36 17 rrcurveto
          0 0 30 14 0 0 rrcurveto
          0 0 52 -124 0 0 rrcurveto
          -32 -37 -59 -26 -86 -15 rrcurveto
          -31 -5 -41 -3 -52 0 rrcurveto
          -53 0 -51 13 -51 26 rrcurveto
          -51 26 -43 35 -35 43 rrcurveto
          -71 88 -35 109 0 129 rrcurveto
          0 165 47 131 93 99 rrcurveto
          96 101 131 51 166 0 rrcurveto
          161 0 126 -59 92 -117 rrcurveto
          85 -107 43 -138 0 -167 rrcurveto
          0 -181 -46 -172 -91 -164 rrcurveto
          -80 -144 -109 -124 -138 -103 rrcurveto
          -127 -96 -130 -62 -134 -28 rrcurveto
          0 0 -74 136 0 0 rrcurveto
          197 50 167 114 135 179 rrcurveto
          80 106 56 111 32 116 rrcurveto
          16 57 9 44 1 33 rrcurveto
          1 32 0 23 0 14 rrcurveto
          endchar
        </CharString>
        <CharString name="Digit One">
          918 398 999 rmoveto
          -79 -22 -74 -18 -70 -13 rrcurveto
          0 0 -25 131 0 0 rrcurveto
          98 30 104 51 110 72 rrcurveto
          29 19 22 16 14 13 rrcurveto
          0 0 100 -25 0 0 rrcurveto
          0 0 0 -1253 0 0 rrcurveto
          0 0 -229 0 0 0 rrcurveto
          0 0 0 999 0 0 rrcurveto
          endchar
        </CharString>
        <CharString name="Digit Seven">
          1241 360 -267 rmoveto
          175 373 188 453 201 532 rrcurveto
          0 0 -754 2 0 0 rrcurveto
          0 0 1 178 0 0 rrcurveto
          0 0 949 0 0 0 rrcurveto
          0 0 46 -58 0 0 rrcurveto
          0 0 -571 -1548 0 0 rrcurveto
          0 0 -235 68 0 0 rrcurveto
          endchar
        </CharString>
        <CharString name="Digit Six">
          1373 604 771 rmoveto
          0 0 -60 130 0 0 rrcurveto
          39 37 61 26 83 16 rrcurveto
          30 5 40 3 50 0 rrcurveto
          49 0 50 -12 50 -24 rrcurveto
          50 -24 42 -32 34 -41 rrcurveto
          71 -83 35 -104 0 -125 rrcurveto
          0 -155 -44 -129 -88 -103 rrcurveto
          -97 -115 -134 -57 -171 0 rrcurveto
          -157 0 -127 58 -95 116 rrcurveto
          -90 110 -45 138 0 165 rrcurveto
          0 172 43 161 87 151 rrcurveto
          79 136 105 115 132 95 rrcurveto
          125 90 128 57 130 25 rrcurveto
          0 0 60 -142 0 0 rrcurveto
          -121 -32 -112 -57 -102 -82 rrcurveto
          -145 -117 -96 -143 -49 -170 rrcurveto
          -15 -53 -8 -44 -1 -34 rrcurveto
          -1 -34 -1 -24 0 -14 rrcurveto
          0 -327 102 -163 203 0 rrcurveto
          90 0 71 37 51 74 rrcurveto
          47 68 23 83 0 98 rrcurveto
          0 114 -23 84 -46 55 rrcurveto
          -39 45 -52 22 -66 0 rrcurveto
          -66 0 -58 -15 -51 -31 rrcurveto
          endchar
        </CharString>
        <CharString name="Digit Three">
          1147 524 1115 rmoveto
          -107 0 -105 -36 -102 -72 rrcurveto
          0 0 -86 125 0 0 rrcurveto
          80 66 97 47 114 29 rrcurveto
          42 10 46 5 51 0 rrcurveto
          51 0 51 -7 53 -15 rrcurveto
          52 -15 46 -23 40 -30 rrcurveto
          87 -65 43 -89 0 -114 rrcurveto
          0 -122 -56 -104 -111 -85 rrcurveto
          -33 -26 -36 -22 -39 -18 rrcurveto
          109 -13 88 -42 67 -73 rrcurveto
          61 -67 31 -73 0 -81 rrcurveto
          0 -81 -15 -72 -31 -64 rrcurveto
          -65 -133 -116 -95 -167 -57 rrcurveto
          -82 -28 -93 -14 -103 0 rrcurveto
          -69 0 -71 7 -73 13 rrcurveto
          0 0 -1 152 0 0 rrcurveto
          57 -11 60 -6 63 0 rrcurveto
          63 0 63 9 61 19 rrcurveto
          61 19 53 25 43 32 rrcurveto
          92 67 46 85 0 101 rrcurveto
          0 141 -65 88 -129 34 rrcurveto
          -33 8 -30 4 -29 0 rrcurveto
          -29 0 -24 -1 -18 -1 rrcurveto
          0 0 -91 -22 0 0 rrcurveto
          0 0 -46 151 0 0 rrcurveto
          67 13 66 20 65 27 rrcurveto
          64 26 53 37 41 47 rrcurveto
          43 48 21 55 0 62 rrcurveto
          0 69 -22 52 -45 35 rrcurveto
          -41 33 -56 16 -72 0 rrcurveto
          endchar
        </CharString>
        <CharString name="Digit Two">
          1269 167 113 rmoveto
          187 108 156 120 127 131 rrcurveto
          143 149 72 140 0 131 rrcurveto
          0 107 -45 70 -89 32 rrcurveto
          -30 11 -33 5 -36 0 rrcurveto
          -36 0 -34 -4 -32 -8 rrcurveto
          -33 -8 -31 -10 -29 -13 rrcurveto
          -58 -26 -48 -33 -39 -40 rrcurveto
          0 0 -93 124 0 0 rrcurveto
          77 85 100 59 123 31 rrcurveto
          47 12 58 6 69 0 rrcurveto
          69 0 62 -11 56 -21 rrcurveto
          56 -21 45 -29 34 -36 rrcurveto
          63 -67 31 -90 0 -113 rrcurveto
          0 -127 -50 -130 -100 -131 rrcurveto
          -97 -127 -132 -115 -167 -103 rrcurveto
          0 0 615 6 0 0 rrcurveto
          0 0 0 -177 0 0 rrcurveto
          0 0 -945 0 0 0 rrcurveto
          0 0 -33 113 0 0 rrcurveto
          endchar
        </CharString>
        <CharString name="Digit Zero">
          1386 288 186 rmoveto
          -43 61 -31 68 -18 77 rrcurveto
          -19 77 -9 84 0 92 rrcurveto
          0 91 15 86 30 80 rrcurveto
          29 80 40 67 50 55 rrcurveto
          103 113 133 57 163 0 rrcurveto
          188 0 138 -62 89 -124 rrcurveto
          75 -104 37 -147 0 -189 rrcurveto
          0 -199 -51 -160 -103 -123 rrcurveto
          -101 -121 -133 -61 -164 0 rrcurveto
          -184 0 -139 67 -95 135 rrcurveto
          184 112 rmoveto
          59 -108 83 -54 109 0 rrcurveto
          100 0 76 43 53 86 rrcurveto
          53 85 26 121 0 158 rrcurveto
          0 227 -57 151 -115 75 rrcurveto
          -39 25 -47 13 -54 0 rrcurveto
          -54 0 -47 -11 -40 -21 rrcurveto
          -41 -22 -34 -31 -27 -41 rrcurveto
          -54 -81 -27 -114 0 -147 rrcurveto
          0 -141 26 -118 51 -95 rrcurveto
          endchar
        </CharString>
        <CharString name="Division sign">
          1393 774 1041 rmoveto
          -20 -8 -20 -4 -20 0 rrcurveto
          -21 0 -18 3 -17 7 rrcurveto
          -17 7 -15 9 -13 12 rrcurveto
          -28 27 -14 29 0 32 rrcurveto
          0 31 5 26 9 19 rrcurveto
          9 19 13 17 15 15 rrcurveto
          33 31 33 16 33 0 rrcurveto
          33 0 26 -4 18 -7 rrcurveto
          17 -7 15 -10 12 -13 rrcurveto
          23 -26 12 -29 0 -31 rrcurveto
          0 -32 -5 -26 -9 -19 rrcurveto
          -9 -20 -13 -17 -15 -14 rrcurveto
          -15 -14 -18 -11 -19 -8 rrcurveto
          -525 -183 rmoveto
          0 0 935 0 0 0 rrcurveto
          0 0 0 -170 0 0 rrcurveto
          0 0 -935 0 0 0 rrcurveto
          0 0 0 170 0 0 rrcurveto
          333 -552 rmoveto
          -8 17 -4 19 0 22 rrcurveto
          0 22 5 21 9 19 rrcurveto
          9 19 13 17 15 15 rrcurveto
          33 31 33 16 33 0 rrcurveto
          33 0 26 -4 18 -7 rrcurveto
          17 -7 15 -10 11 -12 rrcurveto
          24 -25 12 -29 0 -32 rrcurveto
          0 -33 -5 -26 -9 -19 rrcurveto
          -9 -20 -13 -17 -15 -14 rrcurveto
          -32 -29 -38 -15 -44 0 rrcurveto
          -62 0 -43 27 -24 54 rrcurveto
          endchar
        </CharString>
        <CharString name="Dollar sign">
          1372 667 161 rmoveto
          202 0 101 70 0 141 rrcurveto
          0 69 -29 58 -59 49 rrcurveto
          -39 33 -63 37 -87 42 rrcurveto
          -87 42 -67 36 -45 30 rrcurveto
          -46 30 -41 34 -35 38 rrcurveto
          -80 85 -40 92 0 100 rrcurveto
          0 117 41 92 81 68 rrcurveto
          69 58 93 36 117 13 rrcurveto
          0 0 2 231 0 0 rrcurveto
          0 0 163 0 0 0 rrcurveto
          0 0 -2 -226 0 0 rrcurveto
          124 -7 99 -25 73 -45 rrcurveto
          0 0 -45 -176 0 0 rrcurveto
          -87 53 -104 27 -121 0 rrcurveto
          -129 0 -89 -34 -47 -67 rrcurveto
          -17 -24 -8 -29 0 -35 rrcurveto
          0 -35 6 -31 11 -27 rrcurveto
          11 -27 17 -25 24 -23 rrcurveto
          37 -35 57 -37 76 -39 rrcurveto
          75 -39 55 -28 33 -19 rrcurveto
          33 -19 33 -19 31 -21 rrcurveto
          31 -21 30 -23 27 -24 rrcurveto
          27 -25 24 -26 21 -29 rrcurveto
          43 -63 22 -65 0 -68 rrcurveto
          0 -68 -10 -58 -20 -48 rrcurveto
          -20 -48 -28 -41 -36 -34 rrcurveto
          -70 -66 -99 -40 -129 -14 rrcurveto
          0 0 -2 -226 0 0 rrcurveto
          0 0 -163 0 0 0 rrcurveto
          0 0 2 223 0 0 rrcurveto
          -118 7 -102 20 -86 33 rrcurveto
          -23 9 -18 8 -12 8 rrcurveto
          0 0 53 183 0 0 rrcurveto
          67 -41 85 -28 103 -16 rrcurveto
          35 -5 34 -3 35 0 rrcurveto
          endchar
        </CharString>
        <CharString name="Equal sign">
          1399 262 1116 rmoveto
          0 0 915 0 0 0 rrcurveto
          0 0 0 -167 0 0 rrcurveto
          0 0 -915 0 0 0 rrcurveto
          0 0 0 167 0 0 rrcurveto
          0 -517 rmoveto
          0 0 915 0 0 0 rrcurveto
          0 0 0 -166 0 0 rrcurveto
          0 0 -915 0 0 0 rrcurveto
          0 0 0 166 0 0 rrcurveto
          endchar
        </CharString>
        <CharString name="Exclamation mark">
          602 202 1780 rmoveto
          0 0 248 0 0 0 rrcurveto
          0 0 -24 -1274 0 0 rrcurveto
          0 0 -196 0 0 0 rrcurveto
          0 0 -28 1274 0 0 rrcurveto
          10 -1759 rmoveto
          -13 13 -11 17 -8 19 rrcurveto
          -9 19 -4 22 0 23 rrcurveto
          0 23 4 21 9 21 rrcurveto
          9 20 12 18 15 15 rrcurveto
          33 35 32 17 33 0 rrcurveto
          33 0 25 -4 18 -8 rrcurveto
          18 -8 15 -11 13 -14 rrcurveto
          26 -30 13 -32 0 -33 rrcurveto
          0 -33 -4 -27 -9 -21 rrcurveto
          -9 -21 -12 -18 -15 -16 rrcurveto
          -32 -33 -38 -17 -43 0 rrcurveto
          -39 0 -33 14 -29 29 rrcurveto
          endchar
        </CharString>
        <CharString name="Feminine Ordinal Indicator">
          1034 534 686 rmoveto
          -27 -6 -31 -3 -37 0 rrcurveto
          -37 0 -38 5 -37 11 rrcurveto
          -37 11 -32 15 -27 21 rrcurveto
          -57 45 -28 61 0 79 rrcurveto
          0 119 60 84 120 48 rrcurveto
          103 37 124 19 145 0 rrcurveto
          0 0 0 64 0 0 rrcurveto
          0 63 -17 42 -33 20 rrcurveto
          -25 15 -35 8 -46 0 rrcurveto
          -47 0 -37 -3 -27 -5 rrcurveto
          -28 -6 -27 -7 -26 -8 rrcurveto
          -57 -17 -40 -17 -25 -17 rrcurveto
          0 0 -56 121 0 0 rrcurveto
          23 21 39 20 54 19 rrcurveto
          105 36 83 18 61 0 rrcurveto
          61 0 52 -5 43 -9 rrcurveto
          43 -10 36 -16 30 -23 rrcurveto
          63 -49 31 -78 0 -107 rrcurveto
          0 0 0 -615 0 0 rrcurveto
          0 0 -71 0 0 0 rrcurveto
          -45 0 -28 2 -11 5 rrcurveto
          -21 8 -11 22 0 35 rrcurveto
          0 0 0 14 0 0 rrcurveto
          -39 -41 -59 -29 -77 -17 rrcurveto
          -104 145 rmoveto
          17 -5 20 -2 23 0 rrcurveto
          23 0 23 3 23 5 rrcurveto
          23 5 21 5 19 7 rrcurveto
          34 12 25 13 16 14 rrcurveto
          0 0 1 -1 0 0 rrcurveto
          0 0 0 223 0 0 rrcurveto
          -97 0 -65 -3 -32 -7 rrcurveto
          -33 -7 -28 -10 -24 -11 rrcurveto
          -53 -26 -26 -44 0 -63 rrcurveto
          0 -56 30 -36 60 -16 rrcurveto
          endchar
        </CharString>
        <CharString name="Full stop">
          602 213 21 rmoveto
          -13 13 -11 17 -9 19 rrcurveto
          -9 19 -4 22 0 23 rrcurveto
          0 23 4 21 9 21 rrcurveto
          9 20 12 18 15 15 rrcurveto
          33 35 33 17 33 0 rrcurveto
          33 0 25 -4 18 -8 rrcurveto
          18 -8 15 -11 12 -14 rrcurveto
          26 -29 13 -32 0 -33 rrcurveto
          0 -34 -4 -27 -8 -21 rrcurveto
          -9 -21 -11 -18 -15 -16 rrcurveto
          -33 -33 -38 -17 -44 0 rrcurveto
          -38 0 -33 14 -29 29 rrcurveto
          endchar
        </CharString>
        <CharString name="Grave accent">
          595 227 1783 rmoveto
          63 -80 112 -133 163 -186 rrcurveto
          0 0 -111 -90 0 0 rrcurveto
          -39 17 -66 51 -92 85 rrcurveto
          -93 85 -62 67 -32 49 rrcurveto
          0 0 157 135 0 0 rrcurveto
          endchar
        </CharString>
        <CharString name="Greater-than sign">
          1368 1220 850 rmoveto
          0 0 -966 446 0 0 rrcurveto
          0 0 0 -205 0 0 rrcurveto
          0 0 731 -318 0 0 rrcurveto
          0 0 -731 -313 0 0 rrcurveto
          0 0 0 -208 0 0 rrcurveto
          0 0 966 444 0 0 rrcurveto
          0 0 0 154 0 0 rrcurveto
          endchar
        </CharString>
        <CharString name="Hyphen-minus">
          1350 270 860 rmoveto
          0 0 850 0 0 0 rrcurveto
          0 0 0 -177 0 0 rrcurveto
          0 0 -850 0 0 0 rrcurveto
          0 0 0 177 0 0 rrcurveto
          endchar
        </CharString>
        <CharString name="Inverted Exclamation Mark">
          602 440 -436 rmoveto
          0 0 -248 0 0 0 rrcurveto
          0 0 24 1274 0 0 rrcurveto
          0 0 196 0 0 0 rrcurveto
          0 0 28 -1274 0 0 rrcurveto
          -10 1759 rmoveto
          13 -13 11 -17 9 -19 rrcurveto
          8 -19 4 -21 0 -23 rrcurveto
          0 -23 -4 -22 -9 -20 rrcurveto
          -9 -21 -12 -18 -15 -15 rrcurveto
          -33 -35 -32 -17 -33 0 rrcurveto
          -33 0 -25 4 -18 8 rrcurveto
          -18 8 -15 11 -13 14 rrcurveto
          -26 30 -13 32 0 33 rrcurveto
          0 33 4 27 9 21 rrcurveto
          9 21 12 18 15 16 rrcurveto
          32 33 38 17 43 0 rrcurveto
          39 0 33 -14 29 -29 rrcurveto
          0 0 0 0 0 0 rrcurveto
          endchar
        </CharString>
        <CharString name="Inverted Question Mark">
          1047 566 -103 rmoveto
          57 -18 68 -9 77 0 rrcurveto
          77 0 59 6 41 11 rrcurveto
          0 0 0 -160 0 0 rrcurveto
          -21 -15 -35 -11 -49 -6 rrcurveto
          -49 -7 -37 -3 -25 0 rrcurveto
          -227 0 -165 61 -103 122 rrcurveto
          -67 79 -34 97 0 115 rrcurveto
          0 37 4 40 8 43 rrcurveto
          8 43 16 40 24 36 rrcurveto
          24 36 28 32 32 28 rrcurveto
          31 27 33 25 35 22 rrcurveto
          34 21 32 22 29 21 rrcurveto
          68 48 36 48 4 47 rrcurveto
          1 13 1 12 0 11 rrcurveto
          0 11 0 12 -1 14 rrcurveto
          -1 14 -3 17 -4 20 rrcurveto
          -5 20 -12 44 -20 67 rrcurveto
          0 0 167 0 0 0 rrcurveto
          37 -43 26 -64 17 -84 rrcurveto
          6 -31 3 -32 0 -31 rrcurveto
          0 -32 -9 -30 -18 -28 rrcurveto
          -19 -29 -24 -27 -30 -25 rrcurveto
          -30 -25 -33 -24 -35 -22 rrcurveto
          -36 -23 -34 -23 -33 -23 rrcurveto
          -76 -54 -42 -51 -9 -48 rrcurveto
          -9 -38 -5 -33 0 -29 rrcurveto
          0 -144 72 -95 145 -45 rrcurveto
          0 0 0 0 0 0 rrcurveto
          154 1559 rmoveto
          9 -19 4 -20 0 -22 rrcurveto
          0 -22 -4 -21 -9 -20 rrcurveto
          -9 -20 -12 -18 -15 -15 rrcurveto
          -32 -33 -32 -17 -32 0 rrcurveto
          -32 0 -25 4 -17 8 rrcurveto
          -18 8 -15 11 -12 13 rrcurveto
          -25 28 -13 30 0 33 rrcurveto
          0 33 4 26 9 21 rrcurveto
          8 20 11 18 15 15 rrcurveto
          31 33 38 16 43 0 rrcurveto
          59 0 44 -30 27 -60 rrcurveto
          0 0 0 0 0 0 rrcurveto
          endchar
        </CharString>
        <CharString name="Latin Capital Letter A">
          1407 623 1538 rmoveto
          0 0 215 0 0 0 rrcurveto
          0 0 568 -1538 0 0 rrcurveto
          0 0 -241 0 0 0 rrcurveto
          0 0 -130 385 0 0 rrcurveto
          0 0 -622 0 0 0 rrcurveto
          0 0 -136 -385 0 0 rrcurveto
          0 0 -236 0 0 0 rrcurveto
          0 0 582 1538 0 0 rrcurveto
          356 -987 rmoveto
          0 0 -204 609 0 0 rrcurveto
          0 0 -43 142 0 0 rrcurveto
          0 0 -44 -142 0 0 rrcurveto
          0 0 -216 -609 0 0 rrcurveto
          0 0 507 0 0 0 rrcurveto
          endchar
        </CharString>
        <CharString name="Latin Capital Letter A with acute">
          1407 623 1538 rmoveto
          0 0 215 0 0 0 rrcurveto
          0 0 568 -1538 0 0 rrcurveto
          0 0 -241 0 0 0 rrcurveto
          0 0 -130 385 0 0 rrcurveto
          0 0 -622 0 0 0 rrcurveto
          0 0 -136 -385 0 0 rrcurveto
          0 0 -236 0 0 0 rrcurveto
          0 0 582 1538 0 0 rrcurveto
          356 -987 rmoveto
          0 0 -204 609 0 0 rrcurveto
          0 0 -43 142 0 0 rrcurveto
          0 0 -44 -142 0 0 rrcurveto
          0 0 -216 -609 0 0 rrcurveto
          0 0 507 0 0 0 rrcurveto
          -385 1114 rmoveto
          1 1 10 8 17 16 rrcurveto
          17 15 21 19 25 23 rrcurveto
          25 22 28 24 29 27 rrcurveto
          29 26 27 25 25 23 rrcurveto
          58 53 30 29 1 4 rrcurveto
          0 0 146 -133 0 0 rrcurveto
          -79 -82 -100 -76 -120 -69 rrcurveto
          -36 -21 -32 -16 -29 -10 rrcurveto
          0 0 -93 92 0 0 rrcurveto
          endchar
        </CharString>
        <CharString name="Latin Capital Letter A with breve">
          1407 623 1538 rmoveto
          0 0 215 0 0 0 rrcurveto
          0 0 568 -1538 0 0 rrcurveto
          0 0 -241 0 0 0 rrcurveto
          0 0 -130 385 0 0 rrcurveto
          0 0 -622 0 0 0 rrcurveto
          0 0 -136 -385 0 0 rrcurveto
          0 0 -236 0 0 0 rrcurveto
          0 0 582 1538 0 0 rrcurveto
          356 -987 rmoveto
          0 0 -204 609 0 0 rrcurveto
          0 0 -43 142 0 0 rrcurveto
          0 0 -44 -142 0 0 rrcurveto
          0 0 -216 -609 0 0 rrcurveto
          0 0 507 0 0 0 rrcurveto
          -108 1109 rmoveto
          -45 -19 -50 -9 -56 0 rrcurveto
          -57 0 -50 9 -44 19 rrcurveto
          -89 37 -59 60 -27 84 rrcurveto
          -10 31 -5 27 0 22 rrcurveto
          0 22 0 16 1 11 rrcurveto
          0 0 153 0 0 0 rrcurveto
          0 -79 36 -52 73 -23 rrcurveto
          21 -7 27 -4 32 0 rrcurveto
          31 0 27 4 22 7 rrcurveto
          22 7 18 9 15 11 rrcurveto
          14 11 11 12 8 13 rrcurveto
          7 13 6 12 4 12 rrcurveto
          5 19 3 18 0 17 rrcurveto
          0 0 149 0 0 0 rrcurveto
          1 -10 0 -16 0 -22 rrcurveto
          0 -22 -6 -29 -13 -36 rrcurveto
          -13 -37 -21 -33 -30 -31 rrcurveto
          -30 -31 -37 -25 -44 -18 rrcurveto
          endchar
        </CharString>
        <CharString name="Latin Capital Letter A with circumflex">
          1407 623 1538 rmoveto
          0 0 215 0 0 0 rrcurveto
          0 0 568 -1538 0 0 rrcurveto
          0 0 -241 0 0 0 rrcurveto
          0 0 -130 385 0 0 rrcurveto
          0 0 -622 0 0 0 rrcurveto
          0 0 -136 -385 0 0 rrcurveto
          0 0 -236 0 0 0 rrcurveto
          0 0 582 1538 0 0 rrcurveto
          356 -987 rmoveto
          0 0 -204 609 0 0 rrcurveto
          0 0 -43 142 0 0 rrcurveto
          0 0 -44 -142 0 0 rrcurveto
          0 0 -216 -609 0 0 rrcurveto
          0 0 507 0 0 0 rrcurveto
          -615 1138 rmoveto
          0 0 259 301 0 0 rrcurveto
          0 0 197 0 0 0 rrcurveto
          0 0 262 -298 0 0 rrcurveto
          0 0 -144 -60 0 0 rrcurveto
          0 0 -216 202 0 0 rrcurveto
          0 0 -221 -202 0 0 rrcurveto
          0 0 -137 57 0 0 rrcurveto
          endchar
        </CharString>
        <CharString name="Latin Capital Letter A with diaeresis">
          1407 623 1538 rmoveto
          0 0 215 0 0 0 rrcurveto
          0 0 568 -1538 0 0 rrcurveto
          0 0 -241 0 0 0 rrcurveto
          0 0 -130 385 0 0 rrcurveto
          0 0 -622 0 0 0 rrcurveto
          0 0 -136 -385 0 0 rrcurveto
          0 0 -236 0 0 0 rrcurveto
          0 0 582 1538 0 0 rrcurveto
          356 -987 rmoveto
          0 0 -204 609 0 0 rrcurveto
          0 0 -43 142 0 0 rrcurveto
          0 0 -44 -142 0 0 rrcurveto
          0 0 -216 -609 0 0 rrcurveto
          0 0 507 0 0 0 rrcurveto
          40 1127 rmoveto
          -19 -7 -20 -4 -19 0 rrcurveto
          -20 0 -18 3 -17 6 rrcurveto
          -17 6 -14 9 -13 11 rrcurveto
          -27 26 -13 28 0 31 rrcurveto
          0 31 5 25 9 19 rrcurveto
          9 19 12 16 15 13 rrcurveto
          32 30 32 15 32 0 rrcurveto
          32 0 25 -3 17 -7 rrcurveto
          17 -7 15 -10 11 -12 rrcurveto
          23 -24 11 -28 0 -31 rrcurveto
          0 -31 -4 -25 -9 -19 rrcurveto
          -9 -19 -11 -16 -15 -13 rrcurveto
          -15 -14 -18 -11 -19 -7 rrcurveto
          -496 0 rmoveto
          -19 -7 -20 -4 -19 0 rrcurveto
          -20 0 -18 3 -17 6 rrcurveto
          -17 6 -14 9 -13 11 rrcurveto
          -27 26 -13 28 0 31 rrcurveto
          0 31 5 25 9 19 rrcurveto
          9 19 12 16 15 13 rrcurveto
          32 30 32 15 32 0 rrcurveto
          32 0 25 -3 17 -7 rrcurveto
          17 -7 15 -10 11 -12 rrcurveto
          23 -24 11 -28 0 -31 rrcurveto
          0 -31 -4 -25 -9 -19 rrcurveto
          -9 -19 -11 -16 -15 -13 rrcurveto
          -15 -14 -18 -11 -19 -7 rrcurveto
          endchar
        </CharString>
        <CharString name="Latin Capital Letter A with grave">
          1407 623 1538 rmoveto
          0 0 215 0 0 0 rrcurveto
          0 0 568 -1538 0 0 rrcurveto
          0 0 -241 0 0 0 rrcurveto
          0 0 -130 385 0 0 rrcurveto
          0 0 -622 0 0 0 rrcurveto
          0 0 -136 -385 0 0 rrcurveto
          0 0 -236 0 0 0 rrcurveto
          0 0 582 1538 0 0 rrcurveto
          356 -987 rmoveto
          0 0 -204 609 0 0 rrcurveto
          0 0 -43 142 0 0 rrcurveto
          0 0 -44 -142 0 0 rrcurveto
          0 0 -216 -609 0 0 rrcurveto
          0 0 507 0 0 0 rrcurveto
          -220 1022 rmoveto
          -67 22 -93 57 -121 92 rrcurveto
          -54 41 -39 35 -23 27 rrcurveto
          0 0 146 133 0 0 rrcurveto
          3 -11 50 -47 95 -83 rrcurveto
          95 -84 56 -50 17 -15 rrcurveto
          17 -16 9 -8 1 -1 rrcurveto
          0 0 -92 -92 0 0 rrcurveto
          endchar
        </CharString>
        <CharString name="Latin Capital Letter A with macron">
          1407 623 1538 rmoveto
          0 0 215 0 0 0 rrcurveto
          0 0 568 -1538 0 0 rrcurveto
          0 0 -241 0 0 0 rrcurveto
          0 0 -130 385 0 0 rrcurveto
          0 0 -622 0 0 0 rrcurveto
          0 0 -136 -385 0 0 rrcurveto
          0 0 -236 0 0 0 rrcurveto
          0 0 582 1538 0 0 rrcurveto
          356 -987 rmoveto
          0 0 -204 609 0 0 rrcurveto
          0 0 -43 142 0 0 rrcurveto
          0 0 -44 -142 0 0 rrcurveto
          0 0 -216 -609 0 0 rrcurveto
          0 0 507 0 0 0 rrcurveto
          -528 1340 rmoveto
          0 0 547 0 0 0 rrcurveto
          0 0 0 -162 0 0 rrcurveto
          0 0 -547 0 0 0 rrcurveto
          0 0 0 162 0 0 rrcurveto
          endchar
        </CharString>
        <CharString name="Latin Capital Letter A with ogonek">
          1407 1414 -453 rmoveto
          -51 -39 -79 -20 -107 0 rrcurveto
          -114 0 -76 40 -37 80 rrcurveto
          -13 27 -6 31 0 33 rrcurveto
          0 33 8 31 16 29 rrcurveto
          16 29 21 28 26 25 rrcurveto
          47 47 60 42 72 37 rrcurveto
          0 0 -32 0 0 0 rrcurveto
          0 0 -130 385 0 0 rrcurveto
          0 0 -622 0 0 0 rrcurveto
          0 0 -136 -385 0 0 rrcurveto
          0 0 -236 0 0 0 rrcurveto
          0 0 582 1538 0 0 rrcurveto
          0 0 215 0 0 0 rrcurveto
          0 0 568 -1538 0 0 rrcurveto
          0 0 -39 0 0 0 rrcurveto
          -100 -57 -68 -63 -35 -70 rrcurveto
          -11 -22 -6 -22 0 -21 rrcurveto
          0 -73 43 -36 85 0 rrcurveto
          43 0 47 10 49 19 rrcurveto
          0 0 0 -118 0 0 rrcurveto
          -435 1004 rmoveto
          0 0 -204 609 0 0 rrcurveto
          0 0 -43 142 0 0 rrcurveto
          0 0 -44 -142 0 0 rrcurveto
          0 0 -216 -609 0 0 rrcurveto
          0 0 507 0 0 0 rrcurveto
          endchar
        </CharString>
        <CharString name="Latin Capital Letter A with ring above">
          1407 591 1453 rmoveto
          -60 18 -47 31 -33 43 rrcurveto
          -33 43 -17 52 0 61 rrcurveto
          0 91 34 70 69 48 rrcurveto
          57 40 72 20 88 0 rrcurveto
          153 0 100 -50 46 -100 rrcurveto
          15 -33 7 -43 -1 -55 rrcurveto
          -1 -55 -16 -47 -32 -40 rrcurveto
          -33 -41 -41 -29 -51 -18 rrcurveto
          0 0 539 -1459 0 0 rrcurveto
          0 0 -241 0 0 0 rrcurveto
          0 0 -130 385 0 0 rrcurveto
          0 0 -622 0 0 0 rrcurveto
          0 0 -136 -385 0 0 rrcurveto
          0 0 -236 0 0 0 rrcurveto
          0 0 550 1453 0 0 rrcurveto
          128 108 rmoveto
          113 0 56 48 0 97 rrcurveto
          0 67 -34 44 -68 20 rrcurveto
          -21 6 -21 3 -22 0 rrcurveto
          -22 0 -21 -2 -19 -4 rrcurveto
          -19 -4 -18 -7 -15 -11 rrcurveto
          -34 -23 -17 -36 0 -47 rrcurveto
          0 -47 15 -37 29 -26 rrcurveto
          29 -26 39 -14 50 -1 rrcurveto
          260 -1010 rmoveto
          0 0 -204 609 0 0 rrcurveto
          0 0 -43 142 0 0 rrcurveto
          0 0 -44 -142 0 0 rrcurveto
          0 0 -216 -609 0 0 rrcurveto
          0 0 507 0 0 0 rrcurveto
          endchar
        </CharString>
        <CharString name="Latin Capital Letter A with tilde">
          1407 623 1538 rmoveto
          0 0 215 0 0 0 rrcurveto
          0 0 568 -1538 0 0 rrcurveto
          0 0 -241 0 0 0 rrcurveto
          0 0 -130 385 0 0 rrcurveto
          0 0 -622 0 0 0 rrcurveto
          0 0 -136 -385 0 0 rrcurveto
          0 0 -236 0 0 0 rrcurveto
          0 0 582 1538 0 0 rrcurveto
          356 -987 rmoveto
          0 0 -204 609 0 0 rrcurveto
          0 0 -43 142 0 0 rrcurveto
          0 0 -44 -142 0 0 rrcurveto
          0 0 -216 -609 0 0 rrcurveto
          0 0 507 0 0 0 rrcurveto
          -413 1254 rmoveto
          -57 0 -58 -34 -60 -68 rrcurveto
          0 0 -85 68 0 0 rrcurveto
          23 56 40 47 56 37 rrcurveto
          54 37 51 18 47 0 rrcurveto
          47 0 36 -7 26 -14 rrcurveto
          25 -15 23 -16 21 -17 rrcurveto
          20 -18 19 -16 19 -14 rrcurveto
          19 -15 22 -7 25 0 rrcurveto
          59 0 58 33 58 66 rrcurveto
          0 0 86 -71 0 0 rrcurveto
          -23 -56 -40 -46 -56 -37 rrcurveto
          -55 -37 -54 -18 -53 0 rrcurveto
          -45 0 -36 9 -26 18 rrcurveto
          -27 17 -20 15 -13 13 rrcurveto
          -13 13 -13 11 -13 11 rrcurveto
          -29 25 -29 12 -29 0 rrcurveto
          endchar
        </CharString>
        <CharString name="Latin Capital Letter B">
          1339 672 -14 rmoveto
          -105 0 -116 5 -126 9 rrcurveto
          0 0 -111 0 0 0 rrcurveto
          0 0 0 1523 0 0 rrcurveto
          0 0 104 -1 0 0 rrcurveto
          0 0 350 15 0 0 rrcurveto
          248 0 155 -71 63 -142 rrcurveto
          20 -44 10 -44 0 -44 rrcurveto
          0 -45 -4 -40 -9 -37 rrcurveto
          -9 -37 -13 -36 -19 -33 rrcurveto
          -41 -74 -59 -47 -77 -20 rrcurveto
          92 -4 79 -39 66 -74 rrcurveto
          65 -72 32 -83 0 -95 rrcurveto
          0 -149 -43 -113 -87 -76 rrcurveto
          -101 -88 -155 -44 -209 0 rrcurveto
          -45 1394 rmoveto
          -105 0 -64 -4 -22 -9 rrcurveto
          0 0 0 -500 0 0 rrcurveto
          28 -5 46 -2 64 0 rrcurveto
          0 0 139 2 0 0 rrcurveto
          68 0 55 23 43 47 rrcurveto
          46 51 23 71 0 91 rrcurveto
          0 157 -107 78 -214 0 rrcurveto
          -38 -676 rmoveto
          -73 0 -51 -2 -29 -4 rrcurveto
          0 0 0 -527 0 0 rrcurveto
          25 -15 60 -8 97 0 rrcurveto
          97 0 70 5 45 9 rrcurveto
          45 9 38 16 31 22 rrcurveto
          65 45 32 72 0 99 rrcurveto
          0 98 -29 71 -57 44 rrcurveto
          -57 43 -89 22 -121 0 rrcurveto
          0 0 -99 1 0 0 rrcurveto
          endchar
        </CharString>
        <CharString name="Latin Capital Letter C">
          1313 1186 1283 rmoveto
          -91 49 -117 25 -144 0 rrcurveto
          -153 0 -122 -53 -89 -106 rrcurveto
          -89 -106 -45 -143 0 -181 rrcurveto
          0 -181 44 -146 88 -111 rrcurveto
          91 -113 121 -57 153 0 rrcurveto
          118 0 105 19 92 39 rrcurveto
          26 11 20 12 13 12 rrcurveto
          0 0 1 -189 0 0 rrcurveto
          -98 -39 -77 -23 -55 -7 rrcurveto
          -55 -7 -52 -4 -47 0 rrcurveto
          -214 0 -172 71 -130 141 rrcurveto
          -129 141 -64 185 0 231 rrcurveto
          0 243 71 193 141 145 rrcurveto
          65 67 75 50 85 35 rrcurveto
          85 35 80 17 76 0 rrcurveto
          75 0 60 -2 44 -5 rrcurveto
          43 -5 38 -5 32 -6 rrcurveto
          32 -7 27 -6 22 -6 rrcurveto
          21 -7 18 -5 13 -3 rrcurveto
          0 0 -32 -198 0 0 rrcurveto
          endchar
        </CharString>
        <CharString name="Latin Capital Letter C with acute">
          1313 1186 1283 rmoveto
          -91 49 -117 25 -144 0 rrcurveto
          -153 0 -122 -53 -89 -106 rrcurveto
          -89 -106 -45 -143 0 -181 rrcurveto
          0 -181 44 -146 88 -111 rrcurveto
          91 -113 121 -57 153 0 rrcurveto
          118 0 105 19 92 39 rrcurveto
          26 11 20 12 13 12 rrcurveto
          0 0 1 -189 0 0 rrcurveto
          -98 -39 -77 -23 -55 -7 rrcurveto
          -55 -7 -52 -4 -47 0 rrcurveto
          -214 0 -172 71 -130 141 rrcurveto
          -129 141 -64 185 0 231 rrcurveto
          0 243 71 193 141 145 rrcurveto
          65 67 75 50 85 35 rrcurveto
          85 35 80 17 76 0 rrcurveto
          75 0 60 -2 44 -5 rrcurveto
          43 -5 38 -5 32 -6 rrcurveto
          32 -7 27 -6 22 -6 rrcurveto
          21 -7 18 -5 13 -3 rrcurveto
          0 0 -32 -198 0 0 rrcurveto
          -499 382 rmoveto
          1 1 10 8 17 16 rrcurveto
          17 15 21 19 25 23 rrcurveto
          25 22 28 24 29 27 rrcurveto
          29 26 27 25 25 23 rrcurveto
          58 53 30 29 1 4 rrcurveto
          0 0 146 -133 0 0 rrcurveto
          -79 -82 -100 -76 -120 -69 rrcurveto
          -36 -21 -32 -16 -29 -10 rrcurveto
          0 0 -93 92 0 0 rrcurveto
          endchar
        </CharString>
        <CharString name="Latin Capital Letter C with caron">
          1313 1186 1283 rmoveto
          -91 49 -117 25 -144 0 rrcurveto
          -153 0 -122 -53 -89 -106 rrcurveto
          -89 -106 -45 -143 0 -181 rrcurveto
          0 -181 44 -146 88 -111 rrcurveto
          91 -113 121 -57 153 0 rrcurveto
          118 0 105 19 92 39 rrcurveto
          26 11 20 12 13 12 rrcurveto
          0 0 1 -189 0 0 rrcurveto
          -98 -39 -77 -23 -55 -7 rrcurveto
          -55 -7 -52 -4 -47 0 rrcurveto
          -214 0 -172 71 -130 141 rrcurveto
          -129 141 -64 185 0 231 rrcurveto
          0 243 71 193 141 145 rrcurveto
          65 67 75 50 85 35 rrcurveto
          85 35 80 17 76 0 rrcurveto
          75 0 60 -2 44 -5 rrcurveto
          43 -5 38 -5 32 -6 rrcurveto
          32 -7 27 -6 22 -6 rrcurveto
          21 -7 18 -5 13 -3 rrcurveto
          0 0 -32 -198 0 0 rrcurveto
          -714 647 rmoveto
          0 0 128 60 0 0 rrcurveto
          0 0 216 -174 0 0 rrcurveto
          0 0 221 174 0 0 rrcurveto
          0 0 120 -57 0 0 rrcurveto
          0 0 -242 -263 0 0 rrcurveto
          0 0 -197 0 0 0 rrcurveto
          0 0 -246 260 0 0 rrcurveto
          endchar
        </CharString>
        <CharString name="Latin Capital Letter C with cedilla">
          1313 536 -294 rmoveto
          15 -9 28 -5 39 0 rrcurveto
          88 0 44 73 0 146 rrcurveto
          0 29 -3 25 -7 23 rrcurveto
          -191 19 -152 78 -113 137 rrcurveto
          -113 138 -56 177 0 216 rrcurveto
          0 243 71 193 141 145 rrcurveto
          65 67 75 50 85 35 rrcurveto
          85 35 80 17 76 0 rrcurveto
          75 0 60 -2 44 -5 rrcurveto
          43 -5 38 -5 32 -6 rrcurveto
          32 -7 27 -6 22 -6 rrcurveto
          21 -7 18 -5 13 -3 rrcurveto
          0 0 -32 -198 0 0 rrcurveto
          -91 49 -117 25 -144 0 rrcurveto
          -153 0 -122 -53 -89 -106 rrcurveto
          -89 -106 -45 -143 0 -181 rrcurveto
          0 -181 44 -146 88 -111 rrcurveto
          91 -113 121 -57 153 0 rrcurveto
          118 0 105 19 92 39 rrcurveto
          26 11 20 12 13 12 rrcurveto
          0 0 1 -189 0 0 rrcurveto
          -85 -34 -67 -21 -47 -8 rrcurveto
          -47 -8 -43 -5 -39 -2 rrcurveto
          20 -43 10 -55 0 -66 rrcurveto
          0 -149 -53 -91 -105 -33 rrcurveto
          -27 -9 -24 -4 -21 0 rrcurveto
          -21 0 -18 1 -15 1 rrcurveto
          -15 1 -15 2 -13 3 rrcurveto
          -31 6 -20 7 -11 7 rrcurveto
          0 0 15 142 0 0 rrcurveto
          endchar
        </CharString>
        <CharString name="Latin Capital Letter C with circumflex">
          1313 1186 1283 rmoveto
          -91 49 -117 25 -144 0 rrcurveto
          -153 0 -122 -53 -89 -106 rrcurveto
          -89 -106 -45 -143 0 -181 rrcurveto
          0 -181 44 -146 88 -111 rrcurveto
          91 -113 121 -57 153 0 rrcurveto
          118 0 105 19 92 39 rrcurveto
          26 11 20 12 13 12 rrcurveto
          0 0 1 -189 0 0 rrcurveto
          -98 -39 -77 -23 -55 -7 rrcurveto
          -55 -7 -52 -4 -47 0 rrcurveto
          -214 0 -172 71 -130 141 rrcurveto
          -129 141 -64 185 0 231 rrcurveto
          0 243 71 193 141 145 rrcurveto
          65 67 75 50 85 35 rrcurveto
          85 35 80 17 76 0 rrcurveto
          75 0 60 -2 44 -5 rrcurveto
          43 -5 38 -5 32 -6 rrcurveto
          32 -7 27 -6 22 -6 rrcurveto
          21 -7 18 -5 13 -3 rrcurveto
          0 0 -32 -198 0 0 rrcurveto
          -729 406 rmoveto
          0 0 259 301 0 0 rrcurveto
          0 0 197 0 0 0 rrcurveto
          0 0 262 -298 0 0 rrcurveto
          0 0 -144 -60 0 0 rrcurveto
          0 0 -216 202 0 0 rrcurveto
          0 0 -221 -202 0 0 rrcurveto
          0 0 -137 57 0 0 rrcurveto
          endchar
        </CharString>
        <CharString name="Latin Capital Letter C with dot above">
          1313 866 1680 rmoveto
          -19 -7 -20 -4 -19 0 rrcurveto
          -20 0 -18 3 -17 6 rrcurveto
          -17 6 -15 9 -13 11 rrcurveto
          -27 25 -14 29 0 31 rrcurveto
          0 31 5 24 9 19 rrcurveto
          9 19 12 16 15 14 rrcurveto
          33 29 32 15 33 0 rrcurveto
          32 0 25 -3 17 -7 rrcurveto
          17 -7 15 -9 11 -12 rrcurveto
          23 -24 11 -28 0 -31 rrcurveto
          0 -31 -4 -25 -9 -19 rrcurveto
          -9 -19 -12 -16 -15 -13 rrcurveto
          -15 -14 -17 -11 -19 -7 rrcurveto
          320 -397 rmoveto
          -91 49 -117 25 -144 0 rrcurveto
          -153 0 -122 -53 -89 -106 rrcurveto
          -89 -106 -45 -143 0 -181 rrcurveto
          0 -181 44 -146 88 -111 rrcurveto
          91 -113 121 -57 153 0 rrcurveto
          118 0 105 19 92 39 rrcurveto
          26 11 20 12 13 12 rrcurveto
          0 0 1 -189 0 0 rrcurveto
          -98 -39 -77 -23 -55 -7 rrcurveto
          -55 -7 -52 -4 -47 0 rrcurveto
          -214 0 -172 71 -130 141 rrcurveto
          -129 141 -64 185 0 231 rrcurveto
          0 243 71 193 141 145 rrcurveto
          65 67 75 50 85 35 rrcurveto
          85 35 80 17 76 0 rrcurveto
          75 0 60 -2 44 -5 rrcurveto
          43 -5 38 -5 32 -6 rrcurveto
          32 -7 27 -6 22 -6 rrcurveto
          21 -7 18 -5 13 -3 rrcurveto
          0 0 -32 -198 0 0 rrcurveto
          endchar
        </CharString>
        <CharString name="Latin Capital Letter D">
          1472 680 -16 rmoveto
          0 0 -381 16 0 0 rrcurveto
          0 0 -85 0 0 0 rrcurveto
          0 0 0 1522 0 0 rrcurveto
          0 0 112 0 0 0 rrcurveto
          0 0 360 16 0 0 rrcurveto
          241 0 181 -65 122 -129 rrcurveto
          119 -125 59 -180 0 -235 rrcurveto
          0 -259 -67 -202 -133 -147 rrcurveto
          -129 -141 -176 -71 -223 0 rrcurveto
          190 1362 rmoveto
          -68 21 -76 10 -85 0 rrcurveto
          -85 0 -68 -5 -50 -11 rrcurveto
          0 0 0 -1193 0 0 rrcurveto
          53 -13 86 -6 120 0 rrcurveto
          228 5 148 113 67 223 rrcurveto
          24 78 12 95 0 111 rrcurveto
          0 111 -11 94 -23 77 rrcurveto
          -23 77 -35 62 -45 48 rrcurveto
          -45 47 -57 35 -67 21 rrcurveto
          endchar
        </CharString>
        <CharString name="Latin Capital Letter D with caron">
          1472 406 1930 rmoveto
          0 0 128 60 0 0 rrcurveto
          0 0 216 -174 0 0 rrcurveto
          0 0 221 174 0 0 rrcurveto
          0 0 120 -57 0 0 rrcurveto
          0 0 -242 -263 0 0 rrcurveto
          0 0 -197 0 0 0 rrcurveto
          0 0 -246 260 0 0 rrcurveto
          274 -1946 rmoveto
          0 0 -381 16 0 0 rrcurveto
          0 0 -85 0 0 0 rrcurveto
          0 0 0 1522 0 0 rrcurveto
          0 0 112 0 0 0 rrcurveto
          0 0 360 16 0 0 rrcurveto
          241 0 181 -65 122 -129 rrcurveto
          119 -125 59 -180 0 -235 rrcurveto
          0 -259 -67 -202 -133 -147 rrcurveto
          -129 -141 -176 -71 -223 0 rrcurveto
          190 1362 rmoveto
          -68 21 -76 10 -85 0 rrcurveto
          -85 0 -68 -5 -50 -11 rrcurveto
          0 0 0 -1193 0 0 rrcurveto
          53 -13 86 -6 120 0 rrcurveto
          228 5 148 113 67 223 rrcurveto
          24 78 12 95 0 111 rrcurveto
          0 111 -11 94 -23 77 rrcurveto
          -23 77 -35 62 -45 48 rrcurveto
          -45 47 -57 35 -67 21 rrcurveto
          endchar
        </CharString>
        <CharString name="Latin Capital Letter D with stroke">
          1472 680 -16 rmoveto
          0 0 -381 16 0 0 rrcurveto
          0 0 -85 0 0 0 rrcurveto
          0 0 0 720 0 0 rrcurveto
          0 0 -128 0 0 0 rrcurveto
          0 0 0 149 0 0 rrcurveto
          0 0 128 0 0 0 rrcurveto
          0 0 0 653 0 0 rrcurveto
          0 0 112 0 0 0 rrcurveto
          0 0 360 16 0 0 rrcurveto
          241 0 181 -65 122 -129 rrcurveto
          119 -125 59 -180 0 -235 rrcurveto
          0 -259 -67 -202 -133 -147 rrcurveto
          -129 -141 -176 -71 -223 0 rrcurveto
          190 1362 rmoveto
          -68 21 -76 10 -85 0 rrcurveto
          -85 0 -68 -5 -50 -11 rrcurveto
          0 0 0 -492 0 0 rrcurveto
          0 0 394 0 0 0 rrcurveto
          0 0 0 -149 0 0 rrcurveto
          0 0 -394 0 0 0 rrcurveto
          0 0 0 -552 0 0 rrcurveto
          53 -13 86 -6 120 0 rrcurveto
          228 5 148 113 67 223 rrcurveto
          24 78 12 95 0 111 rrcurveto
          0 111 -11 94 -23 77 rrcurveto
          -23 77 -35 62 -45 48 rrcurveto
          -45 47 -57 35 -67 21 rrcurveto
          endchar
        </CharString>
        <CharString name="Latin Capital Letter E">
          1217 214 1522 rmoveto
          0 0 876 0 0 0 rrcurveto
          0 0 0 -172 0 0 rrcurveto
          0 0 -653 0 0 0 rrcurveto
          0 0 0 -480 0 0 rrcurveto
          0 0 479 0 0 0 rrcurveto
          0 0 0 -172 0 0 rrcurveto
          0 0 -479 0 0 0 rrcurveto
          0 0 0 -523 0 0 rrcurveto
          0 0 726 0 0 0 rrcurveto
          0 0 0 -175 0 0 rrcurveto
          0 0 -949 0 0 0 rrcurveto
          0 0 0 1522 0 0 rrcurveto
          endchar
        </CharString>
        <CharString name="Latin Capital Letter E with acute">
          1217 572 1665 rmoveto
          1 1 10 8 17 16 rrcurveto
          17 15 21 19 25 23 rrcurveto
          25 22 28 24 29 27 rrcurveto
          29 26 27 25 25 23 rrcurveto
          58 53 30 29 1 4 rrcurveto
          0 0 146 -133 0 0 rrcurveto
          -79 -82 -100 -76 -120 -69 rrcurveto
          -36 -21 -32 -16 -29 -10 rrcurveto
          0 0 -93 92 0 0 rrcurveto
          -358 -143 rmoveto
          0 0 876 0 0 0 rrcurveto
          0 0 0 -172 0 0 rrcurveto
          0 0 -653 0 0 0 rrcurveto
          0 0 0 -480 0 0 rrcurveto
          0 0 479 0 0 0 rrcurveto
          0 0 0 -172 0 0 rrcurveto
          0 0 -479 0 0 0 rrcurveto
          0 0 0 -523 0 0 rrcurveto
          0 0 726 0 0 0 rrcurveto
          0 0 0 -175 0 0 rrcurveto
          0 0 -949 0 0 0 rrcurveto
          0 0 0 1522 0 0 rrcurveto
          endchar
        </CharString>
        <CharString name="Latin Capital Letter E with breve">
          1217 849 1660 rmoveto
          -45 -19 -50 -9 -56 0 rrcurveto
          -57 0 -50 9 -44 19 rrcurveto
          -89 37 -59 60 -27 84 rrcurveto
          -10 31 -5 27 0 22 rrcurveto
          0 22 0 16 1 11 rrcurveto
          0 0 153 0 0 0 rrcurveto
          0 -79 36 -52 73 -23 rrcurveto
          21 -7 27 -4 32 0 rrcurveto
          31 0 27 4 22 7 rrcurveto
          22 7 18 9 15 11 rrcurveto
          14 11 11 12 8 13 rrcurveto
          7 13 6 12 4 12 rrcurveto
          5 19 3 18 0 17 rrcurveto
          0 0 149 0 0 0 rrcurveto
          1 -10 0 -16 0 -22 rrcurveto
          0 -22 -6 -29 -13 -36 rrcurveto
          -13 -37 -21 -33 -30 -31 rrcurveto
          -30 -31 -37 -25 -44 -18 rrcurveto
          -635 -138 rmoveto
          0 0 876 0 0 0 rrcurveto
          0 0 0 -172 0 0 rrcurveto
          0 0 -653 0 0 0 rrcurveto
          0 0 0 -480 0 0 rrcurveto
          0 0 479 0 0 0 rrcurveto
          0 0 0 -172 0 0 rrcurveto
          0 0 -479 0 0 0 rrcurveto
          0 0 0 -523 0 0 rrcurveto
          0 0 726 0 0 0 rrcurveto
          0 0 0 -175 0 0 rrcurveto
          0 0 -949 0 0 0 rrcurveto
          0 0 0 1522 0 0 rrcurveto
          endchar
        </CharString>
        <CharString name="Latin Capital Letter E with caron">
          1217 357 1930 rmoveto
          0 0 128 60 0 0 rrcurveto
          0 0 216 -174 0 0 rrcurveto
          0 0 221 174 0 0 rrcurveto
          0 0 120 -57 0 0 rrcurveto
          0 0 -242 -263 0 0 rrcurveto
          0 0 -197 0 0 0 rrcurveto
          0 0 -246 260 0 0 rrcurveto
          -143 -408 rmoveto
          0 0 876 0 0 0 rrcurveto
          0 0 0 -172 0 0 rrcurveto
          0 0 -653 0 0 0 rrcurveto
          0 0 0 -480 0 0 rrcurveto
          0 0 479 0 0 0 rrcurveto
          0 0 0 -172 0 0 rrcurveto
          0 0 -479 0 0 0 rrcurveto
          0 0 0 -523 0 0 rrcurveto
          0 0 726 0 0 0 rrcurveto
          0 0 0 -175 0 0 rrcurveto
          0 0 -949 0 0 0 rrcurveto
          0 0 0 1522 0 0 rrcurveto
          endchar
        </CharString>
        <CharString name="Latin Capital Letter E with circumflex">
          1217 214 1522 rmoveto
          0 0 876 0 0 0 rrcurveto
          0 0 0 -172 0 0 rrcurveto
          0 0 -653 0 0 0 rrcurveto
          0 0 0 -480 0 0 rrcurveto
          0 0 479 0 0 0 rrcurveto
          0 0 0 -172 0 0 rrcurveto
          0 0 -479 0 0 0 rrcurveto
          0 0 0 -523 0 0 rrcurveto
          0 0 726 0 0 0 rrcurveto
          0 0 0 -175 0 0 rrcurveto
          0 0 -949 0 0 0 rrcurveto
          0 0 0 1522 0 0 rrcurveto
          128 167 rmoveto
          0 0 259 301 0 0 rrcurveto
          0 0 197 0 0 0 rrcurveto
          0 0 262 -298 0 0 rrcurveto
          0 0 -144 -60 0 0 rrcurveto
          0 0 -216 202 0 0 rrcurveto
          0 0 -221 -202 0 0 rrcurveto
          0 0 -137 57 0 0 rrcurveto
          endchar
        </CharString>
        <CharString name="Latin Capital Letter E with diaeresis">
          1217 997 1678 rmoveto
          -19 -7 -20 -4 -19 0 rrcurveto
          -20 0 -18 3 -17 6 rrcurveto
          -17 6 -14 9 -13 11 rrcurveto
          -27 26 -13 28 0 31 rrcurveto
          0 31 5 25 9 19 rrcurveto
          9 19 12 16 15 13 rrcurveto
          32 30 32 15 32 0 rrcurveto
          32 0 25 -3 17 -7 rrcurveto
          17 -7 15 -10 11 -12 rrcurveto
          23 -24 11 -28 0 -31 rrcurveto
          0 -31 -4 -25 -9 -19 rrcurveto
          -9 -19 -11 -16 -15 -13 rrcurveto
          -15 -14 -18 -11 -19 -7 rrcurveto
          -496 0 rmoveto
          -19 -7 -20 -4 -19 0 rrcurveto
          -20 0 -18 3 -17 6 rrcurveto
          -17 6 -14 9 -13 11 rrcurveto
          -27 26 -13 28 0 31 rrcurveto
          0 31 5 25 9 19 rrcurveto
          9 19 12 16 15 13 rrcurveto
          32 30 32 15 32 0 rrcurveto
          32 0 25 -3 17 -7 rrcurveto
          17 -7 15 -10 11 -12 rrcurveto
          23 -24 11 -28 0 -31 rrcurveto
          0 -31 -4 -25 -9 -19 rrcurveto
          -9 -19 -11 -16 -15 -13 rrcurveto
          -15 -14 -18 -11 -19 -7 rrcurveto
          -287 -156 rmoveto
          0 0 876 0 0 0 rrcurveto
          0 0 0 -172 0 0 rrcurveto
          0 0 -653 0 0 0 rrcurveto
          0 0 0 -480 0 0 rrcurveto
          0 0 479 0 0 0 rrcurveto
          0 0 0 -172 0 0 rrcurveto
          0 0 -479 0 0 0 rrcurveto
          0 0 0 -523 0 0 rrcurveto
          0 0 726 0 0 0 rrcurveto
          0 0 0 -175 0 0 rrcurveto
          0 0 -949 0 0 0 rrcurveto
          0 0 0 1522 0 0 rrcurveto
          endchar
        </CharString>
        <CharString name="Latin Capital Letter E with dot above">
          1217 751 1680 rmoveto
          -19 -7 -20 -4 -19 0 rrcurveto
          -20 0 -18 3 -17 6 rrcurveto
          -17 6 -15 9 -13 11 rrcurveto
          -27 25 -14 29 0 31 rrcurveto
          0 31 5 24 9 19 rrcurveto
          9 19 12 16 15 14 rrcurveto
          33 29 32 15 33 0 rrcurveto
          32 0 25 -3 17 -7 rrcurveto
          17 -7 15 -9 11 -12 rrcurveto
          23 -24 11 -28 0 -31 rrcurveto
          0 -31 -4 -25 -9 -19 rrcurveto
          -9 -19 -12 -16 -15 -13 rrcurveto
          -15 -14 -17 -11 -19 -7 rrcurveto
          -537 -158 rmoveto
          0 0 876 0 0 0 rrcurveto
          0 0 0 -172 0 0 rrcurveto
          0 0 -653 0 0 0 rrcurveto
          0 0 0 -480 0 0 rrcurveto
          0 0 479 0 0 0 rrcurveto
          0 0 0 -172 0 0 rrcurveto
          0 0 -479 0 0 0 rrcurveto
          0 0 0 -523 0 0 rrcurveto
          0 0 726 0 0 0 rrcurveto
          0 0 0 -175 0 0 rrcurveto
          0 0 -949 0 0 0 rrcurveto
          0 0 0 1522 0 0 rrcurveto
          endchar
        </CharString>
        <CharString name="Latin Capital Letter E with grave">
          1217 737 1573 rmoveto
          -67 22 -93 57 -121 92 rrcurveto
          -54 41 -39 35 -23 27 rrcurveto
          0 0 146 133 0 0 rrcurveto
          3 -11 50 -47 95 -83 rrcurveto
          95 -84 56 -50 17 -15 rrcurveto
          17 -16 9 -8 1 -1 rrcurveto
          0 0 -92 -92 0 0 rrcurveto
          -523 -51 rmoveto
          0 0 876 0 0 0 rrcurveto
          0 0 0 -172 0 0 rrcurveto
          0 0 -653 0 0 0 rrcurveto
          0 0 0 -480 0 0 rrcurveto
          0 0 479 0 0 0 rrcurveto
          0 0 0 -172 0 0 rrcurveto
          0 0 -479 0 0 0 rrcurveto
          0 0 0 -523 0 0 rrcurveto
          0 0 726 0 0 0 rrcurveto
          0 0 0 -175 0 0 rrcurveto
          0 0 -949 0 0 0 rrcurveto
          0 0 0 1522 0 0 rrcurveto
          endchar
        </CharString>
        <CharString name="Latin Capital Letter E with macron">
          1217 429 1891 rmoveto
          0 0 547 0 0 0 rrcurveto
          0 0 0 -162 0 0 rrcurveto
          0 0 -547 0 0 0 rrcurveto
          0 0 0 162 0 0 rrcurveto
          -215 -369 rmoveto
          0 0 876 0 0 0 rrcurveto
          0 0 0 -172 0 0 rrcurveto
          0 0 -653 0 0 0 rrcurveto
          0 0 0 -480 0 0 rrcurveto
          0 0 479 0 0 0 rrcurveto
          0 0 0 -172 0 0 rrcurveto
          0 0 -479 0 0 0 rrcurveto
          0 0 0 -523 0 0 rrcurveto
          0 0 726 0 0 0 rrcurveto
          0 0 0 -175 0 0 rrcurveto
          0 0 -949 0 0 0 rrcurveto
          0 0 0 1522 0 0 rrcurveto
          endchar
        </CharString>
        <CharString name="Latin Capital Letter E with ogonek">
          1217 1160 -453 rmoveto
          -51 -39 -79 -20 -107 0 rrcurveto
          -115 0 -75 37 -37 74 rrcurveto
          -13 27 -6 30 0 33 rrcurveto
          0 33 7 31 13 31 rrcurveto
          13 30 19 29 24 27 rrcurveto
          49 55 63 44 75 31 rrcurveto
          0 0 -726 0 0 0 rrcurveto
          0 0 0 1522 0 0 rrcurveto
          0 0 876 0 0 0 rrcurveto
          0 0 0 -172 0 0 rrcurveto
          0 0 -653 0 0 0 rrcurveto
          0 0 0 -480 0 0 rrcurveto
          0 0 479 0 0 0 rrcurveto
          0 0 0 -172 0 0 rrcurveto
          0 0 -479 0 0 0 rrcurveto
          0 0 0 -523 0 0 rrcurveto
          0 0 726 0 0 0 rrcurveto
          0 0 0 -175 0 0 rrcurveto
          0 0 -50 0 0 0 rrcurveto
          -100 -57 -68 -63 -35 -70 rrcurveto
          -11 -22 -6 -22 0 -21 rrcurveto
          0 -73 43 -36 85 0 rrcurveto
          43 0 47 10 49 19 rrcurveto
          0 0 0 -118 0 0 rrcurveto
          endchar
        </CharString>
        <CharString name="Latin Capital Letter Eng">
          1584 213 1522 rmoveto
          0 0 205 0 0 0 rrcurveto
          0 0 677 -1014 0 0 rrcurveto
          0 0 111 -207 0 0 rrcurveto
          0 0 -15 240 0 0 rrcurveto
          0 0 0 981 0 0 rrcurveto
          0 0 219 0 0 0 rrcurveto
          0 0 0 -983 0 0 rrcurveto
          0 -93 0 -87 -1 -81 rrcurveto
          -1 -81 -6 -69 -12 -57 rrcurveto
          -12 -57 -16 -48 -21 -39 rrcurveto
          -21 -39 -24 -36 -28 -32 rrcurveto
          -29 -33 -31 -29 -35 -26 rrcurveto
          -35 -26 -35 -23 -37 -19 rrcurveto
          -73 -37 -74 -23 -75 -10 rrcurveto
          0 0 -57 105 0 0 rrcurveto
          92 25 86 47 79 67 rrcurveto
          86 73 43 69 0 65 rrcurveto
          0 0 -628 931 0 0 rrcurveto
          0 0 -123 218 0 0 rrcurveto
          0 0 10 -239 0 0 rrcurveto
          0 0 0 -955 0 0 rrcurveto
          0 0 -217 0 0 0 rrcurveto
          0 0 -2 1522 0 0 rrcurveto
          endchar
        </CharString>
        <CharString name="Latin Capital Letter Eth">
          1472 680 -16 rmoveto
          0 0 -381 16 0 0 rrcurveto
          0 0 -85 0 0 0 rrcurveto
          0 0 0 720 0 0 rrcurveto
          0 0 -128 0 0 0 rrcurveto
          0 0 0 149 0 0 rrcurveto
          0 0 128 0 0 0 rrcurveto
          0 0 0 653 0 0 rrcurveto
          0 0 112 0 0 0 rrcurveto
          0 0 360 16 0 0 rrcurveto
          241 0 181 -65 122 -129 rrcurveto
          119 -125 59 -180 0 -235 rrcurveto
          0 -259 -67 -202 -133 -147 rrcurveto
          -129 -141 -176 -71 -223 0 rrcurveto
          190 1362 rmoveto
          -68 21 -76 10 -85 0 rrcurveto
          -85 0 -68 -5 -50 -11 rrcurveto
          0 0 0 -492 0 0 rrcurveto
          0 0 394 0 0 0 rrcurveto
          0 0 0 -149 0 0 rrcurveto
          0 0 -394 0 0 0 rrcurveto
          0 0 0 -552 0 0 rrcurveto
          53 -13 86 -6 120 0 rrcurveto
          228 5 148 113 67 223 rrcurveto
          24 78 12 95 0 111 rrcurveto
          0 111 -11 94 -23 77 rrcurveto
          -23 77 -35 62 -45 48 rrcurveto
          -45 47 -57 35 -67 21 rrcurveto
          endchar
        </CharString>
        <CharString name="Latin Capital Letter F">
          1083 214 1522 rmoveto
          0 0 874 0 0 0 rrcurveto
          0 0 0 -172 0 0 rrcurveto
          0 0 -650 0 0 0 rrcurveto
          0 0 0 -499 0 0 rrcurveto
          0 0 487 0 0 0 rrcurveto
          0 0 0 -172 0 0 rrcurveto
          0 0 -487 0 0 0 rrcurveto
          0 0 0 -679 0 0 rrcurveto
          0 0 -224 0 0 0 rrcurveto
          0 0 0 1522 0 0 rrcurveto
          endchar
        </CharString>
        <CharString name="Latin Capital Letter G">
          1433 1240 1278 rmoveto
          -109 57 -143 29 -178 0 rrcurveto
          -135 0 -110 -51 -85 -103 rrcurveto
          -87 -106 -43 -143 0 -181 rrcurveto
          0 -185 38 -149 77 -111 rrcurveto
          83 -121 119 -60 154 0 rrcurveto
          94 0 82 11 69 21 rrcurveto
          23 7 18 8 15 10 rrcurveto
          0 0 0 377 0 0 rrcurveto
          0 0 -277 13 0 0 rrcurveto
          0 0 0 160 0 0 rrcurveto
          0 0 492 0 0 0 rrcurveto
          0 0 0 -667 0 0 rrcurveto
          -22 -1 -25 -7 -27 -11 rrcurveto
          -27 -12 -34 -13 -39 -13 rrcurveto
          -104 -35 -111 -18 -117 0 rrcurveto
          -117 0 -103 20 -87 39 rrcurveto
          -87 39 -74 53 -60 69 rrcurveto
          -123 139 -61 183 0 227 rrcurveto
          0 251 68 196 137 141 rrcurveto
          127 131 167 66 206 0 rrcurveto
          98 0 74 -5 49 -9 rrcurveto
          49 -10 39 -8 27 -7 rrcurveto
          27 -7 30 -7 33 -7 rrcurveto
          0 0 -10 -200 0 0 rrcurveto
          endchar
        </CharString>
        <CharString name="Latin Capital Letter G with breve">
          1433 976 1660 rmoveto
          -45 -19 -50 -9 -56 0 rrcurveto
          -57 0 -50 9 -44 19 rrcurveto
          -89 37 -59 60 -27 84 rrcurveto
          -10 31 -5 27 0 22 rrcurveto
          0 22 0 16 1 11 rrcurveto
          0 0 153 0 0 0 rrcurveto
          0 -79 36 -52 73 -23 rrcurveto
          21 -7 27 -4 32 0 rrcurveto
          31 0 27 4 22 7 rrcurveto
          22 7 18 9 15 11 rrcurveto
          14 11 11 12 8 13 rrcurveto
          7 13 6 12 4 12 rrcurveto
          5 19 3 18 0 17 rrcurveto
          0 0 149 0 0 0 rrcurveto
          1 -10 0 -16 0 -22 rrcurveto
          0 -22 -6 -29 -13 -36 rrcurveto
          -13 -37 -21 -33 -30 -31 rrcurveto
          -30 -31 -37 -25 -44 -18 rrcurveto
          264 -382 rmoveto
          -109 57 -143 29 -178 0 rrcurveto
          -135 0 -110 -51 -85 -103 rrcurveto
          -87 -106 -43 -143 0 -181 rrcurveto
          0 -185 38 -149 77 -111 rrcurveto
          83 -121 119 -60 154 0 rrcurveto
          94 0 82 11 69 21 rrcurveto
          23 7 18 8 15 10 rrcurveto
          0 0 0 377 0 0 rrcurveto
          0 0 -277 13 0 0 rrcurveto
          0 0 0 160 0 0 rrcurveto
          0 0 492 0 0 0 rrcurveto
          0 0 0 -667 0 0 rrcurveto
          -22 -1 -25 -7 -27 -11 rrcurveto
          -27 -12 -34 -13 -39 -13 rrcurveto
          -104 -35 -111 -18 -117 0 rrcurveto
          -117 0 -103 20 -87 39 rrcurveto
          -87 39 -74 53 -60 69 rrcurveto
          -123 139 -61 183 0 227 rrcurveto
          0 251 68 196 137 141 rrcurveto
          127 131 167 66 206 0 rrcurveto
          98 0 74 -5 49 -9 rrcurveto
          49 -10 39 -8 27 -7 rrcurveto
          27 -7 30 -7 33 -7 rrcurveto
          0 0 -10 -200 0 0 rrcurveto
          endchar
        </CharString>
        <CharString name="Latin Capital Letter G with cedilla">
          1433 737 -493 rmoveto
          26 31 13 49 0 65 rrcurveto
          0 45 -13 36 -26 27 rrcurveto
          -9 9 -9 5 -10 2 rrcurveto
          0 0 0 50 0 0 rrcurveto
          0 0 158 92 0 0 rrcurveto
          42 -21 29 -45 17 -69 rrcurveto
          6 -23 3 -28 0 -31 rrcurveto
          0 -31 -5 -31 -10 -29 rrcurveto
          -10 -29 -13 -26 -15 -23 rrcurveto
          -29 -45 -33 -31 -37 -16 rrcurveto
          0 0 -75 41 0 0 rrcurveto
          0 0 0 26 0 0 rrcurveto
          503 1771 rmoveto
          -109 57 -143 29 -178 0 rrcurveto
          -135 0 -110 -51 -85 -103 rrcurveto
          -87 -106 -43 -143 0 -181 rrcurveto
          0 -185 38 -149 77 -111 rrcurveto
          83 -121 119 -60 154 0 rrcurveto
          94 0 82 11 69 21 rrcurveto
          23 7 18 8 15 10 rrcurveto
          0 0 0 377 0 0 rrcurveto
          0 0 -277 13 0 0 rrcurveto
          0 0 0 160 0 0 rrcurveto
          0 0 492 0 0 0 rrcurveto
          0 0 0 -667 0 0 rrcurveto
          -22 -1 -25 -7 -27 -11 rrcurveto
          -27 -12 -34 -13 -39 -13 rrcurveto
          -104 -35 -111 -18 -117 0 rrcurveto
          -117 0 -103 20 -87 39 rrcurveto
          -87 39 -74 53 -60 69 rrcurveto
          -123 139 -61 183 0 227 rrcurveto
          0 251 68 196 137 141 rrcurveto
          127 131 167 66 206 0 rrcurveto
          98 0 74 -5 49 -9 rrcurveto
          49 -10 39 -8 27 -7 rrcurveto
          27 -7 30 -7 33 -7 rrcurveto
          0 0 -10 -200 0 0 rrcurveto
          endchar
        </CharString>
        <CharString name="Latin Capital Letter G with circumflex">
          1433 1240 1278 rmoveto
          -109 57 -143 29 -178 0 rrcurveto
          -135 0 -110 -51 -85 -103 rrcurveto
          -87 -106 -43 -143 0 -181 rrcurveto
          0 -185 38 -149 77 -111 rrcurveto
          83 -121 119 -60 154 0 rrcurveto
          94 0 82 11 69 21 rrcurveto
          23 7 18 8 15 10 rrcurveto
          0 0 0 377 0 0 rrcurveto
          0 0 -277 13 0 0 rrcurveto
          0 0 0 160 0 0 rrcurveto
          0 0 492 0 0 0 rrcurveto
          0 0 0 -667 0 0 rrcurveto
          -22 -1 -25 -7 -27 -11 rrcurveto
          -27 -12 -34 -13 -39 -13 rrcurveto
          -104 -35 -111 -18 -117 0 rrcurveto
          -117 0 -103 20 -87 39 rrcurveto
          -87 39 -74 53 -60 69 rrcurveto
          -123 139 -61 183 0 227 rrcurveto
          0 251 68 196 137 141 rrcurveto
          127 131 167 66 206 0 rrcurveto
          98 0 74 -5 49 -9 rrcurveto
          49 -10 39 -8 27 -7 rrcurveto
          27 -7 30 -7 33 -7 rrcurveto
          0 0 -10 -200 0 0 rrcurveto
          -771 411 rmoveto
          0 0 259 301 0 0 rrcurveto
          0 0 197 0 0 0 rrcurveto
          0 0 262 -298 0 0 rrcurveto
          0 0 -144 -60 0 0 rrcurveto
          0 0 -216 202 0 0 rrcurveto
          0 0 -221 -202 0 0 rrcurveto
          0 0 -137 57 0 0 rrcurveto
          endchar
        </CharString>
        <CharString name="Latin Capital Letter G with dot above">
          1433 878 1680 rmoveto
          -19 -7 -20 -4 -19 0 rrcurveto
          -20 0 -18 3 -17 6 rrcurveto
          -17 6 -15 9 -13 11 rrcurveto
          -27 25 -14 29 0 31 rrcurveto
          0 31 5 24 9 19 rrcurveto
          9 19 12 16 15 14 rrcurveto
          33 29 32 15 33 0 rrcurveto
          32 0 25 -3 17 -7 rrcurveto
          17 -7 15 -9 11 -12 rrcurveto
          23 -24 11 -28 0 -31 rrcurveto
          0 -31 -4 -25 -9 -19 rrcurveto
          -9 -19 -12 -16 -15 -13 rrcurveto
          -15 -14 -17 -11 -19 -7 rrcurveto
          362 -402 rmoveto
          -109 57 -143 29 -178 0 rrcurveto
          -135 0 -110 -51 -85 -103 rrcurveto
          -87 -106 -43 -143 0 -181 rrcurveto
          0 -185 38 -149 77 -111 rrcurveto
          83 -121 119 -60 154 0 rrcurveto
          94 0 82 11 69 21 rrcurveto
          23 7 18 8 15 10 rrcurveto
          0 0 0 377 0 0 rrcurveto
          0 0 -277 13 0 0 rrcurveto
          0 0 0 160 0 0 rrcurveto
          0 0 492 0 0 0 rrcurveto
          0 0 0 -667 0 0 rrcurveto
          -22 -1 -25 -7 -27 -11 rrcurveto
          -27 -12 -34 -13 -39 -13 rrcurveto
          -104 -35 -111 -18 -117 0 rrcurveto
          -117 0 -103 20 -87 39 rrcurveto
          -87 39 -74 53 -60 69 rrcurveto
          -123 139 -61 183 0 227 rrcurveto
          0 251 68 196 137 141 rrcurveto
          127 131 167 66 206 0 rrcurveto
          98 0 74 -5 49 -9 rrcurveto
          49 -10 39 -8 27 -7 rrcurveto
          27 -7 30 -7 33 -7 rrcurveto
          0 0 -10 -200 0 0 rrcurveto
          endchar
        </CharString>
        <CharString name="Latin Capital Letter H">
          1552 214 1522 rmoveto
          0 0 223 0 0 0 rrcurveto
          0 0 0 -667 0 0 rrcurveto
          0 0 718 0 0 0 rrcurveto
          0 0 0 667 0 0 rrcurveto
          0 0 223 0 0 0 rrcurveto
          0 0 0 -1522 0 0 rrcurveto
          0 0 -223 0 0 0 rrcurveto
          0 0 0 683 0 0 rrcurveto
          0 0 -718 0 0 0 rrcurveto
          0 0 0 -683 0 0 rrcurveto
          0 0 -223 0 0 0 rrcurveto
          0 0 0 1522 0 0 rrcurveto
          endchar
        </CharString>
        <CharString name="Latin Capital Letter H with circumflex">
          1552 214 1522 rmoveto
          0 0 223 0 0 0 rrcurveto
          0 0 0 -667 0 0 rrcurveto
          0 0 718 0 0 0 rrcurveto
          0 0 0 667 0 0 rrcurveto
          0 0 223 0 0 0 rrcurveto
          0 0 0 -1522 0 0 rrcurveto
          0 0 -223 0 0 0 rrcurveto
          0 0 0 683 0 0 rrcurveto
          0 0 -718 0 0 0 rrcurveto
          0 0 0 -683 0 0 rrcurveto
          0 0 -223 0 0 0 rrcurveto
          0 0 0 1522 0 0 rrcurveto
          224 167 rmoveto
          0 0 259 301 0 0 rrcurveto
          0 0 197 0 0 0 rrcurveto
          0 0 262 -298 0 0 rrcurveto
          0 0 -144 -60 0 0 rrcurveto
          0 0 -216 202 0 0 rrcurveto
          0 0 -221 -202 0 0 rrcurveto
          0 0 -137 57 0 0 rrcurveto
          endchar
        </CharString>
        <CharString name="Latin Capital Letter H with stroke">
          1563 214 1065 rmoveto
          0 0 -186 0 0 0 rrcurveto
          0 0 0 142 0 0 rrcurveto
          0 0 186 0 0 0 rrcurveto
          0 0 0 315 0 0 rrcurveto
          0 0 223 0 0 0 rrcurveto
          0 0 0 -315 0 0 rrcurveto
          0 0 729 0 0 0 rrcurveto
          0 0 0 315 0 0 rrcurveto
          0 0 223 0 0 0 rrcurveto
          0 0 0 -315 0 0 rrcurveto
          0 0 189 0 0 0 rrcurveto
          0 0 0 -142 0 0 rrcurveto
          0 0 -189 0 0 0 rrcurveto
          0 0 0 -1065 0 0 rrcurveto
          0 0 -223 0 0 0 rrcurveto
          0 0 0 674 0 0 rrcurveto
          0 0 -729 0 0 0 rrcurveto
          0 0 0 -674 0 0 rrcurveto
          0 0 -223 0 0 0 rrcurveto
          0 0 0 1065 0 0 rrcurveto
          952 -220 rmoveto
          0 0 0 220 0 0 rrcurveto
          0 0 -729 0 0 0 rrcurveto
          0 0 0 -220 0 0 rrcurveto
          0 0 729 0 0 0 rrcurveto
          endchar
        </CharString>
        <CharString name="Latin Capital Letter I">
          640 227 1522 rmoveto
          0 0 226 0 0 0 rrcurveto
          0 0 0 -1522 0 0 rrcurveto
          0 0 -226 0 0 0 rrcurveto
          0 0 0 1522 0 0 rrcurveto
          endchar
        </CharString>
        <CharString name="Latin Capital Letter I with acute">
          640 227 1522 rmoveto
          0 0 226 0 0 0 rrcurveto
          0 0 0 -1522 0 0 rrcurveto
          0 0 -226 0 0 0 rrcurveto
          0 0 0 1522 0 0 rrcurveto
          -14 143 rmoveto
          1 1 10 8 17 16 rrcurveto
          17 15 21 19 25 23 rrcurveto
          25 22 28 24 29 27 rrcurveto
          29 26 27 25 25 23 rrcurveto
          58 53 30 29 1 4 rrcurveto
          0 0 146 -133 0 0 rrcurveto
          -79 -82 -100 -76 -120 -69 rrcurveto
          -36 -21 -32 -16 -29 -10 rrcurveto
          0 0 -93 92 0 0 rrcurveto
          endchar
        </CharString>
        <CharString name="Latin Capital Letter I with breve">
          640 227 1522 rmoveto
          0 0 226 0 0 0 rrcurveto
          0 0 0 -1522 0 0 rrcurveto
          0 0 -226 0 0 0 rrcurveto
          0 0 0 1522 0 0 rrcurveto
          264 138 rmoveto
          -45 -19 -50 -9 -56 0 rrcurveto
          -57 0 -50 9 -44 19 rrcurveto
          -89 37 -59 60 -27 84 rrcurveto
          -10 31 -5 27 0 22 rrcurveto
          0 22 0 16 1 11 rrcurveto
          0 0 153 0 0 0 rrcurveto
          0 -79 36 -52 73 -23 rrcurveto
          21 -7 27 -4 32 0 rrcurveto
          31 0 27 4 22 7 rrcurveto
          22 7 18 9 15 11 rrcurveto
          14 11 11 12 8 13 rrcurveto
          7 13 6 12 4 12 rrcurveto
          5 19 3 18 0 17 rrcurveto
          0 0 149 0 0 0 rrcurveto
          1 -10 0 -16 0 -22 rrcurveto
          0 -22 -6 -29 -13 -36 rrcurveto
          -13 -37 -21 -33 -30 -31 rrcurveto
          -30 -31 -37 -25 -44 -18 rrcurveto
          endchar
        </CharString>
        <CharString name="Latin Capital Letter I with circumflex">
          640 227 1522 rmoveto
          0 0 226 0 0 0 rrcurveto
          0 0 0 -1522 0 0 rrcurveto
          0 0 -226 0 0 0 rrcurveto
          0 0 0 1522 0 0 rrcurveto
          -243 167 rmoveto
          0 0 259 301 0 0 rrcurveto
          0 0 197 0 0 0 rrcurveto
          0 0 262 -298 0 0 rrcurveto
          0 0 -144 -60 0 0 rrcurveto
          0 0 -216 202 0 0 rrcurveto
          0 0 -221 -202 0 0 rrcurveto
          0 0 -137 57 0 0 rrcurveto
          endchar
        </CharString>
        <CharString name="Latin Capital Letter I with diaeresis">
          640 227 1522 rmoveto
          0 0 226 0 0 0 rrcurveto
          0 0 0 -1522 0 0 rrcurveto
          0 0 -226 0 0 0 rrcurveto
          0 0 0 1522 0 0 rrcurveto
          412 156 rmoveto
          -19 -7 -20 -4 -19 0 rrcurveto
          -20 0 -18 3 -17 6 rrcurveto
          -17 6 -14 9 -13 11 rrcurveto
          -27 26 -13 28 0 31 rrcurveto
          0 31 5 25 9 19 rrcurveto
          9 19 12 16 15 13 rrcurveto
          32 30 32 15 32 0 rrcurveto
          32 0 25 -3 17 -7 rrcurveto
          17 -7 15 -10 11 -12 rrcurveto
          23 -24 11 -28 0 -31 rrcurveto
          0 -31 -4 -25 -9 -19 rrcurveto
          -9 -19 -11 -16 -15 -13 rrcurveto
          -15 -14 -18 -11 -19 -7 rrcurveto
          -496 0 rmoveto
          -19 -7 -20 -4 -19 0 rrcurveto
          -20 0 -18 3 -17 6 rrcurveto
          -17 6 -14 9 -13 11 rrcurveto
          -27 26 -13 28 0 31 rrcurveto
          0 31 5 25 9 19 rrcurveto
          9 19 12 16 15 13 rrcurveto
          32 30 32 15 32 0 rrcurveto
          32 0 25 -3 17 -7 rrcurveto
          17 -7 15 -10 11 -12 rrcurveto
          23 -24 11 -28 0 -31 rrcurveto
          0 -31 -4 -25 -9 -19 rrcurveto
          -9 -19 -11 -16 -15 -13 rrcurveto
          -15 -14 -18 -11 -19 -7 rrcurveto
          endchar
        </CharString>
        <CharString name="Latin Capital Letter I with dot above">
          640 227 1522 rmoveto
          0 0 226 0 0 0 rrcurveto
          0 0 0 -1522 0 0 rrcurveto
          0 0 -226 0 0 0 rrcurveto
          0 0 0 1522 0 0 rrcurveto
          165 158 rmoveto
          -19 -7 -20 -4 -19 0 rrcurveto
          -20 0 -18 3 -17 6 rrcurveto
          -17 6 -15 9 -13 11 rrcurveto
          -27 25 -14 29 0 31 rrcurveto
          0 31 5 24 9 19 rrcurveto
          9 19 12 16 15 14 rrcurveto
          33 29 32 15 33 0 rrcurveto
          32 0 25 -3 17 -7 rrcurveto
          17 -7 15 -9 11 -12 rrcurveto
          23 -24 11 -28 0 -31 rrcurveto
          0 -31 -4 -25 -9 -19 rrcurveto
          -9 -19 -12 -16 -15 -13 rrcurveto
          -15 -14 -17 -11 -19 -7 rrcurveto
          endchar
        </CharString>
        <CharString name="Latin Capital Letter I with grave">
          640 227 1522 rmoveto
          0 0 226 0 0 0 rrcurveto
          0 0 0 -1522 0 0 rrcurveto
          0 0 -226 0 0 0 rrcurveto
          0 0 0 1522 0 0 rrcurveto
          152 51 rmoveto
          -67 22 -93 57 -121 92 rrcurveto
          -54 41 -39 35 -23 27 rrcurveto
          0 0 146 133 0 0 rrcurveto
          3 -11 50 -47 95 -83 rrcurveto
          95 -84 56 -50 17 -15 rrcurveto
          17 -16 9 -8 1 -1 rrcurveto
          0 0 -92 -92 0 0 rrcurveto
          endchar
        </CharString>
        <CharString name="Latin Capital Letter I with macron">
          640 227 1522 rmoveto
          0 0 226 0 0 0 rrcurveto
          0 0 0 -1522 0 0 rrcurveto
          0 0 -226 0 0 0 rrcurveto
          0 0 0 1522 0 0 rrcurveto
          -157 369 rmoveto
          0 0 547 0 0 0 rrcurveto
          0 0 0 -162 0 0 rrcurveto
          0 0 -547 0 0 0 rrcurveto
          0 0 0 162 0 0 rrcurveto
          endchar
        </CharString>
        <CharString name="Latin Capital Letter I with ogonek">
          640 556 -453 rmoveto
          -53 -39 -75 -20 -99 0 rrcurveto
          -77 0 -63 19 -49 39 rrcurveto
          -51 42 -26 56 0 69 rrcurveto
          0 53 20 54 41 56 rrcurveto
          34 47 45 42 57 35 rrcurveto
          0 0 -33 0 0 0 rrcurveto
          0 0 0 1522 0 0 rrcurveto
          0 0 226 0 0 0 rrcurveto
          0 0 0 -1522 0 0 rrcurveto
          0 0 -25 0 0 0 rrcurveto
          -99 -63 -50 -80 0 -97 rrcurveto
          0 -83 46 -41 92 0 rrcurveto
          43 0 47 10 49 19 rrcurveto
          0 0 0 -118 0 0 rrcurveto
          endchar
        </CharString>
        <CharString name="Latin Capital Letter I with tilde">
          640 227 1522 rmoveto
          0 0 226 0 0 0 rrcurveto
          0 0 0 -1522 0 0 rrcurveto
          0 0 -226 0 0 0 rrcurveto
          0 0 0 1522 0 0 rrcurveto
          -41 283 rmoveto
          -57 0 -58 -34 -60 -68 rrcurveto
          0 0 -85 68 0 0 rrcurveto
          23 56 40 47 56 37 rrcurveto
          54 37 51 18 47 0 rrcurveto
          47 0 36 -7 26 -14 rrcurveto
          25 -15 23 -16 21 -17 rrcurveto
          20 -18 19 -16 19 -14 rrcurveto
          19 -15 22 -7 25 0 rrcurveto
          59 0 58 33 58 66 rrcurveto
          0 0 86 -71 0 0 rrcurveto
          -23 -56 -40 -46 -56 -37 rrcurveto
          -55 -37 -54 -18 -53 0 rrcurveto
          -45 0 -36 9 -26 18 rrcurveto
          -27 17 -20 15 -13 13 rrcurveto
          -13 13 -13 11 -13 11 rrcurveto
          -29 25 -29 12 -29 0 rrcurveto
          endchar
        </CharString>
        <CharString name="Latin Capital Letter J">
          713 514 613 rmoveto
          0 0 2 -216 0 0 rrcurveto
          0 -132 -6 -101 -13 -70 rrcurveto
          -13 -71 -22 -60 -32 -49 rrcurveto
          -33 -49 -37 -42 -43 -35 rrcurveto
          -80 -64 -90 -40 -101 -16 rrcurveto
          0 0 -68 117 0 0 rrcurveto
          99 35 78 58 55 83 rrcurveto
          33 51 22 70 9 90 rrcurveto
          9 83 5 146 0 207 rrcurveto
          0 0 0 914 0 0 rrcurveto
          0 0 226 0 0 0 rrcurveto
          0 0 0 -909 0 0 rrcurveto
          endchar
        </CharString>
        <CharString name="Latin Capital Letter J with circumflex">
          713 514 613 rmoveto
          0 0 2 -216 0 0 rrcurveto
          0 -132 -6 -101 -13 -70 rrcurveto
          -13 -71 -22 -60 -32 -49 rrcurveto
          -33 -49 -37 -42 -43 -35 rrcurveto
          -80 -64 -90 -40 -101 -16 rrcurveto
          0 0 -68 117 0 0 rrcurveto
          99 35 78 58 55 83 rrcurveto
          33 51 22 70 9 90 rrcurveto
          9 83 5 146 0 207 rrcurveto
          0 0 0 914 0 0 rrcurveto
          0 0 226 0 0 0 rrcurveto
          0 0 0 -909 0 0 rrcurveto
          -475 1076 rmoveto
          0 0 259 301 0 0 rrcurveto
          0 0 197 0 0 0 rrcurveto
          0 0 262 -298 0 0 rrcurveto
          0 0 -144 -60 0 0 rrcurveto
          0 0 -216 202 0 0 rrcurveto
          0 0 -221 -202 0 0 rrcurveto
          0 0 -137 57 0 0 rrcurveto
          endchar
        </CharString>
        <CharString name="Latin Capital Letter K">
          1371 214 1522 rmoveto
          0 0 223 0 0 0 rrcurveto
          0 0 0 -764 0 0 rrcurveto
          0 0 603 764 0 0 rrcurveto
          0 0 263 0 0 0 rrcurveto
          0 0 -539 -656 0 0 rrcurveto
          28 -47 55 -83 82 -120 rrcurveto
          81 -120 57 -83 31 -47 rrcurveto
          74 -113 53 -85 32 -58 rrcurveto
          0 0 65 -110 0 0 rrcurveto
          0 0 -257 0 0 0 rrcurveto
          -7 10 -7 12 -7 14 rrcurveto
          0 0 -18 37 0 0 rrcurveto
          -41 81 -69 114 -99 147 rrcurveto
          -99 147 -64 95 -28 44 rrcurveto
          0 0 -189 -220 0 0 rrcurveto
          0 0 0 -481 0 0 rrcurveto
          0 0 -223 0 0 0 rrcurveto
          0 0 0 1522 0 0 rrcurveto
          endchar
        </CharString>
        <CharString name="Latin Capital Letter K with cedilla">
          1371 625 -493 rmoveto
          26 31 13 49 0 65 rrcurveto
          0 45 -13 36 -26 27 rrcurveto
          -9 9 -9 5 -10 2 rrcurveto
          0 0 0 50 0 0 rrcurveto
          0 0 158 92 0 0 rrcurveto
          42 -21 29 -45 17 -69 rrcurveto
          6 -23 3 -28 0 -31 rrcurveto
          0 -31 -5 -31 -10 -29 rrcurveto
          -10 -29 -13 -26 -15 -23 rrcurveto
          -29 -45 -33 -31 -37 -16 rrcurveto
          0 0 -75 41 0 0 rrcurveto
          0 0 0 26 0 0 rrcurveto
          -411 2015 rmoveto
          0 0 223 0 0 0 rrcurveto
          0 0 0 -764 0 0 rrcurveto
          0 0 603 764 0 0 rrcurveto
          0 0 263 0 0 0 rrcurveto
          0 0 -539 -656 0 0 rrcurveto
          28 -47 55 -83 82 -120 rrcurveto
          81 -120 57 -83 31 -47 rrcurveto
          74 -113 53 -85 32 -58 rrcurveto
          0 0 65 -110 0 0 rrcurveto
          0 0 -257 0 0 0 rrcurveto
          -7 10 -7 12 -7 14 rrcurveto
          0 0 -18 37 0 0 rrcurveto
          -41 81 -69 114 -99 147 rrcurveto
          -99 147 -64 95 -28 44 rrcurveto
          0 0 -189 -220 0 0 rrcurveto
          0 0 0 -481 0 0 rrcurveto
          0 0 -223 0 0 0 rrcurveto
          0 0 0 1522 0 0 rrcurveto
          endchar
        </CharString>
        <CharString name="Latin Capital Letter L">
          1080 214 1522 rmoveto
          0 0 228 0 0 0 rrcurveto
          0 0 0 -1347 0 0 rrcurveto
          0 0 604 0 0 0 rrcurveto
          0 0 0 -175 0 0 rrcurveto
          0 0 -832 0 0 0 rrcurveto
          0 0 0 1522 0 0 rrcurveto
          endchar
        </CharString>
        <CharString name="Latin Capital Letter L with acute">
          1080 198 1665 rmoveto
          1 1 10 8 17 16 rrcurveto
          17 15 21 19 25 23 rrcurveto
          25 22 28 24 29 27 rrcurveto
          29 26 27 25 25 23 rrcurveto
          58 53 30 29 1 4 rrcurveto
          0 0 146 -133 0 0 rrcurveto
          -79 -82 -100 -76 -120 -69 rrcurveto
          -36 -21 -32 -16 -29 -10 rrcurveto
          0 0 -93 92 0 0 rrcurveto
          16 -143 rmoveto
          0 0 228 0 0 0 rrcurveto
          0 0 0 -1347 0 0 rrcurveto
          0 0 604 0 0 0 rrcurveto
          0 0 0 -175 0 0 rrcurveto
          0 0 -832 0 0 0 rrcurveto
          0 0 0 1522 0 0 rrcurveto
          endchar
        </CharString>
        <CharString name="Latin Capital Letter L with caron">
          1080 214 1522 rmoveto
          0 0 228 0 0 0 rrcurveto
          0 0 0 -1347 0 0 rrcurveto
          0 0 604 0 0 0 rrcurveto
          0 0 0 -175 0 0 rrcurveto
          0 0 -832 0 0 0 rrcurveto
          0 0 0 1522 0 0 rrcurveto
          717 165 rmoveto
          41 -39 21 -80 0 -122 rrcurveto
          0 -125 -27 -114 -53 -101 rrcurveto
          -15 -29 -16 -24 -16 -19 rrcurveto
          0 0 -110 34 0 0 rrcurveto
          0 0 -8 28 0 0 rrcurveto
          5 19 6 18 6 17 rrcurveto
          5 17 5 18 5 21 rrcurveto
          11 48 5 47 0 45 rrcurveto
          0 45 -2 32 -3 21 rrcurveto
          -3 20 -5 19 -5 19 rrcurveto
          -11 36 -12 28 -14 19 rrcurveto
          0 0 14 47 0 0 rrcurveto
          0 0 176 55 0 0 rrcurveto
          endchar
        </CharString>
        <CharString name="Latin Capital Letter L with cedilla">
          1080 536 -493 rmoveto
          26 31 13 49 0 65 rrcurveto
          0 45 -13 36 -26 27 rrcurveto
          -9 9 -9 5 -10 2 rrcurveto
          0 0 0 50 0 0 rrcurveto
          0 0 158 92 0 0 rrcurveto
          42 -21 29 -45 17 -69 rrcurveto
          6 -23 3 -28 0 -31 rrcurveto
          0 -31 -5 -31 -10 -29 rrcurveto
          -10 -29 -13 -26 -15 -23 rrcurveto
          -29 -45 -33 -31 -37 -16 rrcurveto
          0 0 -75 41 0 0 rrcurveto
          0 0 0 26 0 0 rrcurveto
          -322 2015 rmoveto
          0 0 228 0 0 0 rrcurveto
          0 0 0 -1347 0 0 rrcurveto
          0 0 604 0 0 0 rrcurveto
          0 0 0 -175 0 0 rrcurveto
          0 0 -832 0 0 0 rrcurveto
          0 0 0 1522 0 0 rrcurveto
          endchar
        </CharString>
        <CharString name="Latin Capital Letter L with middle dot">
          1357 971 727 rmoveto
          -13 13 -11 17 -9 19 rrcurveto
          -9 19 -4 22 0 23 rrcurveto
          0 23 4 21 9 21 rrcurveto
          9 20 12 18 15 15 rrcurveto
          33 35 33 17 33 0 rrcurveto
          33 0 25 -4 18 -8 rrcurveto
          18 -8 15 -11 12 -14 rrcurveto
          26 -29 13 -32 0 -33 rrcurveto
          0 -34 -4 -27 -8 -21 rrcurveto
          -9 -21 -11 -18 -15 -16 rrcurveto
          -33 -33 -38 -17 -44 0 rrcurveto
          -38 0 -33 14 -29 29 rrcurveto
          -757 795 rmoveto
          0 0 228 0 0 0 rrcurveto
          0 0 0 -1347 0 0 rrcurveto
          0 0 604 0 0 0 rrcurveto
          0 0 0 -175 0 0 rrcurveto
          0 0 -832 0 0 0 rrcurveto
          0 0 0 1522 0 0 rrcurveto
          endchar
        </CharString>
        <CharString name="Latin Capital Letter L with stroke">
          1080 214 613 rmoveto
          0 0 -123 -45 0 0 rrcurveto
          0 0 -53 136 0 0 rrcurveto
          0 0 176 65 0 0 rrcurveto
          0 0 0 753 0 0 rrcurveto
          0 0 228 0 0 0 rrcurveto
          0 0 0 -669 0 0 rrcurveto
          0 0 390 144 0 0 rrcurveto
          0 0 53 -138 0 0 rrcurveto
          0 0 -443 -163 0 0 rrcurveto
          0 0 0 -521 0 0 rrcurveto
          0 0 604 0 0 0 rrcurveto
          0 0 0 -175 0 0 rrcurveto
          0 0 -832 0 0 0 rrcurveto
          0 0 0 613 0 0 rrcurveto
          endchar
        </CharString>
        <CharString name="Latin Capital Letter M">
          1923 308 1522 rmoveto
          0 0 315 0 0 0 rrcurveto
          0 0 282 -869 0 0 rrcurveto
          0 0 79 -323 0 0 rrcurveto
          0 0 75 323 0 0 rrcurveto
          0 0 270 869 0 0 rrcurveto
          0 0 299 0 0 0 rrcurveto
          0 0 182 -1522 0 0 rrcurveto
          0 0 -224 0 0 0 rrcurveto
          0 0 -93 946 0 0 rrcurveto
          0 0 -29 410 0 0 rrcurveto
          0 0 -102 -410 0 0 rrcurveto
          0 0 -318 -961 0 0 rrcurveto
          0 0 -120 0 0 0 rrcurveto
          0 0 -332 961 0 0 rrcurveto
          0 0 -112 409 0 0 rrcurveto
          0 0 -27 -409 0 0 rrcurveto
          0 0 -83 -946 0 0 rrcurveto
          0 0 -216 -1 0 0 rrcurveto
          0 0 154 1523 0 0 rrcurveto
          endchar
        </CharString>
        <CharString name="Latin Capital Letter N">
          1556 213 1522 rmoveto
          0 0 204 0 0 0 rrcurveto
          0 0 651 -1005 0 0 rrcurveto
          0 0 123 -226 0 0 rrcurveto
          0 0 -13 254 0 0 rrcurveto
          0 0 0 977 0 0 rrcurveto
          0 0 205 0 0 0 rrcurveto
          0 0 0 -1522 0 0 rrcurveto
          0 0 -207 0 0 0 rrcurveto
          0 0 -630 967 0 0 rrcurveto
          0 0 -140 249 0 0 rrcurveto
          0 0 12 -264 0 0 rrcurveto
          0 0 0 -952 0 0 rrcurveto
          0 0 -205 0 0 0 rrcurveto
          0 0 0 1522 0 0 rrcurveto
          endchar
        </CharString>
        <CharString name="Latin Capital Letter N with acute">
          1556 684 1665 rmoveto
          1 1 10 8 17 16 rrcurveto
          17 15 21 19 25 23 rrcurveto
          25 22 28 24 29 27 rrcurveto
          29 26 27 25 25 23 rrcurveto
          58 53 30 29 1 4 rrcurveto
          0 0 146 -133 0 0 rrcurveto
          -79 -82 -100 -76 -120 -69 rrcurveto
          -36 -21 -32 -16 -29 -10 rrcurveto
          0 0 -93 92 0 0 rrcurveto
          -471 -143 rmoveto
          0 0 204 0 0 0 rrcurveto
          0 0 651 -1005 0 0 rrcurveto
          0 0 123 -226 0 0 rrcurveto
          0 0 -13 254 0 0 rrcurveto
          0 0 0 977 0 0 rrcurveto
          0 0 205 0 0 0 rrcurveto
          0 0 0 -1522 0 0 rrcurveto
          0 0 -207 0 0 0 rrcurveto
          0 0 -630 967 0 0 rrcurveto
          0 0 -140 249 0 0 rrcurveto
          0 0 12 -264 0 0 rrcurveto
          0 0 0 -952 0 0 rrcurveto
          0 0 -205 0 0 0 rrcurveto
          0 0 0 1522 0 0 rrcurveto
          endchar
        </CharString>
        <CharString name="Latin Capital Letter N with caron">
          1556 469 1930 rmoveto
          0 0 128 60 0 0 rrcurveto
          0 0 216 -174 0 0 rrcurveto
          0 0 221 174 0 0 rrcurveto
          0 0 120 -57 0 0 rrcurveto
          0 0 -242 -263 0 0 rrcurveto
          0 0 -197 0 0 0 rrcurveto
          0 0 -246 260 0 0 rrcurveto
          -256 -408 rmoveto
          0 0 204 0 0 0 rrcurveto
          0 0 651 -1005 0 0 rrcurveto
          0 0 123 -226 0 0 rrcurveto
          0 0 -13 254 0 0 rrcurveto
          0 0 0 977 0 0 rrcurveto
          0 0 205 0 0 0 rrcurveto
          0 0 0 -1522 0 0 rrcurveto
          0 0 -207 0 0 0 rrcurveto
          0 0 -630 967 0 0 rrcurveto
          0 0 -140 249 0 0 rrcurveto
          0 0 12 -264 0 0 rrcurveto
          0 0 0 -952 0 0 rrcurveto
          0 0 -205 0 0 0 rrcurveto
          0 0 0 1522 0 0 rrcurveto
          endchar
        </CharString>
        <CharString name="Latin Capital Letter N with cedilla">
          1556 676 -493 rmoveto
          26 31 13 49 0 65 rrcurveto
          0 45 -13 36 -26 27 rrcurveto
          -9 9 -9 5 -10 2 rrcurveto
          0 0 0 50 0 0 rrcurveto
          0 0 158 92 0 0 rrcurveto
          42 -21 29 -45 17 -69 rrcurveto
          6 -23 3 -28 0 -31 rrcurveto
          0 -31 -5 -31 -10 -29 rrcurveto
          -10 -29 -13 -26 -15 -23 rrcurveto
          -29 -45 -33 -31 -37 -16 rrcurveto
          0 0 -75 41 0 0 rrcurveto
          0 0 0 26 0 0 rrcurveto
          -463 2015 rmoveto
          0 0 204 0 0 0 rrcurveto
          0 0 651 -1005 0 0 rrcurveto
          0 0 123 -226 0 0 rrcurveto
          0 0 -13 254 0 0 rrcurveto
          0 0 0 977 0 0 rrcurveto
          0 0 205 0 0 0 rrcurveto
          0 0 0 -1522 0 0 rrcurveto
          0 0 -207 0 0 0 rrcurveto
          0 0 -630 967 0 0 rrcurveto
          0 0 -140 249 0 0 rrcurveto
          0 0 12 -264 0 0 rrcurveto
          0 0 0 -952 0 0 rrcurveto
          0 0 -205 0 0 0 rrcurveto
          0 0 0 1522 0 0 rrcurveto
          endchar
        </CharString>
        <CharString name="Latin Capital Letter N with tilde">
          1556 656 1805 rmoveto
          -57 0 -58 -34 -60 -68 rrcurveto
          0 0 -85 68 0 0 rrcurveto
          23 56 40 47 56 37 rrcurveto
          54 37 51 18 47 0 rrcurveto
          47 0 36 -7 26 -14 rrcurveto
          25 -15 23 -16 21 -17 rrcurveto
          20 -18 19 -16 19 -14 rrcurveto
          19 -15 22 -7 25 0 rrcurveto
          59 0 58 33 58 66 rrcurveto
          0 0 86 -71 0 0 rrcurveto
          -23 -56 -40 -46 -56 -37 rrcurveto
          -55 -37 -54 -18 -53 0 rrcurveto
          -45 0 -36 9 -26 18 rrcurveto
          -27 17 -20 15 -13 13 rrcurveto
          -13 13 -13 11 -13 11 rrcurveto
          -29 25 -29 12 -29 0 rrcurveto
          -443 -283 rmoveto
          0 0 204 0 0 0 rrcurveto
          0 0 651 -1005 0 0 rrcurveto
          0 0 123 -226 0 0 rrcurveto
          0 0 -13 254 0 0 rrcurveto
          0 0 0 977 0 0 rrcurveto
          0 0 205 0 0 0 rrcurveto
          0 0 0 -1522 0 0 rrcurveto
          0 0 -207 0 0 0 rrcurveto
          0 0 -630 967 0 0 rrcurveto
          0 0 -140 249 0 0 rrcurveto
          0 0 12 -264 0 0 rrcurveto
          0 0 0 -952 0 0 rrcurveto
          0 0 -205 0 0 0 rrcurveto
          0 0 0 1522 0 0 rrcurveto
          endchar
        </CharString>
        <CharString name="Latin Capital Letter O">
          1569 120 751 rmoveto
          0 133 20 117 39 99 rrcurveto
          39 99 51 82 64 64 rrcurveto
          129 129 165 64 201 0 rrcurveto
          203 0 161 -71 121 -141 rrcurveto
          117 -137 59 -181 0 -225 rrcurveto
          0 -255 -66 -197 -131 -139 rrcurveto
          -132 -139 -168 -69 -205 0 rrcurveto
          -205 0 -162 72 -120 143 rrcurveto
          -120 143 -60 184 0 225 rrcurveto
          699 -596 rmoveto
          60 0 58 13 57 27 rrcurveto
          56 27 48 39 40 52 rrcurveto
          83 109 42 153 0 197 rrcurveto
          0 169 -37 140 -74 109 rrcurveto
          -81 119 -111 59 -139 0 rrcurveto
          -137 0 -112 -49 -86 -99 rrcurveto
          -94 -109 -47 -154 0 -199 rrcurveto
          0 -169 39 -140 77 -111 rrcurveto
          85 -122 119 -61 154 0 rrcurveto
          endchar
        </CharString>
        <CharString name="Latin Capital Letter O with acute">
          1569 700 1665 rmoveto
          1 1 10 8 17 16 rrcurveto
          17 15 21 19 25 23 rrcurveto
          25 22 28 24 29 27 rrcurveto
          29 26 27 25 25 23 rrcurveto
          58 53 30 29 1 4 rrcurveto
          0 0 146 -133 0 0 rrcurveto
          -79 -82 -100 -76 -120 -69 rrcurveto
          -36 -21 -32 -16 -29 -10 rrcurveto
          0 0 -93 92 0 0 rrcurveto
          -580 -914 rmoveto
          0 133 20 117 39 99 rrcurveto
          39 99 51 82 64 64 rrcurveto
          129 129 165 64 201 0 rrcurveto
          203 0 161 -71 121 -141 rrcurveto
          117 -137 59 -181 0 -225 rrcurveto
          0 -255 -66 -197 -131 -139 rrcurveto
          -132 -139 -168 -69 -205 0 rrcurveto
          -205 0 -162 72 -120 143 rrcurveto
          -120 143 -60 184 0 225 rrcurveto
          699 -596 rmoveto
          60 0 58 13 57 27 rrcurveto
          56 27 48 39 40 52 rrcurveto
          83 109 42 153 0 197 rrcurveto
          0 169 -37 140 -74 109 rrcurveto
          -81 119 -111 59 -139 0 rrcurveto
          -137 0 -112 -49 -86 -99 rrcurveto
          -94 -109 -47 -154 0 -199 rrcurveto
          0 -169 39 -140 77 -111 rrcurveto
          85 -122 119 -61 154 0 rrcurveto
          endchar
        </CharString>
        <CharString name="Latin Capital Letter O with breve">
          1569 977 1660 rmoveto
          -45 -19 -50 -9 -56 0 rrcurveto
          -57 0 -50 9 -44 19 rrcurveto
          -89 37 -59 60 -27 84 rrcurveto
          -10 31 -5 27 0 22 rrcurveto
          0 22 0 16 1 11 rrcurveto
          0 0 153 0 0 0 rrcurveto
          0 -79 36 -52 73 -23 rrcurveto
          21 -7 27 -4 32 0 rrcurveto
          31 0 27 4 22 7 rrcurveto
          22 7 18 9 15 11 rrcurveto
          14 11 11 12 8 13 rrcurveto
          7 13 6 12 4 12 rrcurveto
          5 19 3 18 0 17 rrcurveto
          0 0 149 0 0 0 rrcurveto
          1 -10 0 -16 0 -22 rrcurveto
          0 -22 -6 -29 -13 -36 rrcurveto
          -13 -37 -21 -33 -30 -31 rrcurveto
          -30 -31 -37 -25 -44 -18 rrcurveto
          -857 -909 rmoveto
          0 133 20 117 39 99 rrcurveto
          39 99 51 82 64 64 rrcurveto
          129 129 165 64 201 0 rrcurveto
          203 0 161 -71 121 -141 rrcurveto
          117 -137 59 -181 0 -225 rrcurveto
          0 -255 -66 -197 -131 -139 rrcurveto
          -132 -139 -168 -69 -205 0 rrcurveto
          -205 0 -162 72 -120 143 rrcurveto
          -120 143 -60 184 0 225 rrcurveto
          699 -596 rmoveto
          60 0 58 13 57 27 rrcurveto
          56 27 48 39 40 52 rrcurveto
          83 109 42 153 0 197 rrcurveto
          0 169 -37 140 -74 109 rrcurveto
          -81 119 -111 59 -139 0 rrcurveto
          -137 0 -112 -49 -86 -99 rrcurveto
          -94 -109 -47 -154 0 -199 rrcurveto
          0 -169 39 -140 77 -111 rrcurveto
          85 -122 119 -61 154 0 rrcurveto
          endchar
        </CharString>
        <CharString name="Latin Capital Letter O with circumflex">
          1569 120 751 rmoveto
          0 133 20 117 39 99 rrcurveto
          39 99 51 82 64 64 rrcurveto
          129 129 165 64 201 0 rrcurveto
          203 0 161 -71 121 -141 rrcurveto
          117 -137 59 -181 0 -225 rrcurveto
          0 -255 -66 -197 -131 -139 rrcurveto
          -132 -139 -168 -69 -205 0 rrcurveto
          -205 0 -162 72 -120 143 rrcurveto
          -120 143 -60 184 0 225 rrcurveto
          699 -596 rmoveto
          60 0 58 13 57 27 rrcurveto
          56 27 48 39 40 52 rrcurveto
          83 109 42 153 0 197 rrcurveto
          0 169 -37 140 -74 109 rrcurveto
          -81 119 -111 59 -139 0 rrcurveto
          -137 0 -112 -49 -86 -99 rrcurveto
          -94 -109 -47 -154 0 -199 rrcurveto
          0 -169 39 -140 77 -111 rrcurveto
          85 -122 119 -61 154 0 rrcurveto
          -349 1534 rmoveto
          0 0 259 301 0 0 rrcurveto
          0 0 197 0 0 0 rrcurveto
          0 0 262 -298 0 0 rrcurveto
          0 0 -144 -60 0 0 rrcurveto
          0 0 -216 202 0 0 rrcurveto
          0 0 -221 -202 0 0 rrcurveto
          0 0 -137 57 0 0 rrcurveto
          endchar
        </CharString>
        <CharString name="Latin Capital Letter O with diaeresis">
          1569 1125 1678 rmoveto
          -19 -7 -20 -4 -19 0 rrcurveto
          -20 0 -18 3 -17 6 rrcurveto
          -17 6 -14 9 -13 11 rrcurveto
          -27 26 -13 28 0 31 rrcurveto
          0 31 5 25 9 19 rrcurveto
          9 19 12 16 15 13 rrcurveto
          32 30 32 15 32 0 rrcurveto
          32 0 25 -3 17 -7 rrcurveto
          17 -7 15 -10 11 -12 rrcurveto
          23 -24 11 -28 0 -31 rrcurveto
          0 -31 -4 -25 -9 -19 rrcurveto
          -9 -19 -11 -16 -15 -13 rrcurveto
          -15 -14 -18 -11 -19 -7 rrcurveto
          -496 0 rmoveto
          -19 -7 -20 -4 -19 0 rrcurveto
          -20 0 -18 3 -17 6 rrcurveto
          -17 6 -14 9 -13 11 rrcurveto
          -27 26 -13 28 0 31 rrcurveto
          0 31 5 25 9 19 rrcurveto
          9 19 12 16 15 13 rrcurveto
          32 30 32 15 32 0 rrcurveto
          32 0 25 -3 17 -7 rrcurveto
          17 -7 15 -10 11 -12 rrcurveto
          23 -24 11 -28 0 -31 rrcurveto
          0 -31 -4 -25 -9 -19 rrcurveto
          -9 -19 -11 -16 -15 -13 rrcurveto
          -15 -14 -18 -11 -19 -7 rrcurveto
          -509 -927 rmoveto
          0 133 20 117 39 99 rrcurveto
          39 99 51 82 64 64 rrcurveto
          129 129 165 64 201 0 rrcurveto
          203 0 161 -71 121 -141 rrcurveto
          117 -137 59 -181 0 -225 rrcurveto
          0 -255 -66 -197 -131 -139 rrcurveto
          -132 -139 -168 -69 -205 0 rrcurveto
          -205 0 -162 72 -120 143 rrcurveto
          -120 143 -60 184 0 225 rrcurveto
          699 -596 rmoveto
          60 0 58 13 57 27 rrcurveto
          56 27 48 39 40 52 rrcurveto
          83 109 42 153 0 197 rrcurveto
          0 169 -37 140 -74 109 rrcurveto
          -81 119 -111 59 -139 0 rrcurveto
          -137 0 -112 -49 -86 -99 rrcurveto
          -94 -109 -47 -154 0 -199 rrcurveto
          0 -169 39 -140 77 -111 rrcurveto
          85 -122 119 -61 154 0 rrcurveto
          endchar
        </CharString>
        <CharString name="Latin Capital Letter O with double acute">
          1569 120 751 rmoveto
          0 133 20 117 39 99 rrcurveto
          39 99 51 82 64 64 rrcurveto
          129 129 165 64 201 0 rrcurveto
          203 0 161 -71 121 -141 rrcurveto
          117 -137 59 -181 0 -225 rrcurveto
          0 -255 -66 -197 -131 -139 rrcurveto
          -132 -139 -168 -69 -205 0 rrcurveto
          -205 0 -162 72 -120 143 rrcurveto
          -120 143 -60 184 0 225 rrcurveto
          699 -596 rmoveto
          60 0 58 13 57 27 rrcurveto
          56 27 48 39 40 52 rrcurveto
          83 109 42 153 0 197 rrcurveto
          0 169 -37 140 -74 109 rrcurveto
          -81 119 -111 59 -139 0 rrcurveto
          -137 0 -112 -49 -86 -99 rrcurveto
          -94 -109 -47 -154 0 -199 rrcurveto
          0 -169 39 -140 77 -111 rrcurveto
          85 -122 119 -61 154 0 rrcurveto
          -350 1555 rmoveto
          3 3 14 19 25 34 rrcurveto
          24 34 21 29 17 24 rrcurveto
          17 24 16 22 15 21 rrcurveto
          35 49 19 27 1 4 rrcurveto
          0 0 172 -87 0 0 rrcurveto
          -99 -138 -85 -91 -71 -43 rrcurveto
          0 0 -124 69 0 0 rrcurveto
          468 0 rmoveto
          5 5 15 19 25 32 rrcurveto
          25 32 21 28 18 23 rrcurveto
          18 23 17 22 16 21 rrcurveto
          37 49 18 25 1 3 rrcurveto
          0 0 163 -88 0 0 rrcurveto
          -93 -131 -84 -87 -77 -45 rrcurveto
          0 0 -125 69 0 0 rrcurveto
          endchar
        </CharString>
        <CharString name="Latin Capital Letter O with grave">
          1569 865 1573 rmoveto
          -67 22 -93 57 -121 92 rrcurveto
          -54 41 -39 35 -23 27 rrcurveto
          0 0 146 133 0 0 rrcurveto
          3 -11 50 -47 95 -83 rrcurveto
          95 -84 56 -50 17 -15 rrcurveto
          17 -16 9 -8 1 -1 rrcurveto
          0 0 -92 -92 0 0 rrcurveto
          -745 -822 rmoveto
          0 133 20 117 39 99 rrcurveto
          39 99 51 82 64 64 rrcurveto
          129 129 165 64 201 0 rrcurveto
          203 0 161 -71 121 -141 rrcurveto
          117 -137 59 -181 0 -225 rrcurveto
          0 -255 -66 -197 -131 -139 rrcurveto
          -132 -139 -168 -69 -205 0 rrcurveto
          -205 0 -162 72 -120 143 rrcurveto
          -120 143 -60 184 0 225 rrcurveto
          699 -596 rmoveto
          60 0 58 13 57 27 rrcurveto
          56 27 48 39 40 52 rrcurveto
          83 109 42 153 0 197 rrcurveto
          0 169 -37 140 -74 109 rrcurveto
          -81 119 -111 59 -139 0 rrcurveto
          -137 0 -112 -49 -86 -99 rrcurveto
          -94 -109 -47 -154 0 -199 rrcurveto
          0 -169 39 -140 77 -111 rrcurveto
          85 -122 119 -61 154 0 rrcurveto
          endchar
        </CharString>
        <CharString name="Latin Capital Letter O with macron">
          1569 557 1891 rmoveto
          0 0 547 0 0 0 rrcurveto
          0 0 0 -162 0 0 rrcurveto
          0 0 -547 0 0 0 rrcurveto
          0 0 0 162 0 0 rrcurveto
          -437 -1140 rmoveto
          0 133 20 117 39 99 rrcurveto
          39 99 51 82 64 64 rrcurveto
          129 129 165 64 201 0 rrcurveto
          203 0 161 -71 121 -141 rrcurveto
          117 -137 59 -181 0 -225 rrcurveto
          0 -255 -66 -197 -131 -139 rrcurveto
          -132 -139 -168 -69 -205 0 rrcurveto
          -205 0 -162 72 -120 143 rrcurveto
          -120 143 -60 184 0 225 rrcurveto
          699 -596 rmoveto
          60 0 58 13 57 27 rrcurveto
          56 27 48 39 40 52 rrcurveto
          83 109 42 153 0 197 rrcurveto
          0 169 -37 140 -74 109 rrcurveto
          -81 119 -111 59 -139 0 rrcurveto
          -137 0 -112 -49 -86 -99 rrcurveto
          -94 -109 -47 -154 0 -199 rrcurveto
          0 -169 39 -140 77 -111 rrcurveto
          85 -122 119 -61 154 0 rrcurveto
          endchar
        </CharString>
        <CharString name="Latin Capital Letter O with stroke">
          1569 556 1490 rmoveto
          85 32 82 16 79 0 rrcurveto
          79 0 68 -7 56 -15 rrcurveto
          0 0 80 222 0 0 rrcurveto
          0 0 125 -36 0 0 rrcurveto
          0 0 -83 -231 0 0 rrcurveto
          178 -89 113 -157 49 -225 rrcurveto
          15 -68 7 -55 0 -43 rrcurveto
          0 -168 -18 -134 -37 -99 rrcurveto
          -37 -100 -50 -82 -61 -65 rrcurveto
          -128 -135 -168 -67 -207 0 rrcurveto
          -66 0 -61 8 -56 16 rrcurveto
          0 0 -75 -208 0 0 rrcurveto
          0 0 -125 36 0 0 rrcurveto
          0 0 79 219 0 0 rrcurveto
          -177 93 -113 161 -49 229 rrcurveto
          -13 65 -7 53 0 41 rrcurveto
          0 169 20 135 39 99 rrcurveto
          39 99 51 82 64 64 rrcurveto
          64 64 74 48 85 33 rrcurveto
          389 -141 rmoveto
          -41 13 -46 6 -53 0 rrcurveto
          -53 0 -56 -12 -57 -24 rrcurveto
          -58 -25 -51 -37 -44 -50 rrcurveto
          -94 -109 -47 -154 0 -199 rrcurveto
          0 -166 38 -139 76 -112 rrcurveto
          25 -37 30 -33 33 -27 rrcurveto
          0 0 398 1105 0 0 rrcurveto
          -284 -1170 rmoveto
          44 -16 52 -8 61 0 rrcurveto
          61 0 58 13 57 27 rrcurveto
          56 27 48 39 40 52 rrcurveto
          83 109 42 153 0 197 rrcurveto
          0 170 -38 141 -76 111 rrcurveto
          -25 37 -30 31 -33 26 rrcurveto
          0 0 -400 -1109 0 0 rrcurveto
          endchar
        </CharString>
        <CharString name="Latin Capital Letter O with tilde">
          1569 672 1805 rmoveto
          -57 0 -58 -34 -60 -68 rrcurveto
          0 0 -85 68 0 0 rrcurveto
          23 56 40 47 56 37 rrcurveto
          54 37 51 18 47 0 rrcurveto
          47 0 36 -7 26 -14 rrcurveto
          25 -15 23 -16 21 -17 rrcurveto
          20 -18 19 -16 19 -14 rrcurveto
          19 -15 22 -7 25 0 rrcurveto
          59 0 58 33 58 66 rrcurveto
          0 0 86 -71 0 0 rrcurveto
          -23 -56 -40 -46 -56 -37 rrcurveto
          -55 -37 -54 -18 -53 0 rrcurveto
          -45 0 -36 9 -26 18 rrcurveto
          -27 17 -20 15 -13 13 rrcurveto
          -13 13 -13 11 -13 11 rrcurveto
          -29 25 -29 12 -29 0 rrcurveto
          -552 -1054 rmoveto
          0 133 20 117 39 99 rrcurveto
          39 99 51 82 64 64 rrcurveto
          129 129 165 64 201 0 rrcurveto
          203 0 161 -71 121 -141 rrcurveto
          117 -137 59 -181 0 -225 rrcurveto
          0 -255 -66 -197 -131 -139 rrcurveto
          -132 -139 -168 -69 -205 0 rrcurveto
          -205 0 -162 72 -120 143 rrcurveto
          -120 143 -60 184 0 225 rrcurveto
          699 -596 rmoveto
          60 0 58 13 57 27 rrcurveto
          56 27 48 39 40 52 rrcurveto
          83 109 42 153 0 197 rrcurveto
          0 169 -37 140 -74 109 rrcurveto
          -81 119 -111 59 -139 0 rrcurveto
          -137 0 -112 -49 -86 -99 rrcurveto
          -94 -109 -47 -154 0 -199 rrcurveto
          0 -169 39 -140 77 -111 rrcurveto
          85 -122 119 -61 154 0 rrcurveto
          endchar
        </CharString>
        <CharString name="Latin Capital Letter P">
          1270 885 557 rmoveto
          -73 -23 -68 -12 -65 0 rrcurveto
          -65 0 -80 2 -97 3 rrcurveto
          0 0 0 -527 0 0 rrcurveto
          0 0 -223 0 0 0 rrcurveto
          0 0 0 1522 0 0 rrcurveto
          0 0 105 0 0 0 rrcurveto
          58 0 59 3 59 5 rrcurveto
          59 5 67 3 75 0 rrcurveto
          75 0 70 -9 66 -19 rrcurveto
          65 -19 56 -30 46 -40 rrcurveto
          95 -83 47 -126 0 -167 rrcurveto
          0 -167 -49 -129 -99 -90 rrcurveto
          -49 -45 -61 -34 -73 -23 rrcurveto
          16 745 rmoveto
          -62 51 -80 25 -99 0 rrcurveto
          -99 0 -75 -6 -49 -13 rrcurveto
          0 0 0 -663 0 0 rrcurveto
          49 -7 55 -3 61 0 rrcurveto
          61 0 54 5 45 9 rrcurveto
          45 9 39 17 34 26 rrcurveto
          76 57 38 94 0 129 rrcurveto
          0 129 -31 90 -62 51 rrcurveto
          endchar
        </CharString>
        <CharString name="Latin Capital Letter Q">
          1569 1347 -113 rmoveto
          87 0 61 6 36 13 rrcurveto
          0 0 0 -160 0 0 rrcurveto
          -40 -27 -54 -13 -67 0 rrcurveto
          -67 0 -59 4 -49 8 rrcurveto
          -49 8 -48 14 -47 21 rrcurveto
          -97 43 -89 75 -79 105 rrcurveto
          0 0 -5 0 0 0 rrcurveto
          -202 0 -162 74 -123 148 rrcurveto
          -116 140 -58 182 0 223 rrcurveto
          0 133 20 117 39 99 rrcurveto
          39 99 51 82 64 64 rrcurveto
          129 129 165 64 201 0 rrcurveto
          203 0 161 -71 121 -141 rrcurveto
          117 -137 59 -181 0 -225 rrcurveto
          0 -210 -47 -174 -94 -137 rrcurveto
          -85 -123 -116 -83 -148 -43 rrcurveto
          81 -84 116 -42 151 0 rrcurveto
          -528 268 rmoveto
          60 0 58 13 57 27 rrcurveto
          56 27 48 39 40 52 rrcurveto
          83 109 42 153 0 197 rrcurveto
          0 169 -37 140 -74 109 rrcurveto
          -81 119 -111 59 -139 0 rrcurveto
          -137 0 -112 -49 -86 -99 rrcurveto
          -94 -109 -47 -154 0 -199 rrcurveto
          0 -169 39 -140 77 -111 rrcurveto
          85 -122 119 -61 154 0 rrcurveto
          endchar
        </CharString>
        <CharString name="Latin Capital Letter R">
          1367 214 1522 rmoveto
          0 0 97 0 0 0 rrcurveto
          50 0 59 3 67 5 rrcurveto
          67 5 72 3 76 0 rrcurveto
          75 0 70 -8 64 -16 rrcurveto
          63 -16 55 -25 45 -35 rrcurveto
          95 -73 48 -109 0 -146 rrcurveto
          0 -112 -24 -91 -49 -69 rrcurveto
          -49 -70 -68 -50 -85 -30 rrcurveto
          57 -39 58 -85 61 -132 rrcurveto
          17 -37 17 -36 16 -37 rrcurveto
          53 -124 53 -107 52 -91 rrcurveto
          0 0 -253 0 0 0 rrcurveto
          -9 13 -10 18 -10 23 rrcurveto
          -10 23 -10 22 -11 23 rrcurveto
          -11 23 -12 29 -13 36 rrcurveto
          -13 36 -14 37 -15 37 rrcurveto
          -15 37 -15 36 -16 36 rrcurveto
          -16 35 -17 33 -19 30 rrcurveto
          -41 66 -45 41 -49 16 rrcurveto
          -30 -1 -36 -1 -42 0 rrcurveto
          0 0 -157 0 0 0 rrcurveto
          0 0 0 -648 0 0 rrcurveto
          0 0 -223 0 0 0 rrcurveto
          0 0 0 1522 0 0 rrcurveto
          425 -148 rmoveto
          -77 0 -68 -6 -57 -12 rrcurveto
          0 0 0 -550 0 0 rrcurveto
          32 -4 44 -2 55 0 rrcurveto
          0 0 104 0 0 0 rrcurveto
          211 0 106 100 0 199 rrcurveto
          0 97 -24 69 -49 43 rrcurveto
          -51 44 -93 22 -133 0 rrcurveto
          endchar
        </CharString>
        <CharString name="Latin Capital Letter R with acute">
          1367 214 1522 rmoveto
          0 0 97 0 0 0 rrcurveto
          50 0 59 3 67 5 rrcurveto
          67 5 72 3 76 0 rrcurveto
          75 0 70 -8 64 -16 rrcurveto
          63 -16 55 -25 45 -35 rrcurveto
          95 -73 48 -109 0 -146 rrcurveto
          0 -112 -24 -91 -49 -69 rrcurveto
          -49 -70 -68 -50 -85 -30 rrcurveto
          57 -39 58 -85 61 -132 rrcurveto
          17 -37 17 -36 16 -37 rrcurveto
          53 -124 53 -107 52 -91 rrcurveto
          0 0 -253 0 0 0 rrcurveto
          -9 13 -10 18 -10 23 rrcurveto
          -10 23 -10 22 -11 23 rrcurveto
          -11 23 -12 29 -13 36 rrcurveto
          -13 36 -14 37 -15 37 rrcurveto
          -15 37 -15 36 -16 36 rrcurveto
          -16 35 -17 33 -19 30 rrcurveto
          -41 66 -45 41 -49 16 rrcurveto
          -30 -1 -36 -1 -42 0 rrcurveto
          0 0 -157 0 0 0 rrcurveto
          0 0 0 -648 0 0 rrcurveto
          0 0 -223 0 0 0 rrcurveto
          0 0 0 1522 0 0 rrcurveto
          425 -148 rmoveto
          -77 0 -68 -6 -57 -12 rrcurveto
          0 0 0 -550 0 0 rrcurveto
          32 -4 44 -2 55 0 rrcurveto
          0 0 104 0 0 0 rrcurveto
          211 0 106 100 0 199 rrcurveto
          0 97 -24 69 -49 43 rrcurveto
          -51 44 -93 22 -133 0 rrcurveto
          -37 291 rmoveto
          1 1 10 8 17 16 rrcurveto
          17 15 21 19 25 23 rrcurveto
          25 22 28 24 29 27 rrcurveto
          29 26 27 25 25 23 rrcurveto
          58 53 30 29 1 4 rrcurveto
          0 0 146 -133 0 0 rrcurveto
          -79 -82 -100 -76 -120 -69 rrcurveto
          -36 -21 -32 -16 -29 -10 rrcurveto
          0 0 -93 92 0 0 rrcurveto
          endchar
        </CharString>
        <CharString name="Latin Capital Letter R with caron">
          1367 387 1930 rmoveto
          0 0 128 60 0 0 rrcurveto
          0 0 216 -174 0 0 rrcurveto
          0 0 221 174 0 0 rrcurveto
          0 0 120 -57 0 0 rrcurveto
          0 0 -242 -263 0 0 rrcurveto
          0 0 -197 0 0 0 rrcurveto
          0 0 -246 260 0 0 rrcurveto
          -173 -408 rmoveto
          0 0 97 0 0 0 rrcurveto
          50 0 59 3 67 5 rrcurveto
          67 5 72 3 76 0 rrcurveto
          75 0 70 -8 64 -16 rrcurveto
          63 -16 55 -25 45 -35 rrcurveto
          95 -73 48 -109 0 -146 rrcurveto
          0 -112 -24 -91 -49 -69 rrcurveto
          -49 -70 -68 -50 -85 -30 rrcurveto
          57 -39 58 -85 61 -132 rrcurveto
          17 -37 17 -36 16 -37 rrcurveto
          53 -124 53 -107 52 -91 rrcurveto
          0 0 -253 0 0 0 rrcurveto
          -9 13 -10 18 -10 23 rrcurveto
          -10 23 -10 22 -11 23 rrcurveto
          -11 23 -12 29 -13 36 rrcurveto
          -13 36 -14 37 -15 37 rrcurveto
          -15 37 -15 36 -16 36 rrcurveto
          -16 35 -17 33 -19 30 rrcurveto
          -41 66 -45 41 -49 16 rrcurveto
          -30 -1 -36 -1 -42 0 rrcurveto
          0 0 -157 0 0 0 rrcurveto
          0 0 0 -648 0 0 rrcurveto
          0 0 -223 0 0 0 rrcurveto
          0 0 0 1522 0 0 rrcurveto
          425 -148 rmoveto
          -77 0 -68 -6 -57 -12 rrcurveto
          0 0 0 -550 0 0 rrcurveto
          32 -4 44 -2 55 0 rrcurveto
          0 0 104 0 0 0 rrcurveto
          211 0 106 100 0 199 rrcurveto
          0 97 -24 69 -49 43 rrcurveto
          -51 44 -93 22 -133 0 rrcurveto
          endchar
        </CharString>
        <CharString name="Latin Capital Letter R with cedilla">
          1367 622 -493 rmoveto
          26 31 13 49 0 65 rrcurveto
          0 45 -13 36 -26 27 rrcurveto
          -9 9 -9 5 -10 2 rrcurveto
          0 0 0 50 0 0 rrcurveto
          0 0 158 92 0 0 rrcurveto
          42 -21 29 -45 17 -69 rrcurveto
          6 -23 3 -28 0 -31 rrcurveto
          0 -31 -5 -31 -10 -29 rrcurveto
          -10 -29 -13 -26 -15 -23 rrcurveto
          -29 -45 -33 -31 -37 -16 rrcurveto
          0 0 -75 41 0 0 rrcurveto
          0 0 0 26 0 0 rrcurveto
          -408 2015 rmoveto
          0 0 97 0 0 0 rrcurveto
          50 0 59 3 67 5 rrcurveto
          67 5 72 3 76 0 rrcurveto
          75 0 70 -8 64 -16 rrcurveto
          63 -16 55 -25 45 -35 rrcurveto
          95 -73 48 -109 0 -146 rrcurveto
          0 -112 -24 -91 -49 -69 rrcurveto
          -49 -70 -68 -50 -85 -30 rrcurveto
          57 -39 58 -85 61 -132 rrcurveto
          17 -37 17 -36 16 -37 rrcurveto
          53 -124 53 -107 52 -91 rrcurveto
          0 0 -253 0 0 0 rrcurveto
          -9 13 -10 18 -10 23 rrcurveto
          -10 23 -10 22 -11 23 rrcurveto
          -11 23 -12 29 -13 36 rrcurveto
          -13 36 -14 37 -15 37 rrcurveto
          -15 37 -15 36 -16 36 rrcurveto
          -16 35 -17 33 -19 30 rrcurveto
          -41 66 -45 41 -49 16 rrcurveto
          -30 -1 -36 -1 -42 0 rrcurveto
          0 0 -157 0 0 0 rrcurveto
          0 0 0 -648 0 0 rrcurveto
          0 0 -223 0 0 0 rrcurveto
          0 0 0 1522 0 0 rrcurveto
          425 -148 rmoveto
          -77 0 -68 -6 -57 -12 rrcurveto
          0 0 0 -550 0 0 rrcurveto
          32 -4 44 -2 55 0 rrcurveto
          0 0 104 0 0 0 rrcurveto
          211 0 106 100 0 199 rrcurveto
          0 97 -24 69 -49 43 rrcurveto
          -51 44 -93 22 -133 0 rrcurveto
          endchar
        </CharString>
        <CharString name="Latin Capital Letter S">
          1132 560 161 rmoveto
          202 0 101 70 0 141 rrcurveto
          0 69 -29 58 -59 49 rrcurveto
          -39 33 -63 37 -87 42 rrcurveto
          -87 42 -67 36 -45 30 rrcurveto
          -46 30 -41 34 -36 38 rrcurveto
          -79 85 -40 92 0 100 rrcurveto
          0 175 88 118 177 62 rrcurveto
          70 24 69 12 69 0 rrcurveto
          68 0 53 -2 38 -5 rrcurveto
          37 -5 34 -7 29 -7 rrcurveto
          53 -14 42 -18 33 -21 rrcurveto
          0 0 -45 -176 0 0 rrcurveto
          -87 53 -104 27 -121 0 rrcurveto
          -129 0 -89 -34 -47 -67 rrcurveto
          -17 -24 -8 -29 0 -35 rrcurveto
          0 -35 6 -31 11 -27 rrcurveto
          11 -27 17 -25 25 -23 rrcurveto
          37 -35 56 -37 76 -39 rrcurveto
          75 -39 55 -28 33 -19 rrcurveto
          33 -19 33 -19 31 -21 rrcurveto
          31 -21 30 -23 27 -24 rrcurveto
          27 -25 24 -26 20 -29 rrcurveto
          44 -63 22 -67 0 -72 rrcurveto
          0 -72 -12 -62 -25 -52 rrcurveto
          -25 -52 -35 -43 -45 -34 rrcurveto
          -89 -67 -121 -34 -155 0 rrcurveto
          -141 0 -122 19 -103 39 rrcurveto
          -27 11 -21 9 -13 9 rrcurveto
          0 0 53 183 0 0 rrcurveto
          67 -41 85 -28 103 -16 rrcurveto
          35 -5 34 -3 35 0 rrcurveto
          endchar
        </CharString>
        <CharString name="Latin Capital Letter S with acute">
          1132 560 161 rmoveto
          202 0 101 70 0 141 rrcurveto
          0 69 -29 58 -59 49 rrcurveto
          -39 33 -63 37 -87 42 rrcurveto
          -87 42 -67 36 -45 30 rrcurveto
          -46 30 -41 34 -36 38 rrcurveto
          -79 85 -40 92 0 100 rrcurveto
          0 175 88 118 177 62 rrcurveto
          70 24 69 12 69 0 rrcurveto
          68 0 53 -2 38 -5 rrcurveto
          37 -5 34 -7 29 -7 rrcurveto
          53 -14 42 -18 33 -21 rrcurveto
          0 0 -45 -176 0 0 rrcurveto
          -87 53 -104 27 -121 0 rrcurveto
          -129 0 -89 -34 -47 -67 rrcurveto
          -17 -24 -8 -29 0 -35 rrcurveto
          0 -35 6 -31 11 -27 rrcurveto
          11 -27 17 -25 25 -23 rrcurveto
          37 -35 56 -37 76 -39 rrcurveto
          75 -39 55 -28 33 -19 rrcurveto
          33 -19 33 -19 31 -21 rrcurveto
          31 -21 30 -23 27 -24 rrcurveto
          27 -25 24 -26 20 -29 rrcurveto
          44 -63 22 -67 0 -72 rrcurveto
          0 -72 -12 -62 -25 -52 rrcurveto
          -25 -52 -35 -43 -45 -34 rrcurveto
          -89 -67 -121 -34 -155 0 rrcurveto
          -141 0 -122 19 -103 39 rrcurveto
          -27 11 -21 9 -13 9 rrcurveto
          0 0 53 183 0 0 rrcurveto
          67 -41 85 -28 103 -16 rrcurveto
          35 -5 34 -3 35 0 rrcurveto
          -65 1504 rmoveto
          1 1 10 8 17 16 rrcurveto
          17 15 21 19 25 23 rrcurveto
          25 22 28 24 29 27 rrcurveto
          29 26 27 25 25 23 rrcurveto
          58 53 30 29 1 4 rrcurveto
          0 0 146 -133 0 0 rrcurveto
          -79 -82 -100 -76 -120 -69 rrcurveto
          -36 -21 -32 -16 -29 -10 rrcurveto
          0 0 -93 92 0 0 rrcurveto
          endchar
        </CharString>
        <CharString name="Latin Capital Letter S with caron">
          1132 560 161 rmoveto
          202 0 101 70 0 141 rrcurveto
          0 69 -29 58 -59 49 rrcurveto
          -39 33 -63 37 -87 42 rrcurveto
          -87 42 -67 36 -45 30 rrcurveto
          -46 30 -41 34 -36 38 rrcurveto
          -79 85 -40 92 0 100 rrcurveto
          0 175 88 118 177 62 rrcurveto
          70 24 69 12 69 0 rrcurveto
          68 0 53 -2 38 -5 rrcurveto
          37 -5 34 -7 29 -7 rrcurveto
          53 -14 42 -18 33 -21 rrcurveto
          0 0 -45 -176 0 0 rrcurveto
          -87 53 -104 27 -121 0 rrcurveto
          -129 0 -89 -34 -47 -67 rrcurveto
          -17 -24 -8 -29 0 -35 rrcurveto
          0 -35 6 -31 11 -27 rrcurveto
          11 -27 17 -25 25 -23 rrcurveto
          37 -35 56 -37 76 -39 rrcurveto
          75 -39 55 -28 33 -19 rrcurveto
          33 -19 33 -19 31 -21 rrcurveto
          31 -21 30 -23 27 -24 rrcurveto
          27 -25 24 -26 20 -29 rrcurveto
          44 -63 22 -67 0 -72 rrcurveto
          0 -72 -12 -62 -25 -52 rrcurveto
          -25 -52 -35 -43 -45 -34 rrcurveto
          -89 -67 -121 -34 -155 0 rrcurveto
          -141 0 -122 19 -103 39 rrcurveto
          -27 11 -21 9 -13 9 rrcurveto
          0 0 53 183 0 0 rrcurveto
          67 -41 85 -28 103 -16 rrcurveto
          35 -5 34 -3 35 0 rrcurveto
          -280 1769 rmoveto
          0 0 128 60 0 0 rrcurveto
          0 0 216 -174 0 0 rrcurveto
          0 0 221 174 0 0 rrcurveto
          0 0 120 -57 0 0 rrcurveto
          0 0 -242 -263 0 0 rrcurveto
          0 0 -197 0 0 0 rrcurveto
          0 0 -246 260 0 0 rrcurveto
          endchar
        </CharString>
        <CharString name="Latin Capital Letter S with cedilla">
          1132 394 -308 rmoveto
          88 0 44 73 0 146 rrcurveto
          0 28 -3 25 -6 22 rrcurveto
          -121 5 -105 20 -89 35 rrcurveto
          -24 9 -18 8 -12 8 rrcurveto
          0 0 53 183 0 0 rrcurveto
          67 -41 85 -28 103 -16 rrcurveto
          35 -5 34 -3 35 0 rrcurveto
          202 0 101 70 0 141 rrcurveto
          0 69 -29 58 -59 49 rrcurveto
          -39 33 -63 37 -87 42 rrcurveto
          -87 42 -67 36 -45 30 rrcurveto
          -46 30 -41 34 -36 38 rrcurveto
          -79 85 -40 92 0 100 rrcurveto
          0 175 88 118 177 62 rrcurveto
          70 24 69 12 69 0 rrcurveto
          68 0 53 -2 38 -5 rrcurveto
          37 -5 34 -7 29 -7 rrcurveto
          53 -14 42 -18 33 -21 rrcurveto
          0 0 -45 -176 0 0 rrcurveto
          -87 53 -104 27 -121 0 rrcurveto
          -129 0 -89 -34 -47 -67 rrcurveto
          -17 -24 -8 -29 0 -35 rrcurveto
          0 -35 6 -31 11 -27 rrcurveto
          11 -27 17 -25 25 -23 rrcurveto
          37 -35 56 -37 76 -39 rrcurveto
          75 -39 55 -28 33 -19 rrcurveto
          33 -19 33 -19 31 -21 rrcurveto
          31 -21 30 -23 27 -24 rrcurveto
          27 -25 24 -26 20 -29 rrcurveto
          44 -63 22 -65 0 -69 rrcurveto
          0 -69 -10 -58 -21 -49 rrcurveto
          -21 -49 -29 -41 -37 -34 rrcurveto
          -73 -67 -103 -39 -133 -11 rrcurveto
          21 -43 10 -55 0 -67 rrcurveto
          0 -149 -53 -92 -105 -33 rrcurveto
          -27 -9 -24 -4 -21 0 rrcurveto
          -21 0 -18 1 -15 1 rrcurveto
          -15 1 -15 2 -13 3 rrcurveto
          -31 6 -20 7 -11 7 rrcurveto
          0 0 15 142 0 0 rrcurveto
          15 -9 28 -5 39 0 rrcurveto
          endchar
        </CharString>
        <CharString name="Latin Capital Letter S with circumflex">
          1132 560 161 rmoveto
          202 0 101 70 0 141 rrcurveto
          0 69 -29 58 -59 49 rrcurveto
          -39 33 -63 37 -87 42 rrcurveto
          -87 42 -67 36 -45 30 rrcurveto
          -46 30 -41 34 -36 38 rrcurveto
          -79 85 -40 92 0 100 rrcurveto
          0 175 88 118 177 62 rrcurveto
          70 24 69 12 69 0 rrcurveto
          68 0 53 -2 38 -5 rrcurveto
          37 -5 34 -7 29 -7 rrcurveto
          53 -14 42 -18 33 -21 rrcurveto
          0 0 -45 -176 0 0 rrcurveto
          -87 53 -104 27 -121 0 rrcurveto
          -129 0 -89 -34 -47 -67 rrcurveto
          -17 -24 -8 -29 0 -35 rrcurveto
          0 -35 6 -31 11 -27 rrcurveto
          11 -27 17 -25 25 -23 rrcurveto
          37 -35 56 -37 76 -39 rrcurveto
          75 -39 55 -28 33 -19 rrcurveto
          33 -19 33 -19 31 -21 rrcurveto
          31 -21 30 -23 27 -24 rrcurveto
          27 -25 24 -26 20 -29 rrcurveto
          44 -63 22 -67 0 -72 rrcurveto
          0 -72 -12 -62 -25 -52 rrcurveto
          -25 -52 -35 -43 -45 -34 rrcurveto
          -89 -67 -121 -34 -155 0 rrcurveto
          -141 0 -122 19 -103 39 rrcurveto
          -27 11 -21 9 -13 9 rrcurveto
          0 0 53 183 0 0 rrcurveto
          67 -41 85 -28 103 -16 rrcurveto
          35 -5 34 -3 35 0 rrcurveto
          -295 1528 rmoveto
          0 0 259 301 0 0 rrcurveto
          0 0 197 0 0 0 rrcurveto
          0 0 262 -298 0 0 rrcurveto
          0 0 -144 -60 0 0 rrcurveto
          0 0 -216 202 0 0 rrcurveto
          0 0 -221 -202 0 0 rrcurveto
          0 0 -137 57 0 0 rrcurveto
          endchar
        </CharString>
        <CharString name="Latin Capital Letter S with comma below">
          1142 497 -493 rmoveto
          26 31 13 49 0 65 rrcurveto
          0 45 -13 36 -26 27 rrcurveto
          -9 9 -9 5 -10 2 rrcurveto
          0 0 0 50 0 0 rrcurveto
          0 0 158 92 0 0 rrcurveto
          42 -21 29 -45 17 -69 rrcurveto
          6 -23 3 -28 0 -31 rrcurveto
          0 -31 -5 -31 -10 -29 rrcurveto
          -10 -29 -13 -26 -15 -23 rrcurveto
          -29 -45 -33 -31 -37 -16 rrcurveto
          0 0 -75 41 0 0 rrcurveto
          0 0 0 26 0 0 rrcurveto
          68 654 rmoveto
          202 0 101 70 0 141 rrcurveto
          0 69 -29 58 -59 49 rrcurveto
          -39 33 -63 37 -87 42 rrcurveto
          -87 42 -67 36 -45 30 rrcurveto
          -46 30 -41 34 -36 38 rrcurveto
          -79 85 -40 92 0 100 rrcurveto
          0 175 88 118 177 62 rrcurveto
          70 24 69 12 69 0 rrcurveto
          68 0 53 -2 38 -5 rrcurveto
          37 -5 34 -7 29 -7 rrcurveto
          53 -14 42 -18 33 -21 rrcurveto
          0 0 -45 -176 0 0 rrcurveto
          -87 53 -104 27 -121 0 rrcurveto
          -129 0 -89 -34 -47 -67 rrcurveto
          -17 -24 -8 -29 0 -35 rrcurveto
          0 -35 6 -31 11 -27 rrcurveto
          11 -27 17 -25 25 -23 rrcurveto
          37 -35 56 -37 76 -39 rrcurveto
          75 -39 55 -28 33 -19 rrcurveto
          33 -19 33 -19 31 -21 rrcurveto
          31 -21 30 -23 27 -24 rrcurveto
          27 -25 24 -26 20 -29 rrcurveto
          44 -63 22 -67 0 -72 rrcurveto
          0 -72 -12 -62 -25 -52 rrcurveto
          -25 -52 -35 -43 -45 -34 rrcurveto
          -89 -67 -121 -34 -155 0 rrcurveto
          -141 0 -122 19 -103 39 rrcurveto
          -27 11 -21 9 -13 9 rrcurveto
          0 0 53 183 0 0 rrcurveto
          67 -41 85 -28 103 -16 rrcurveto
          35 -5 34 -3 35 0 rrcurveto
          endchar
        </CharString>
        <CharString name="Latin Capital Letter T">
          1303 558 1350 rmoveto
          0 0 -475 0 0 0 rrcurveto
          0 0 0 172 0 0 rrcurveto
          0 0 1177 0 0 0 rrcurveto
          0 0 0 -172 0 0 rrcurveto
          0 0 -477 0 0 0 rrcurveto
          0 0 0 -1350 0 0 rrcurveto
          0 0 -225 0 0 0 rrcurveto
          0 0 0 1350 0 0 rrcurveto
          endchar
        </CharString>
        <CharString name="Latin Capital Letter T with caron">
          1303 320 1930 rmoveto
          0 0 128 60 0 0 rrcurveto
          0 0 216 -174 0 0 rrcurveto
          0 0 221 174 0 0 rrcurveto
          0 0 120 -57 0 0 rrcurveto
          0 0 -242 -263 0 0 rrcurveto
          0 0 -197 0 0 0 rrcurveto
          0 0 -246 260 0 0 rrcurveto
          238 -580 rmoveto
          0 0 -475 0 0 0 rrcurveto
          0 0 0 172 0 0 rrcurveto
          0 0 1177 0 0 0 rrcurveto
          0 0 0 -172 0 0 rrcurveto
          0 0 -477 0 0 0 rrcurveto
          0 0 0 -1350 0 0 rrcurveto
          0 0 -225 0 0 0 rrcurveto
          0 0 0 1350 0 0 rrcurveto
          endchar
        </CharString>
        <CharString name="Latin Capital Letter T with cedilla">
          1303 394 -294 rmoveto
          15 -9 28 -5 39 0 rrcurveto
          89 0 44 73 0 146 rrcurveto
          0 32 -5 30 -9 27 rrcurveto
          0 0 -37 0 0 0 rrcurveto
          0 0 0 1350 0 0 rrcurveto
          0 0 -475 0 0 0 rrcurveto
          0 0 0 172 0 0 rrcurveto
          0 0 1177 0 0 0 rrcurveto
          0 0 0 -172 0 0 rrcurveto
          0 0 -477 0 0 0 rrcurveto
          0 0 0 -1350 0 0 rrcurveto
          0 0 -52 0 0 0 rrcurveto
          25 -44 12 -60 0 -75 rrcurveto
          0 -148 -53 -91 -105 -33 rrcurveto
          -27 -9 -24 -4 -21 0 rrcurveto
          -21 0 -18 1 -15 1 rrcurveto
          -15 1 -15 2 -13 3 rrcurveto
          -31 6 -20 7 -11 7 rrcurveto
          0 0 15 142 0 0 rrcurveto
          endchar
        </CharString>
        <CharString name="Latin Capital Letter T with comma below">
          1303 576 -493 rmoveto
          26 31 13 49 0 65 rrcurveto
          0 45 -13 36 -26 27 rrcurveto
          -9 9 -9 5 -10 2 rrcurveto
          0 0 0 50 0 0 rrcurveto
          0 0 158 92 0 0 rrcurveto
          42 -21 29 -45 17 -69 rrcurveto
          6 -23 3 -28 0 -31 rrcurveto
          0 -31 -5 -31 -10 -29 rrcurveto
          -10 -29 -13 -26 -15 -23 rrcurveto
          -29 -45 -33 -31 -37 -16 rrcurveto
          0 0 -75 41 0 0 rrcurveto
          0 0 0 26 0 0 rrcurveto
          -18 1843 rmoveto
          0 0 -475 0 0 0 rrcurveto
          0 0 0 172 0 0 rrcurveto
          0 0 1177 0 0 0 rrcurveto
          0 0 0 -172 0 0 rrcurveto
          0 0 -477 0 0 0 rrcurveto
          0 0 0 -1350 0 0 rrcurveto
          0 0 -225 0 0 0 rrcurveto
          0 0 0 1350 0 0 rrcurveto
          endchar
        </CharString>
        <CharString name="Latin Capital Letter T with stroke">
          1303 558 651 rmoveto
          0 0 -289 0 0 0 rrcurveto
          0 0 0 145 0 0 rrcurveto
          0 0 289 0 0 0 rrcurveto
          0 0 0 554 0 0 rrcurveto
          0 0 -475 0 0 0 rrcurveto
          0 0 0 172 0 0 rrcurveto
          0 0 1177 0 0 0 rrcurveto
          0 0 0 -172 0 0 rrcurveto
          0 0 -477 0 0 0 rrcurveto
          0 0 0 -554 0 0 rrcurveto
          0 0 296 0 0 0 rrcurveto
          0 0 0 -145 0 0 rrcurveto
          0 0 -296 0 0 0 rrcurveto
          0 0 0 -651 0 0 rrcurveto
          0 0 -225 0 0 0 rrcurveto
          0 0 0 651 0 0 rrcurveto
          endchar
        </CharString>
        <CharString name="Latin Capital Letter Thorn">
          1262 872 319 rmoveto
          -73 -23 -73 -11 -75 0 rrcurveto
          -75 0 -72 2 -67 5 rrcurveto
          0 0 0 -292 0 0 rrcurveto
          0 0 -223 0 0 0 rrcurveto
          0 0 0 1522 0 0 rrcurveto
          0 0 223 0 0 0 rrcurveto
          0 0 0 -275 0 0 rrcurveto
          106 8 78 4 49 0 rrcurveto
          355 0 177 -155 0 -311 rrcurveto
          0 -161 -49 -125 -99 -89 rrcurveto
          -49 -43 -61 -33 -72 -23 rrcurveto
          -248 780 rmoveto
          -69 0 -63 -6 -55 -11 rrcurveto
          0 0 0 -627 0 0 rrcurveto
          40 -5 50 -3 59 0 rrcurveto
          59 0 52 4 46 9 rrcurveto
          46 8 40 16 35 25 rrcurveto
          77 54 39 88 0 122 rrcurveto
          0 122 -30 85 -61 48 rrcurveto
          -61 47 -89 24 -115 0 rrcurveto
          endchar
        </CharString>
        <CharString name="Latin Capital Letter U">
          1463 179 1522 rmoveto
          0 0 223 0 0 0 rrcurveto
          0 0 -1 -836 0 0 rrcurveto
          0 -200 32 -141 64 -81 rrcurveto
          56 -71 90 -35 125 0 rrcurveto
          111 0 82 36 51 71 rrcurveto
          61 83 30 141 0 197 rrcurveto
          0 0 0 836 0 0 rrcurveto
          0 0 222 0 0 0 rrcurveto
          0 0 0 -892 0 0 rrcurveto
          0 -318 -105 -201 -210 -85 rrcurveto
          -71 -28 -85 -14 -100 0 rrcurveto
          -100 0 -87 15 -73 29 rrcurveto
          -74 29 -60 42 -47 55 rrcurveto
          -89 106 -45 160 0 213 rrcurveto
          0 0 0 889 0 0 rrcurveto
          endchar
        </CharString>
        <CharString name="Latin Capital Letter U with acute">
          1463 637 1665 rmoveto
          1 1 10 8 17 16 rrcurveto
          17 15 21 19 25 23 rrcurveto
          25 22 28 24 29 27 rrcurveto
          29 26 27 25 25 23 rrcurveto
          58 53 30 29 1 4 rrcurveto
          0 0 146 -133 0 0 rrcurveto
          -79 -82 -100 -76 -120 -69 rrcurveto
          -36 -21 -32 -16 -29 -10 rrcurveto
          0 0 -93 92 0 0 rrcurveto
          -458 -143 rmoveto
          0 0 223 0 0 0 rrcurveto
          0 0 -1 -836 0 0 rrcurveto
          0 -200 32 -141 64 -81 rrcurveto
          56 -71 90 -35 125 0 rrcurveto
          111 0 82 36 51 71 rrcurveto
          61 83 30 141 0 197 rrcurveto
          0 0 0 836 0 0 rrcurveto
          0 0 222 0 0 0 rrcurveto
          0 0 0 -892 0 0 rrcurveto
          0 -318 -105 -201 -210 -85 rrcurveto
          -71 -28 -85 -14 -100 0 rrcurveto
          -100 0 -87 15 -73 29 rrcurveto
          -74 29 -60 42 -47 55 rrcurveto
          -89 106 -45 160 0 213 rrcurveto
          0 0 0 889 0 0 rrcurveto
          endchar
        </CharString>
        <CharString name="Latin Capital Letter U with breve">
          1463 914 1660 rmoveto
          -45 -19 -50 -9 -56 0 rrcurveto
          -57 0 -50 9 -44 19 rrcurveto
          -89 37 -59 60 -27 84 rrcurveto
          -10 31 -5 27 0 22 rrcurveto
          0 22 0 16 1 11 rrcurveto
          0 0 153 0 0 0 rrcurveto
          0 -79 36 -52 73 -23 rrcurveto
          21 -7 27 -4 32 0 rrcurveto
          31 0 27 4 22 7 rrcurveto
          22 7 18 9 15 11 rrcurveto
          14 11 11 12 8 13 rrcurveto
          7 13 6 12 4 12 rrcurveto
          5 19 3 18 0 17 rrcurveto
          0 0 149 0 0 0 rrcurveto
          1 -10 0 -16 0 -22 rrcurveto
          0 -22 -6 -29 -13 -36 rrcurveto
          -13 -37 -21 -33 -30 -31 rrcurveto
          -30 -31 -37 -25 -44 -18 rrcurveto
          -735 -138 rmoveto
          0 0 223 0 0 0 rrcurveto
          0 0 -1 -836 0 0 rrcurveto
          0 -200 32 -141 64 -81 rrcurveto
          56 -71 90 -35 125 0 rrcurveto
          111 0 82 36 51 71 rrcurveto
          61 83 30 141 0 197 rrcurveto
          0 0 0 836 0 0 rrcurveto
          0 0 222 0 0 0 rrcurveto
          0 0 0 -892 0 0 rrcurveto
          0 -318 -105 -201 -210 -85 rrcurveto
          -71 -28 -85 -14 -100 0 rrcurveto
          -100 0 -87 15 -73 29 rrcurveto
          -74 29 -60 42 -47 55 rrcurveto
          -89 106 -45 160 0 213 rrcurveto
          0 0 0 889 0 0 rrcurveto
          endchar
        </CharString>
        <CharString name="Latin Capital Letter U with circumflex">
          1463 179 1522 rmoveto
          0 0 223 0 0 0 rrcurveto
          0 0 -1 -836 0 0 rrcurveto
          0 -200 32 -141 64 -81 rrcurveto
          56 -71 90 -35 125 0 rrcurveto
          111 0 82 36 51 71 rrcurveto
          61 83 30 141 0 197 rrcurveto
          0 0 0 836 0 0 rrcurveto
          0 0 222 0 0 0 rrcurveto
          0 0 0 -892 0 0 rrcurveto
          0 -318 -105 -201 -210 -85 rrcurveto
          -71 -28 -85 -14 -100 0 rrcurveto
          -100 0 -87 15 -73 29 rrcurveto
          -74 29 -60 42 -47 55 rrcurveto
          -89 106 -45 160 0 213 rrcurveto
          0 0 0 889 0 0 rrcurveto
          228 167 rmoveto
          0 0 259 301 0 0 rrcurveto
          0 0 197 0 0 0 rrcurveto
          0 0 262 -298 0 0 rrcurveto
          0 0 -144 -60 0 0 rrcurveto
          0 0 -216 202 0 0 rrcurveto
          0 0 -221 -202 0 0 rrcurveto
          0 0 -137 57 0 0 rrcurveto
          endchar
        </CharString>
        <CharString name="Latin Capital Letter U with diaeresis">
          1463 1062 1678 rmoveto
          -19 -7 -20 -4 -19 0 rrcurveto
          -20 0 -18 3 -17 6 rrcurveto
          -17 6 -14 9 -13 11 rrcurveto
          -27 26 -13 28 0 31 rrcurveto
          0 31 5 25 9 19 rrcurveto
          9 19 12 16 15 13 rrcurveto
          32 30 32 15 32 0 rrcurveto
          32 0 25 -3 17 -7 rrcurveto
          17 -7 15 -10 11 -12 rrcurveto
          23 -24 11 -28 0 -31 rrcurveto
          0 -31 -4 -25 -9 -19 rrcurveto
          -9 -19 -11 -16 -15 -13 rrcurveto
          -15 -14 -18 -11 -19 -7 rrcurveto
          -496 0 rmoveto
          -19 -7 -20 -4 -19 0 rrcurveto
          -20 0 -18 3 -17 6 rrcurveto
          -17 6 -14 9 -13 11 rrcurveto
          -27 26 -13 28 0 31 rrcurveto
          0 31 5 25 9 19 rrcurveto
          9 19 12 16 15 13 rrcurveto
          32 30 32 15 32 0 rrcurveto
          32 0 25 -3 17 -7 rrcurveto
          17 -7 15 -10 11 -12 rrcurveto
          23 -24 11 -28 0 -31 rrcurveto
          0 -31 -4 -25 -9 -19 rrcurveto
          -9 -19 -11 -16 -15 -13 rrcurveto
          -15 -14 -18 -11 -19 -7 rrcurveto
          -387 -156 rmoveto
          0 0 223 0 0 0 rrcurveto
          0 0 -1 -836 0 0 rrcurveto
          0 -200 32 -141 64 -81 rrcurveto
          56 -71 90 -35 125 0 rrcurveto
          111 0 82 36 51 71 rrcurveto
          61 83 30 141 0 197 rrcurveto
          0 0 0 836 0 0 rrcurveto
          0 0 222 0 0 0 rrcurveto
          0 0 0 -892 0 0 rrcurveto
          0 -318 -105 -201 -210 -85 rrcurveto
          -71 -28 -85 -14 -100 0 rrcurveto
          -100 0 -87 15 -73 29 rrcurveto
          -74 29 -60 42 -47 55 rrcurveto
          -89 106 -45 160 0 213 rrcurveto
          0 0 0 889 0 0 rrcurveto
          endchar
        </CharString>
        <CharString name="Latin Capital Letter U with double acute">
          1463 179 1522 rmoveto
          0 0 223 0 0 0 rrcurveto
          0 0 -1 -836 0 0 rrcurveto
          0 -200 32 -141 64 -81 rrcurveto
          56 -71 90 -35 125 0 rrcurveto
          111 0 82 36 51 71 rrcurveto
          61 83 30 141 0 197 rrcurveto
          0 0 0 836 0 0 rrcurveto
          0 0 222 0 0 0 rrcurveto
          0 0 0 -892 0 0 rrcurveto
          0 -318 -105 -201 -210 -85 rrcurveto
          -71 -28 -85 -14 -100 0 rrcurveto
          -100 0 -87 15 -73 29 rrcurveto
          -74 29 -60 42 -47 55 rrcurveto
          -89 106 -45 160 0 213 rrcurveto
          0 0 0 889 0 0 rrcurveto
          227 188 rmoveto
          3 3 14 19 25 34 rrcurveto
          24 34 21 29 17 24 rrcurveto
          17 24 16 22 15 21 rrcurveto
          35 49 19 27 1 4 rrcurveto
          0 0 172 -87 0 0 rrcurveto
          -99 -138 -85 -91 -71 -43 rrcurveto
          0 0 -124 69 0 0 rrcurveto
          468 0 rmoveto
          5 5 15 19 25 32 rrcurveto
          25 32 21 28 18 23 rrcurveto
          18 23 17 22 16 21 rrcurveto
          37 49 18 25 1 3 rrcurveto
          0 0 163 -88 0 0 rrcurveto
          -93 -131 -84 -87 -77 -45 rrcurveto
          0 0 -125 69 0 0 rrcurveto
          endchar
        </CharString>
        <CharString name="Latin Capital Letter U with grave">
          1463 802 1573 rmoveto
          -67 22 -93 57 -121 92 rrcurveto
          -54 41 -39 35 -23 27 rrcurveto
          0 0 146 133 0 0 rrcurveto
          3 -11 50 -47 95 -83 rrcurveto
          95 -84 56 -50 17 -15 rrcurveto
          17 -16 9 -8 1 -1 rrcurveto
          0 0 -92 -92 0 0 rrcurveto
          -623 -51 rmoveto
          0 0 223 0 0 0 rrcurveto
          0 0 -1 -836 0 0 rrcurveto
          0 -200 32 -141 64 -81 rrcurveto
          56 -71 90 -35 125 0 rrcurveto
          111 0 82 36 51 71 rrcurveto
          61 83 30 141 0 197 rrcurveto
          0 0 0 836 0 0 rrcurveto
          0 0 222 0 0 0 rrcurveto
          0 0 0 -892 0 0 rrcurveto
          0 -318 -105 -201 -210 -85 rrcurveto
          -71 -28 -85 -14 -100 0 rrcurveto
          -100 0 -87 15 -73 29 rrcurveto
          -74 29 -60 42 -47 55 rrcurveto
          -89 106 -45 160 0 213 rrcurveto
          0 0 0 889 0 0 rrcurveto
          endchar
        </CharString>
        <CharString name="Latin Capital Letter U with macron">
          1463 494 1891 rmoveto
          0 0 547 0 0 0 rrcurveto
          0 0 0 -162 0 0 rrcurveto
          0 0 -547 0 0 0 rrcurveto
          0 0 0 162 0 0 rrcurveto
          -315 -369 rmoveto
          0 0 223 0 0 0 rrcurveto
          0 0 -1 -836 0 0 rrcurveto
          0 -200 32 -141 64 -81 rrcurveto
          56 -71 90 -35 125 0 rrcurveto
          111 0 82 36 51 71 rrcurveto
          61 83 30 141 0 197 rrcurveto
          0 0 0 836 0 0 rrcurveto
          0 0 222 0 0 0 rrcurveto
          0 0 0 -892 0 0 rrcurveto
          0 -318 -105 -201 -210 -85 rrcurveto
          -71 -28 -85 -14 -100 0 rrcurveto
          -100 0 -87 15 -73 29 rrcurveto
          -74 29 -60 42 -47 55 rrcurveto
          -89 106 -45 160 0 213 rrcurveto
          0 0 0 889 0 0 rrcurveto
          endchar
        </CharString>
        <CharString name="Latin Capital Letter U with ogonek">
          1463 1072 -453 rmoveto
          -51 -39 -79 -20 -107 0 rrcurveto
          -113 0 -76 40 -38 80 rrcurveto
          -13 26 -6 27 0 29 rrcurveto
          -1 28 5 27 9 27 rrcurveto
          9 26 12 26 16 26 rrcurveto
          33 53 43 45 54 36 rrcurveto
          0 0 -8 0 0 0 rrcurveto
          -301 0 -183 125 -66 249 rrcurveto
          -21 80 -11 92 0 103 rrcurveto
          0 0 0 889 0 0 rrcurveto
          0 0 223 0 0 0 rrcurveto
          0 0 -1 -836 0 0 rrcurveto
          0 -200 32 -141 64 -81 rrcurveto
          56 -71 90 -35 125 0 rrcurveto
          111 0 82 36 51 71 rrcurveto
          61 83 30 141 0 197 rrcurveto
          0 0 0 836 0 0 rrcurveto
          0 0 222 0 0 0 rrcurveto
          0 0 0 -892 0 0 rrcurveto
          0 -345 -123 -207 -246 -69 rrcurveto
          -72 -65 -47 -69 -23 -73 rrcurveto
          -14 -45 1 -38 15 -31 rrcurveto
          13 -25 18 -15 24 -5 rrcurveto
          24 -5 27 -2 31 0 rrcurveto
          30 0 40 10 49 19 rrcurveto
          0 0 0 -118 0 0 rrcurveto
          endchar
        </CharString>
        <CharString name="Latin Capital Letter U with ring above">
          1463 179 1522 rmoveto
          0 0 223 0 0 0 rrcurveto
          0 0 -1 -836 0 0 rrcurveto
          0 -200 32 -141 64 -81 rrcurveto
          56 -71 90 -35 125 0 rrcurveto
          111 0 82 36 51 71 rrcurveto
          61 83 30 141 0 197 rrcurveto
          0 0 0 836 0 0 rrcurveto
          0 0 222 0 0 0 rrcurveto
          0 0 0 -892 0 0 rrcurveto
          0 -318 -105 -201 -210 -85 rrcurveto
          -71 -28 -85 -14 -100 0 rrcurveto
          -100 0 -87 15 -73 29 rrcurveto
          -74 29 -60 42 -47 55 rrcurveto
          -89 106 -45 160 0 213 rrcurveto
          0 0 0 889 0 0 rrcurveto
          705 -71 rmoveto
          -39 -11 -43 -5 -45 0 rrcurveto
          -45 0 -43 6 -39 13 rrcurveto
          -80 26 -55 47 -30 67 rrcurveto
          -14 33 -7 26 0 21 rrcurveto
          0 69 10 52 19 34 rrcurveto
          19 33 25 27 30 21 rrcurveto
          57 40 72 20 88 0 rrcurveto
          153 0 100 -50 46 -100 rrcurveto
          15 -33 7 -39 0 -45 rrcurveto
          -1 -45 -9 -40 -17 -34 rrcurveto
          -18 -35 -24 -28 -29 -22 rrcurveto
          -30 -22 -34 -16 -39 -10 rrcurveto
          -122 110 rmoveto
          113 0 56 48 0 97 rrcurveto
          0 67 -34 44 -68 20 rrcurveto
          -21 6 -21 3 -22 0 rrcurveto
          -22 0 -21 -2 -19 -4 rrcurveto
          -19 -4 -18 -7 -15 -11 rrcurveto
          -34 -23 -17 -36 0 -47 rrcurveto
          0 -47 15 -37 29 -26 rrcurveto
          29 -26 39 -14 50 -1 rrcurveto
          endchar
        </CharString>
        <CharString name="Latin Capital Letter U with tilde">
          1463 609 1805 rmoveto
          -57 0 -58 -34 -60 -68 rrcurveto
          0 0 -85 68 0 0 rrcurveto
          23 56 40 47 56 37 rrcurveto
          54 37 51 18 47 0 rrcurveto
          47 0 36 -7 26 -14 rrcurveto
          25 -15 23 -16 21 -17 rrcurveto
          20 -18 19 -16 19 -14 rrcurveto
          19 -15 22 -7 25 0 rrcurveto
          59 0 58 33 58 66 rrcurveto
          0 0 86 -71 0 0 rrcurveto
          -23 -56 -40 -46 -56 -37 rrcurveto
          -55 -37 -54 -18 -53 0 rrcurveto
          -45 0 -36 9 -26 18 rrcurveto
          -27 17 -20 15 -13 13 rrcurveto
          -13 13 -13 11 -13 11 rrcurveto
          -29 25 -29 12 -29 0 rrcurveto
          -430 -283 rmoveto
          0 0 223 0 0 0 rrcurveto
          0 0 -1 -836 0 0 rrcurveto
          0 -200 32 -141 64 -81 rrcurveto
          56 -71 90 -35 125 0 rrcurveto
          111 0 82 36 51 71 rrcurveto
          61 83 30 141 0 197 rrcurveto
          0 0 0 836 0 0 rrcurveto
          0 0 222 0 0 0 rrcurveto
          0 0 0 -892 0 0 rrcurveto
          0 -318 -105 -201 -210 -85 rrcurveto
          -71 -28 -85 -14 -100 0 rrcurveto
          -100 0 -87 15 -73 29 rrcurveto
          -74 29 -60 42 -47 55 rrcurveto
          -89 106 -45 160 0 213 rrcurveto
          0 0 0 889 0 0 rrcurveto
          endchar
        </CharString>
        <CharString name="Latin Capital Letter V">
          1355 42 1522 rmoveto
          0 0 237 0 0 0 rrcurveto
          0 0 360 -1024 0 0 rrcurveto
          0 0 67 -235 0 0 rrcurveto
          0 0 69 235 0 0 rrcurveto
          0 0 344 1024 0 0 rrcurveto
          0 0 234 0 0 0 rrcurveto
          0 0 -555 -1535 0 0 rrcurveto
          0 0 -187 0 0 0 rrcurveto
          0 0 -569 1535 0 0 rrcurveto
          endchar
        </CharString>
        <CharString name="Latin Capital Letter W">
          1918 42 1522 rmoveto
          0 0 229 0 0 0 rrcurveto
          0 0 242 -988 0 0 rrcurveto
          0 0 50 -276 0 0 rrcurveto
          0 0 51 276 0 0 rrcurveto
          0 0 287 988 0 0 rrcurveto
          0 0 161 0 0 0 rrcurveto
          0 0 291 -988 0 0 rrcurveto
          0 0 66 -278 0 0 rrcurveto
          0 0 47 277 0 0 rrcurveto
          0 0 226 989 0 0 rrcurveto
          0 0 224 0 0 0 rrcurveto
          0 0 -393 -1538 0 0 rrcurveto
          0 0 -218 0 0 0 rrcurveto
          0 0 -290 998 0 0 rrcurveto
          0 0 -35 182 0 0 rrcurveto
          0 0 -34 -183 0 0 rrcurveto
          0 0 -294 -997 0 0 rrcurveto
          0 0 -191 0 0 0 rrcurveto
          0 0 -419 1538 0 0 rrcurveto
          endchar
        </CharString>
        <CharString name="Latin Capital Letter W with circumflex">
          1918 42 1522 rmoveto
          0 0 229 0 0 0 rrcurveto
          0 0 242 -988 0 0 rrcurveto
          0 0 50 -276 0 0 rrcurveto
          0 0 51 276 0 0 rrcurveto
          0 0 287 988 0 0 rrcurveto
          0 0 161 0 0 0 rrcurveto
          0 0 291 -988 0 0 rrcurveto
          0 0 66 -278 0 0 rrcurveto
          0 0 47 277 0 0 rrcurveto
          0 0 226 989 0 0 rrcurveto
          0 0 224 0 0 0 rrcurveto
          0 0 -393 -1538 0 0 rrcurveto
          0 0 -218 0 0 0 rrcurveto
          0 0 -290 998 0 0 rrcurveto
          0 0 -35 182 0 0 rrcurveto
          0 0 -34 -183 0 0 rrcurveto
          0 0 -294 -997 0 0 rrcurveto
          0 0 -191 0 0 0 rrcurveto
          0 0 -419 1538 0 0 rrcurveto
          580 167 rmoveto
          0 0 259 301 0 0 rrcurveto
          0 0 197 0 0 0 rrcurveto
          0 0 262 -298 0 0 rrcurveto
          0 0 -144 -60 0 0 rrcurveto
          0 0 -216 202 0 0 rrcurveto
          0 0 -221 -202 0 0 rrcurveto
          0 0 -137 57 0 0 rrcurveto
          endchar
        </CharString>
        <CharString name="Latin Capital Letter X">
          1314 543 786 rmoveto
          0 0 -478 736 0 0 rrcurveto
          0 0 251 1 0 0 rrcurveto
          0 0 371 -606 0 0 rrcurveto
          0 0 356 605 0 0 rrcurveto
          0 0 239 0 0 0 rrcurveto
          0 0 -477 -769 0 0 rrcurveto
          0 0 487 -753 0 0 rrcurveto
          0 0 -254 0 0 0 rrcurveto
          0 0 -373 619 0 0 rrcurveto
          0 0 -363 -619 0 0 rrcurveto
          0 0 -239 0 0 0 rrcurveto
          0 0 480 786 0 0 rrcurveto
          endchar
        </CharString>
        <CharString name="Latin Capital Letter Y">
          1264 543 593 rmoveto
          0 0 -501 929 0 0 rrcurveto
          0 0 238 0 0 0 rrcurveto
          0 0 338 -660 0 0 rrcurveto
          0 0 43 -105 0 0 rrcurveto
          0 0 36 105 0 0 rrcurveto
          0 0 331 660 0 0 rrcurveto
          0 0 234 0 0 0 rrcurveto
          0 0 -493 -929 0 0 rrcurveto
          0 0 0 -593 0 0 rrcurveto
          0 0 -226 0 0 0 rrcurveto
          0 0 0 593 0 0 rrcurveto
          endchar
        </CharString>
        <CharString name="Latin Capital Letter Y with acute">
          1264 543 593 rmoveto
          0 0 -501 929 0 0 rrcurveto
          0 0 238 0 0 0 rrcurveto
          0 0 338 -660 0 0 rrcurveto
          0 0 43 -105 0 0 rrcurveto
          0 0 36 105 0 0 rrcurveto
          0 0 331 660 0 0 rrcurveto
          0 0 234 0 0 0 rrcurveto
          0 0 -493 -929 0 0 rrcurveto
          0 0 0 -593 0 0 rrcurveto
          0 0 -226 0 0 0 rrcurveto
          0 0 0 593 0 0 rrcurveto
          -1 1072 rmoveto
          1 1 10 8 17 16 rrcurveto
          17 15 21 19 25 23 rrcurveto
          25 22 28 24 29 27 rrcurveto
          29 26 27 25 25 23 rrcurveto
          58 53 30 29 1 4 rrcurveto
          0 0 146 -133 0 0 rrcurveto
          -79 -82 -100 -76 -120 -69 rrcurveto
          -36 -21 -32 -16 -29 -10 rrcurveto
          0 0 -93 92 0 0 rrcurveto
          endchar
        </CharString>
        <CharString name="Latin Capital Letter Y with circumflex">
          1264 543 593 rmoveto
          0 0 -501 929 0 0 rrcurveto
          0 0 238 0 0 0 rrcurveto
          0 0 338 -660 0 0 rrcurveto
          0 0 43 -105 0 0 rrcurveto
          0 0 36 105 0 0 rrcurveto
          0 0 331 660 0 0 rrcurveto
          0 0 234 0 0 0 rrcurveto
          0 0 -493 -929 0 0 rrcurveto
          0 0 0 -593 0 0 rrcurveto
          0 0 -226 0 0 0 rrcurveto
          0 0 0 593 0 0 rrcurveto
          -231 1096 rmoveto
          0 0 259 301 0 0 rrcurveto
          0 0 197 0 0 0 rrcurveto
          0 0 262 -298 0 0 rrcurveto
          0 0 -144 -60 0 0 rrcurveto
          0 0 -216 202 0 0 rrcurveto
          0 0 -221 -202 0 0 rrcurveto
          0 0 -137 57 0 0 rrcurveto
          endchar
        </CharString>
        <CharString name="Latin Capital Letter Y with diaeresis">
          1264 543 593 rmoveto
          0 0 -501 929 0 0 rrcurveto
          0 0 238 0 0 0 rrcurveto
          0 0 338 -660 0 0 rrcurveto
          0 0 43 -105 0 0 rrcurveto
          0 0 36 105 0 0 rrcurveto
          0 0 331 660 0 0 rrcurveto
          0 0 234 0 0 0 rrcurveto
          0 0 -493 -929 0 0 rrcurveto
          0 0 0 -593 0 0 rrcurveto
          0 0 -226 0 0 0 rrcurveto
          0 0 0 593 0 0 rrcurveto
          424 1085 rmoveto
          -19 -7 -20 -4 -19 0 rrcurveto
          -20 0 -18 3 -17 6 rrcurveto
          -17 6 -14 9 -13 11 rrcurveto
          -27 26 -13 28 0 31 rrcurveto
          0 31 5 25 9 19 rrcurveto
          9 19 12 16 15 13 rrcurveto
          32 30 32 15 32 0 rrcurveto
          32 0 25 -3 17 -7 rrcurveto
          17 -7 15 -10 11 -12 rrcurveto
          23 -24 11 -28 0 -31 rrcurveto
          0 -31 -4 -25 -9 -19 rrcurveto
          -9 -19 -11 -16 -15 -13 rrcurveto
          -15 -14 -18 -11 -19 -7 rrcurveto
          -496 0 rmoveto
          -19 -7 -20 -4 -19 0 rrcurveto
          -20 0 -18 3 -17 6 rrcurveto
          -17 6 -14 9 -13 11 rrcurveto
          -27 26 -13 28 0 31 rrcurveto
          0 31 5 25 9 19 rrcurveto
          9 19 12 16 15 13 rrcurveto
          32 30 32 15 32 0 rrcurveto
          32 0 25 -3 17 -7 rrcurveto
          17 -7 15 -10 11 -12 rrcurveto
          23 -24 11 -28 0 -31 rrcurveto
          0 -31 -4 -25 -9 -19 rrcurveto
          -9 -19 -11 -16 -15 -13 rrcurveto
          -15 -14 -18 -11 -19 -7 rrcurveto
          endchar
        </CharString>
        <CharString name="Latin Capital Letter Z">
          1294 886 1273 rmoveto
          0 0 58 71 0 0 rrcurveto
          0 0 -750 0 0 0 rrcurveto
          0 0 0 178 0 0 rrcurveto
          0 0 996 0 0 0 rrcurveto
          0 0 46 -81 0 0 rrcurveto
          0 0 -760 -1181 0 0 rrcurveto
          0 0 -74 -85 0 0 rrcurveto
          0 0 775 0 0 0 rrcurveto
          0 0 0 -175 0 0 rrcurveto
          0 0 -1023 0 0 0 rrcurveto
          0 0 -45 84 0 0 rrcurveto
          0 0 777 1189 0 0 rrcurveto
          endchar
        </CharString>
        <CharString name="Latin Capital Letter Z with acute">
          1294 886 1273 rmoveto
          0 0 58 71 0 0 rrcurveto
          0 0 -750 0 0 0 rrcurveto
          0 0 0 178 0 0 rrcurveto
          0 0 996 0 0 0 rrcurveto
          0 0 46 -81 0 0 rrcurveto
          0 0 -760 -1181 0 0 rrcurveto
          0 0 -74 -85 0 0 rrcurveto
          0 0 775 0 0 0 rrcurveto
          0 0 0 -175 0 0 rrcurveto
          0 0 -1023 0 0 0 rrcurveto
          0 0 -45 84 0 0 rrcurveto
          0 0 777 1189 0 0 rrcurveto
          -315 392 rmoveto
          1 1 10 8 17 16 rrcurveto
          17 15 21 19 25 23 rrcurveto
          25 22 28 24 29 27 rrcurveto
          29 26 27 25 25 23 rrcurveto
          58 53 30 29 1 4 rrcurveto
          0 0 146 -133 0 0 rrcurveto
          -79 -82 -100 -76 -120 -69 rrcurveto
          -36 -21 -32 -16 -29 -10 rrcurveto
          0 0 -93 92 0 0 rrcurveto
          endchar
        </CharString>
        <CharString name="Latin Capital Letter Z with caron">
          1294 356 1930 rmoveto
          0 0 128 60 0 0 rrcurveto
          0 0 216 -174 0 0 rrcurveto
          0 0 221 174 0 0 rrcurveto
          0 0 120 -57 0 0 rrcurveto
          0 0 -242 -263 0 0 rrcurveto
          0 0 -197 0 0 0 rrcurveto
          0 0 -246 260 0 0 rrcurveto
          530 -657 rmoveto
          0 0 58 71 0 0 rrcurveto
          0 0 -750 0 0 0 rrcurveto
          0 0 0 178 0 0 rrcurveto
          0 0 996 0 0 0 rrcurveto
          0 0 46 -81 0 0 rrcurveto
          0 0 -760 -1181 0 0 rrcurveto
          0 0 -74 -85 0 0 rrcurveto
          0 0 775 0 0 0 rrcurveto
          0 0 0 -175 0 0 rrcurveto
          0 0 -1023 0 0 0 rrcurveto
          0 0 -45 84 0 0 rrcurveto
          0 0 777 1189 0 0 rrcurveto
          endchar
        </CharString>
        <CharString name="Latin Capital Letter Z with dot above">
          1294 750 1680 rmoveto
          -19 -7 -20 -4 -19 0 rrcurveto
          -20 0 -18 3 -17 6 rrcurveto
          -17 6 -15 9 -13 11 rrcurveto
          -27 25 -14 29 0 31 rrcurveto
          0 31 5 24 9 19 rrcurveto
          9 19 12 16 15 14 rrcurveto
          33 29 32 15 33 0 rrcurveto
          32 0 25 -3 17 -7 rrcurveto
          17 -7 15 -9 11 -12 rrcurveto
          23 -24 11 -28 0 -31 rrcurveto
          0 -31 -4 -25 -9 -19 rrcurveto
          -9 -19 -12 -16 -15 -13 rrcurveto
          -15 -14 -17 -11 -19 -7 rrcurveto
          136 -407 rmoveto
          0 0 58 71 0 0 rrcurveto
          0 0 -750 0 0 0 rrcurveto
          0 0 0 178 0 0 rrcurveto
          0 0 996 0 0 0 rrcurveto
          0 0 46 -81 0 0 rrcurveto
          0 0 -760 -1181 0 0 rrcurveto
          0 0 -74 -85 0 0 rrcurveto
          0 0 775 0 0 0 rrcurveto
          0 0 0 -175 0 0 rrcurveto
          0 0 -1023 0 0 0 rrcurveto
          0 0 -45 84 0 0 rrcurveto
          0 0 777 1189 0 0 rrcurveto
          endchar
        </CharString>
        <CharString name="Latin Capital Letter ">
          1860 672 1522 rmoveto
          0 0 1061 0 0 0 rrcurveto
          0 0 0 -172 0 0 rrcurveto
          0 0 -653 0 0 0 rrcurveto
          0 0 0 -480 0 0 rrcurveto
          0 0 479 0 0 0 rrcurveto
          0 0 0 -172 0 0 rrcurveto
          0 0 -479 0 0 0 rrcurveto
          0 0 0 -523 0 0 rrcurveto
          0 0 726 0 0 0 rrcurveto
          0 0 0 -175 0 0 rrcurveto
          0 0 -949 0 0 0 rrcurveto
          0 0 0 385 0 0 rrcurveto
          0 0 -481 0 0 0 rrcurveto
          0 0 -183 -385 0 0 rrcurveto
          0 0 -246 0 0 0 rrcurveto
          0 0 725 1522 0 0 rrcurveto
          185 -971 rmoveto
          0 0 0 825 0 0 rrcurveto
          0 0 -10 0 0 0 rrcurveto
          0 0 -392 -825 0 0 rrcurveto
          0 0 402 0 0 0 rrcurveto
          endchar
        </CharString>
        <CharString name="Latin Capital Letter  with acute">
          1860 912 1665 rmoveto
          1 1 10 8 17 16 rrcurveto
          17 15 21 19 25 23 rrcurveto
          25 22 28 24 29 27 rrcurveto
          29 26 27 25 25 23 rrcurveto
          58 53 30 29 1 4 rrcurveto
          0 0 146 -133 0 0 rrcurveto
          -79 -82 -100 -76 -120 -69 rrcurveto
          -36 -21 -32 -16 -29 -10 rrcurveto
          0 0 -93 92 0 0 rrcurveto
          -240 -143 rmoveto
          0 0 1061 0 0 0 rrcurveto
          0 0 0 -172 0 0 rrcurveto
          0 0 -653 0 0 0 rrcurveto
          0 0 0 -480 0 0 rrcurveto
          0 0 479 0 0 0 rrcurveto
          0 0 0 -172 0 0 rrcurveto
          0 0 -479 0 0 0 rrcurveto
          0 0 0 -523 0 0 rrcurveto
          0 0 726 0 0 0 rrcurveto
          0 0 0 -175 0 0 rrcurveto
          0 0 -949 0 0 0 rrcurveto
          0 0 0 385 0 0 rrcurveto
          0 0 -481 0 0 0 rrcurveto
          0 0 -183 -385 0 0 rrcurveto
          0 0 -246 0 0 0 rrcurveto
          0 0 725 1522 0 0 rrcurveto
          185 -971 rmoveto
          0 0 0 825 0 0 rrcurveto
          0 0 -10 0 0 0 rrcurveto
          0 0 -392 -825 0 0 rrcurveto
          0 0 402 0 0 0 rrcurveto
          endchar
        </CharString>
        <CharString name="Latin Capital Ligature IJ">
          1353 227 1522 rmoveto
          0 0 226 0 0 0 rrcurveto
          0 0 0 -1522 0 0 rrcurveto
          0 0 -226 0 0 0 rrcurveto
          0 0 0 1522 0 0 rrcurveto
          927 -909 rmoveto
          0 0 2 -216 0 0 rrcurveto
          0 -132 -6 -101 -13 -70 rrcurveto
          -13 -71 -22 -60 -32 -49 rrcurveto
          -33 -49 -37 -42 -43 -35 rrcurveto
          -80 -64 -90 -40 -101 -16 rrcurveto
          0 0 -68 117 0 0 rrcurveto
          99 35 78 58 55 83 rrcurveto
          33 51 22 70 9 90 rrcurveto
          9 83 5 146 0 207 rrcurveto
          0 0 0 914 0 0 rrcurveto
          0 0 226 0 0 0 rrcurveto
          0 0 0 -909 0 0 rrcurveto
          endchar
        </CharString>
        <CharString name="Latin Capital Ligature OE">
          2063 1060 50 rmoveto
          -79 -44 -92 -22 -103 0 rrcurveto
          -103 0 -93 19 -82 38 rrcurveto
          -167 78 -115 137 -63 197 rrcurveto
          -29 91 -14 98 0 106 rrcurveto
          0 253 68 196 135 139 rrcurveto
          131 135 174 67 217 0 rrcurveto
          80 0 72 -13 63 -27 rrcurveto
          0 0 0 24 0 0 rrcurveto
          0 0 876 0 0 0 rrcurveto
          0 0 0 -172 0 0 rrcurveto
          0 0 -653 0 0 0 rrcurveto
          0 0 0 -480 0 0 rrcurveto
          0 0 479 0 0 0 rrcurveto
          0 0 0 -172 0 0 rrcurveto
          0 0 -479 0 0 0 rrcurveto
          0 0 0 -523 0 0 rrcurveto
          0 0 726 0 0 0 rrcurveto
          0 0 0 -175 0 0 rrcurveto
          0 0 -949 0 0 0 rrcurveto
          0 0 0 50 0 0 rrcurveto
          0 1259 rmoveto
          -62 40 -71 20 -80 0 rrcurveto
          -81 0 -69 -12 -57 -23 rrcurveto
          -57 -24 -51 -37 -44 -50 rrcurveto
          -96 -109 -48 -155 0 -201 rrcurveto
          0 -170 39 -141 78 -113 rrcurveto
          85 -121 114 -61 144 0 rrcurveto
          101 0 86 27 69 53 rrcurveto
          0 0 0 1077 0 0 rrcurveto
          endchar
        </CharString>
        <CharString name="Latin Small Letter A">
          1131 140 171 rmoveto
          -17 39 -9 51 0 62 rrcurveto
          0 62 20 57 40 52 rrcurveto
          84 109 164 64 244 17 rrcurveto
          37 3 35 1 32 0 rrcurveto
          0 0 0 115 0 0 rrcurveto
          0 77 -20 51 -40 27 rrcurveto
          -33 22 -61 11 -89 0 rrcurveto
          -77 0 -84 -18 -92 -37 rrcurveto
          -24 -9 -18 -10 -13 -9 rrcurveto
          0 0 -54 144 0 0 rrcurveto
          57 36 95 31 133 25 rrcurveto
          45 9 49 4 53 0 rrcurveto
          52 0 51 -5 50 -9 rrcurveto
          49 -10 43 -18 36 -27 rrcurveto
          75 -56 37 -98 0 -140 rrcurveto
          0 0 0 -810 0 0 rrcurveto
          0 0 -90 0 0 0 rrcurveto
          -43 0 -27 4 -13 8 rrcurveto
          -23 15 -11 31 0 46 rrcurveto
          0 0 0 8 0 0 rrcurveto
          -55 -50 -73 -34 -93 -18 rrcurveto
          -32 -7 -37 -3 -42 0 rrcurveto
          -43 0 -42 7 -43 15 rrcurveto
          -43 15 -36 21 -31 28 rrcurveto
          -31 27 -25 34 -17 40 rrcurveto
          191 153 rmoveto
          0 -117 66 -59 131 0 rrcurveto
          73 0 69 19 66 38 rrcurveto
          17 9 11 8 6 7 rrcurveto
          0 0 0 319 0 0 rrcurveto
          -78 0 -66 -7 -55 -13 rrcurveto
          -55 -13 -37 -12 -19 -9 rrcurveto
          -20 -9 -18 -10 -15 -10 rrcurveto
          -15 -11 -14 -12 -11 -14 rrcurveto
          -24 -29 -12 -34 0 -41 rrcurveto
          endchar
        </CharString>
        <CharString name="Latin Small Letter A with acute">
          1131 140 171 rmoveto
          -17 39 -9 51 0 62 rrcurveto
          0 62 20 57 40 52 rrcurveto
          84 109 164 64 244 17 rrcurveto
          37 3 35 1 32 0 rrcurveto
          0 0 0 115 0 0 rrcurveto
          0 77 -20 51 -40 27 rrcurveto
          -33 22 -61 11 -89 0 rrcurveto
          -77 0 -84 -18 -92 -37 rrcurveto
          -24 -9 -18 -10 -13 -9 rrcurveto
          0 0 -54 144 0 0 rrcurveto
          57 36 95 31 133 25 rrcurveto
          45 9 49 4 53 0 rrcurveto
          52 0 51 -5 50 -9 rrcurveto
          49 -10 43 -18 36 -27 rrcurveto
          75 -56 37 -98 0 -140 rrcurveto
          0 0 0 -810 0 0 rrcurveto
          0 0 -90 0 0 0 rrcurveto
          -43 0 -27 4 -13 8 rrcurveto
          -23 15 -11 31 0 46 rrcurveto
          0 0 0 8 0 0 rrcurveto
          -55 -50 -73 -34 -93 -18 rrcurveto
          -32 -7 -37 -3 -42 0 rrcurveto
          -43 0 -42 7 -43 15 rrcurveto
          -43 15 -36 21 -31 28 rrcurveto
          -31 27 -25 34 -17 40 rrcurveto
          191 153 rmoveto
          0 -117 66 -59 131 0 rrcurveto
          73 0 69 19 66 38 rrcurveto
          17 9 11 8 6 7 rrcurveto
          0 0 0 319 0 0 rrcurveto
          -78 0 -66 -7 -55 -13 rrcurveto
          -55 -13 -37 -12 -19 -9 rrcurveto
          -20 -9 -18 -10 -15 -10 rrcurveto
          -15 -11 -14 -12 -11 -14 rrcurveto
          -24 -29 -12 -34 0 -41 rrcurveto
          125 1060 rmoveto
          162 177 113 133 63 89 rrcurveto
          0 0 156 -135 0 0 rrcurveto
          -23 -40 -60 -66 -99 -92 rrcurveto
          -97 -90 -67 -52 -37 -14 rrcurveto
          0 0 -111 90 0 0 rrcurveto
          endchar
        </CharString>
        <CharString name="Latin Small Letter A with breve">
          1131 140 171 rmoveto
          -17 39 -9 51 0 62 rrcurveto
          0 62 20 57 40 52 rrcurveto
          84 109 164 64 244 17 rrcurveto
          37 3 35 1 32 0 rrcurveto
          0 0 0 115 0 0 rrcurveto
          0 77 -20 51 -40 27 rrcurveto
          -33 22 -61 11 -89 0 rrcurveto
          -77 0 -84 -18 -92 -37 rrcurveto
          -24 -9 -18 -10 -13 -9 rrcurveto
          0 0 -54 144 0 0 rrcurveto
          57 36 95 31 133 25 rrcurveto
          45 9 49 4 53 0 rrcurveto
          52 0 51 -5 50 -9 rrcurveto
          49 -10 43 -18 36 -27 rrcurveto
          75 -56 37 -98 0 -140 rrcurveto
          0 0 0 -810 0 0 rrcurveto
          0 0 -90 0 0 0 rrcurveto
          -43 0 -27 4 -13 8 rrcurveto
          -23 15 -11 31 0 46 rrcurveto
          0 0 0 8 0 0 rrcurveto
          -55 -50 -73 -34 -93 -18 rrcurveto
          -32 -7 -37 -3 -42 0 rrcurveto
          -43 0 -42 7 -43 15 rrcurveto
          -43 15 -36 21 -31 28 rrcurveto
          -31 27 -25 34 -17 40 rrcurveto
          191 153 rmoveto
          0 -117 66 -59 131 0 rrcurveto
          73 0 69 19 66 38 rrcurveto
          17 9 11 8 6 7 rrcurveto
          0 0 0 319 0 0 rrcurveto
          -78 0 -66 -7 -55 -13 rrcurveto
          -55 -13 -37 -12 -19 -9 rrcurveto
          -20 -9 -18 -10 -15 -10 rrcurveto
          -15 -11 -14 -12 -11 -14 rrcurveto
          -24 -29 -12 -34 0 -41 rrcurveto
          403 1016 rmoveto
          -45 -21 -50 -11 -55 0 rrcurveto
          -56 0 -50 11 -44 21 rrcurveto
          -88 42 -59 69 -29 95 rrcurveto
          -11 35 -5 30 0 23 rrcurveto
          0 23 0 17 1 11 rrcurveto
          0 0 154 0 0 0 rrcurveto
          0 -97 36 -64 73 -30 rrcurveto
          22 -9 27 -5 32 0 rrcurveto
          31 0 27 5 22 9 rrcurveto
          22 9 18 11 14 14 rrcurveto
          14 13 11 15 8 17 rrcurveto
          7 16 6 16 4 15 rrcurveto
          5 21 3 21 0 23 rrcurveto
          0 0 150 0 0 0 rrcurveto
          1 -10 0 -17 0 -23 rrcurveto
          0 -24 -6 -32 -13 -40 rrcurveto
          -13 -41 -22 -38 -30 -35 rrcurveto
          -31 -35 -37 -29 -44 -21 rrcurveto
          endchar
        </CharString>
        <CharString name="Latin Small Letter A with circumflex">
          1131 140 171 rmoveto
          -17 39 -9 51 0 62 rrcurveto
          0 62 20 57 40 52 rrcurveto
          84 109 164 64 244 17 rrcurveto
          37 3 35 1 32 0 rrcurveto
          0 0 0 115 0 0 rrcurveto
          0 77 -20 51 -40 27 rrcurveto
          -33 22 -61 11 -89 0 rrcurveto
          -77 0 -84 -18 -92 -37 rrcurveto
          -24 -9 -18 -10 -13 -9 rrcurveto
          0 0 -54 144 0 0 rrcurveto
          57 36 95 31 133 25 rrcurveto
          45 9 49 4 53 0 rrcurveto
          52 0 51 -5 50 -9 rrcurveto
          49 -10 43 -18 36 -27 rrcurveto
          75 -56 37 -98 0 -140 rrcurveto
          0 0 0 -810 0 0 rrcurveto
          0 0 -90 0 0 0 rrcurveto
          -43 0 -27 4 -13 8 rrcurveto
          -23 15 -11 31 0 46 rrcurveto
          0 0 0 8 0 0 rrcurveto
          -55 -50 -73 -34 -93 -18 rrcurveto
          -32 -7 -37 -3 -42 0 rrcurveto
          -43 0 -42 7 -43 15 rrcurveto
          -43 15 -36 21 -31 28 rrcurveto
          -31 27 -25 34 -17 40 rrcurveto
          191 153 rmoveto
          0 -117 66 -59 131 0 rrcurveto
          73 0 69 19 66 38 rrcurveto
          17 9 11 8 6 7 rrcurveto
          0 0 0 319 0 0 rrcurveto
          -78 0 -66 -7 -55 -13 rrcurveto
          -55 -13 -37 -12 -19 -9 rrcurveto
          -20 -9 -18 -10 -15 -10 rrcurveto
          -15 -11 -14 -12 -11 -14 rrcurveto
          -24 -29 -12 -34 0 -41 rrcurveto
          -119 1025 rmoveto
          0 0 276 333 0 0 rrcurveto
          0 0 198 0 0 0 rrcurveto
          0 0 268 -332 0 0 rrcurveto
          0 0 -135 -56 0 0 rrcurveto
          0 0 -232 222 0 0 rrcurveto
          0 0 -249 -223 0 0 rrcurveto
          0 0 -126 56 0 0 rrcurveto
          endchar
        </CharString>
        <CharString name="Latin Small Letter A with diaeresis">
          1131 140 171 rmoveto
          -17 39 -9 51 0 62 rrcurveto
          0 62 20 57 40 52 rrcurveto
          84 109 164 64 244 17 rrcurveto
          37 3 35 1 32 0 rrcurveto
          0 0 0 115 0 0 rrcurveto
          0 77 -20 51 -40 27 rrcurveto
          -33 22 -61 11 -89 0 rrcurveto
          -77 0 -84 -18 -92 -37 rrcurveto
          -24 -9 -18 -10 -13 -9 rrcurveto
          0 0 -54 144 0 0 rrcurveto
          57 36 95 31 133 25 rrcurveto
          45 9 49 4 53 0 rrcurveto
          52 0 51 -5 50 -9 rrcurveto
          49 -10 43 -18 36 -27 rrcurveto
          75 -56 37 -98 0 -140 rrcurveto
          0 0 0 -810 0 0 rrcurveto
          0 0 -90 0 0 0 rrcurveto
          -43 0 -27 4 -13 8 rrcurveto
          -23 15 -11 31 0 46 rrcurveto
          0 0 0 8 0 0 rrcurveto
          -55 -50 -73 -34 -93 -18 rrcurveto
          -32 -7 -37 -3 -42 0 rrcurveto
          -43 0 -42 7 -43 15 rrcurveto
          -43 15 -36 21 -31 28 rrcurveto
          -31 27 -25 34 -17 40 rrcurveto
          191 153 rmoveto
          0 -117 66 -59 131 0 rrcurveto
          73 0 69 19 66 38 rrcurveto
          17 9 11 8 6 7 rrcurveto
          0 0 0 319 0 0 rrcurveto
          -78 0 -66 -7 -55 -13 rrcurveto
          -55 -13 -37 -12 -19 -9 rrcurveto
          -20 -9 -18 -10 -15 -10 rrcurveto
          -15 -11 -14 -12 -11 -14 rrcurveto
          -24 -29 -12 -34 0 -41 rrcurveto
          531 1050 rmoveto
          -19 -7 -18 -4 -19 0 rrcurveto
          -19 0 -18 3 -16 6 rrcurveto
          -16 6 -14 9 -12 11 rrcurveto
          -25 25 -13 27 0 30 rrcurveto
          0 29 5 24 9 18 rrcurveto
          9 18 11 16 14 13 rrcurveto
          31 29 31 15 32 0 rrcurveto
          31 0 24 -3 17 -7 rrcurveto
          16 -7 13 -9 11 -12 rrcurveto
          21 -23 10 -27 0 -30 rrcurveto
          0 -30 -4 -24 -9 -18 rrcurveto
          -9 -19 -11 -15 -14 -13 rrcurveto
          -14 -13 -16 -11 -19 -7 rrcurveto
          -458 0 rmoveto
          -19 -7 -18 -4 -19 0 rrcurveto
          -19 0 -18 3 -16 6 rrcurveto
          -16 6 -14 9 -12 11 rrcurveto
          -25 25 -13 27 0 30 rrcurveto
          0 29 5 24 9 18 rrcurveto
          9 18 11 16 15 13 rrcurveto
          31 29 32 15 31 0 rrcurveto
          31 0 23 -3 17 -7 rrcurveto
          16 -7 13 -9 11 -12 rrcurveto
          21 -23 10 -27 0 -30 rrcurveto
          0 -30 -4 -24 -9 -18 rrcurveto
          -9 -19 -11 -15 -14 -13 rrcurveto
          -14 -13 -16 -11 -19 -7 rrcurveto
          endchar
        </CharString>
        <CharString name="Latin Small Letter A with grave">
          1131 140 171 rmoveto
          -17 39 -9 51 0 62 rrcurveto
          0 62 20 57 40 52 rrcurveto
          84 109 164 64 244 17 rrcurveto
          37 3 35 1 32 0 rrcurveto
          0 0 0 115 0 0 rrcurveto
          0 77 -20 51 -40 27 rrcurveto
          -33 22 -61 11 -89 0 rrcurveto
          -77 0 -84 -18 -92 -37 rrcurveto
          -24 -9 -18 -10 -13 -9 rrcurveto
          0 0 -54 144 0 0 rrcurveto
          57 36 95 31 133 25 rrcurveto
          45 9 49 4 53 0 rrcurveto
          52 0 51 -5 50 -9 rrcurveto
          49 -10 43 -18 36 -27 rrcurveto
          75 -56 37 -98 0 -140 rrcurveto
          0 0 0 -810 0 0 rrcurveto
          0 0 -90 0 0 0 rrcurveto
          -43 0 -27 4 -13 8 rrcurveto
          -23 15 -11 31 0 46 rrcurveto
          0 0 0 8 0 0 rrcurveto
          -55 -50 -73 -34 -93 -18 rrcurveto
          -32 -7 -37 -3 -42 0 rrcurveto
          -43 0 -42 7 -43 15 rrcurveto
          -43 15 -36 21 -31 28 rrcurveto
          -31 27 -25 34 -17 40 rrcurveto
          191 153 rmoveto
          0 -117 66 -59 131 0 rrcurveto
          73 0 69 19 66 38 rrcurveto
          17 9 11 8 6 7 rrcurveto
          0 0 0 319 0 0 rrcurveto
          -78 0 -66 -7 -55 -13 rrcurveto
          -55 -13 -37 -12 -19 -9 rrcurveto
          -20 -9 -18 -10 -15 -10 rrcurveto
          -15 -11 -14 -12 -11 -14 rrcurveto
          -24 -29 -12 -34 0 -41 rrcurveto
          27 1459 rmoveto
          63 -80 112 -133 163 -186 rrcurveto
          0 0 -111 -90 0 0 rrcurveto
          -39 17 -66 51 -92 85 rrcurveto
          -93 85 -62 67 -32 49 rrcurveto
          0 0 157 135 0 0 rrcurveto
          endchar
        </CharString>
        <CharString name="Latin Small Letter A with macron">
          1131 140 171 rmoveto
          -17 39 -9 51 0 62 rrcurveto
          0 62 20 57 40 52 rrcurveto
          84 109 164 64 244 17 rrcurveto
          37 3 35 1 32 0 rrcurveto
          0 0 0 115 0 0 rrcurveto
          0 77 -20 51 -40 27 rrcurveto
          -33 22 -61 11 -89 0 rrcurveto
          -77 0 -84 -18 -92 -37 rrcurveto
          -24 -9 -18 -10 -13 -9 rrcurveto
          0 0 -54 144 0 0 rrcurveto
          57 36 95 31 133 25 rrcurveto
          45 9 49 4 53 0 rrcurveto
          52 0 51 -5 50 -9 rrcurveto
          49 -10 43 -18 36 -27 rrcurveto
          75 -56 37 -98 0 -140 rrcurveto
          0 0 0 -810 0 0 rrcurveto
          0 0 -90 0 0 0 rrcurveto
          -43 0 -27 4 -13 8 rrcurveto
          -23 15 -11 31 0 46 rrcurveto
          0 0 0 8 0 0 rrcurveto
          -55 -50 -73 -34 -93 -18 rrcurveto
          -32 -7 -37 -3 -42 0 rrcurveto
          -43 0 -42 7 -43 15 rrcurveto
          -43 15 -36 21 -31 28 rrcurveto
          -31 27 -25 34 -17 40 rrcurveto
          191 153 rmoveto
          0 -117 66 -59 131 0 rrcurveto
          73 0 69 19 66 38 rrcurveto
          17 9 11 8 6 7 rrcurveto
          0 0 0 319 0 0 rrcurveto
          -78 0 -66 -7 -55 -13 rrcurveto
          -55 -13 -37 -12 -19 -9 rrcurveto
          -20 -9 -18 -10 -15 -10 rrcurveto
          -15 -11 -14 -12 -11 -14 rrcurveto
          -24 -29 -12 -34 0 -41 rrcurveto
          -17 1264 rmoveto
          0 0 547 0 0 0 rrcurveto
          0 0 0 -163 0 0 rrcurveto
          0 0 -547 0 0 0 rrcurveto
          0 0 0 163 0 0 rrcurveto
          endchar
        </CharString>
        <CharString name="Latin Small Letter A with ogonek">
          1131 813 -1 rmoveto
          -20 13 -10 30 0 46 rrcurveto
          0 0 0 8 0 0 rrcurveto
          -55 -50 -73 -34 -93 -18 rrcurveto
          -32 -7 -37 -3 -42 0 rrcurveto
          -43 0 -42 7 -43 15 rrcurveto
          -43 15 -37 21 -31 28 rrcurveto
          -65 58 -33 78 0 99 rrcurveto
          0 74 20 63 40 52 rrcurveto
          84 109 164 64 244 17 rrcurveto
          37 3 35 1 32 0 rrcurveto
          0 0 0 115 0 0 rrcurveto
          0 77 -20 51 -40 27 rrcurveto
          -33 22 -61 11 -89 0 rrcurveto
          -77 0 -84 -18 -92 -37 rrcurveto
          -24 -9 -18 -10 -13 -9 rrcurveto
          0 0 -54 144 0 0 rrcurveto
          57 36 95 31 133 25 rrcurveto
          45 9 49 4 53 0 rrcurveto
          52 0 51 -5 50 -9 rrcurveto
          49 -10 43 -18 36 -27 rrcurveto
          75 -56 37 -98 0 -140 rrcurveto
          0 0 0 -810 0 0 rrcurveto
          0 0 -15 0 0 0 rrcurveto
          -120 -76 -60 -79 0 -83 rrcurveto
          0 -73 43 -37 85 0 rrcurveto
          43 0 47 10 49 19 rrcurveto
          0 0 0 -118 0 0 rrcurveto
          -51 -39 -79 -20 -107 0 rrcurveto
          -113 0 -76 40 -38 80 rrcurveto
          -13 26 -6 29 0 32 rrcurveto
          -1 31 7 31 13 29 rrcurveto
          13 29 18 28 22 27 rrcurveto
          44 53 54 43 64 33 rrcurveto
          -482 325 rmoveto
          0 -117 66 -59 131 0 rrcurveto
          73 0 69 19 66 38 rrcurveto
          17 9 11 8 6 7 rrcurveto
          0 0 0 319 0 0 rrcurveto
          -78 0 -66 -7 -55 -13 rrcurveto
          -55 -13 -37 -12 -19 -9 rrcurveto
          -20 -9 -18 -10 -15 -10 rrcurveto
          -15 -11 -14 -12 -11 -14 rrcurveto
          -24 -29 -12 -34 0 -41 rrcurveto
          endchar
        </CharString>
        <CharString name="Latin Small Letter A with ring above">
          1131 140 171 rmoveto
          -17 39 -9 51 0 62 rrcurveto
          0 62 20 57 40 52 rrcurveto
          84 109 164 64 244 17 rrcurveto
          37 3 35 1 32 0 rrcurveto
          0 0 0 115 0 0 rrcurveto
          0 77 -20 51 -40 27 rrcurveto
          -33 22 -61 11 -89 0 rrcurveto
          -77 0 -84 -18 -92 -37 rrcurveto
          -24 -9 -18 -10 -13 -9 rrcurveto
          0 0 -54 144 0 0 rrcurveto
          57 36 95 31 133 25 rrcurveto
          45 9 49 4 53 0 rrcurveto
          52 0 51 -5 50 -9 rrcurveto
          49 -10 43 -18 36 -27 rrcurveto
          75 -56 37 -98 0 -140 rrcurveto
          0 0 0 -810 0 0 rrcurveto
          0 0 -90 0 0 0 rrcurveto
          -43 0 -27 4 -13 8 rrcurveto
          -23 15 -11 31 0 46 rrcurveto
          0 0 0 8 0 0 rrcurveto
          -55 -50 -73 -34 -93 -18 rrcurveto
          -32 -7 -37 -3 -42 0 rrcurveto
          -43 0 -42 7 -43 15 rrcurveto
          -43 15 -36 21 -31 28 rrcurveto
          -31 27 -25 34 -17 40 rrcurveto
          191 153 rmoveto
          0 -117 66 -59 131 0 rrcurveto
          73 0 69 19 66 38 rrcurveto
          17 9 11 8 6 7 rrcurveto
          0 0 0 319 0 0 rrcurveto
          -78 0 -66 -7 -55 -13 rrcurveto
          -55 -13 -37 -12 -19 -9 rrcurveto
          -20 -9 -18 -10 -15 -10 rrcurveto
          -15 -11 -14 -12 -11 -14 rrcurveto
          -24 -29 -12 -34 0 -41 rrcurveto
          375 1021 rmoveto
          -39 -11 -43 -6 -45 0 rrcurveto
          -45 0 -43 7 -39 13 rrcurveto
          -79 27 -55 48 -31 69 rrcurveto
          -14 33 -7 27 0 21 rrcurveto
          0 69 10 52 19 35 rrcurveto
          19 34 25 28 30 21 rrcurveto
          57 41 73 20 87 0 rrcurveto
          153 0 100 -51 46 -102 rrcurveto
          15 -33 7 -40 0 -45 rrcurveto
          -1 -45 -9 -40 -17 -35 rrcurveto
          -18 -35 -24 -28 -29 -23 rrcurveto
          -30 -23 -34 -17 -39 -11 rrcurveto
          -240 153 rmoveto
          29 -28 33 -14 37 -1 rrcurveto
          37 -1 29 3 21 6 rrcurveto
          21 5 17 9 15 12 rrcurveto
          32 25 16 39 0 52 rrcurveto
          0 45 -16 35 -33 27 rrcurveto
          -31 25 -40 12 -49 0 rrcurveto
          -74 0 -49 -24 -25 -49 rrcurveto
          -9 -19 -5 -27 0 -36 rrcurveto
          0 -36 15 -32 29 -28 rrcurveto
          endchar
        </CharString>
        <CharString name="Latin Small Letter A with tilde">
          1131 140 171 rmoveto
          -17 39 -9 51 0 62 rrcurveto
          0 62 20 57 40 52 rrcurveto
          84 109 164 64 244 17 rrcurveto
          37 3 35 1 32 0 rrcurveto
          0 0 0 115 0 0 rrcurveto
          0 77 -20 51 -40 27 rrcurveto
          -33 22 -61 11 -89 0 rrcurveto
          -77 0 -84 -18 -92 -37 rrcurveto
          -24 -9 -18 -10 -13 -9 rrcurveto
          0 0 -54 144 0 0 rrcurveto
          57 36 95 31 133 25 rrcurveto
          45 9 49 4 53 0 rrcurveto
          52 0 51 -5 50 -9 rrcurveto
          49 -10 43 -18 36 -27 rrcurveto
          75 -56 37 -98 0 -140 rrcurveto
          0 0 0 -810 0 0 rrcurveto
          0 0 -90 0 0 0 rrcurveto
          -43 0 -27 4 -13 8 rrcurveto
          -23 15 -11 31 0 46 rrcurveto
          0 0 0 8 0 0 rrcurveto
          -55 -50 -73 -34 -93 -18 rrcurveto
          -32 -7 -37 -3 -42 0 rrcurveto
          -43 0 -42 7 -43 15 rrcurveto
          -43 15 -36 21 -31 28 rrcurveto
          -31 27 -25 34 -17 40 rrcurveto
          191 153 rmoveto
          0 -117 66 -59 131 0 rrcurveto
          73 0 69 19 66 38 rrcurveto
          17 9 11 8 6 7 rrcurveto
          0 0 0 319 0 0 rrcurveto
          -78 0 -66 -7 -55 -13 rrcurveto
          -55 -13 -37 -12 -19 -9 rrcurveto
          -20 -9 -18 -10 -15 -10 rrcurveto
          -15 -11 -14 -12 -11 -14 rrcurveto
          -24 -29 -12 -34 0 -41 rrcurveto
          104 1158 rmoveto
          -61 0 -61 -32 -61 -65 rrcurveto
          0 0 -85 68 0 0 rrcurveto
          39 86 61 60 83 33 rrcurveto
          28 11 28 5 29 0 rrcurveto
          28 0 24 -3 21 -7 rrcurveto
          20 -7 18 -8 16 -10 rrcurveto
          16 -11 15 -11 13 -11 rrcurveto
          13 -12 14 -11 13 -11 rrcurveto
          29 -23 29 -12 28 0 rrcurveto
          65 0 61 33 57 65 rrcurveto
          0 0 86 -72 0 0 rrcurveto
          -42 -89 -61 -60 -80 -29 rrcurveto
          -27 -10 -29 -5 -29 0 rrcurveto
          -30 0 -25 3 -21 7 rrcurveto
          -21 7 -18 8 -16 11 rrcurveto
          -17 10 -14 11 -13 12 rrcurveto
          -13 12 -12 11 -13 10 rrcurveto
          -29 24 -29 12 -27 0 rrcurveto
          endchar
        </CharString>
        <CharString name="Latin Small Letter B">
          1238 398 1030 rmoveto
          84 84 104 42 125 0 rrcurveto
          128 0 105 -45 82 -89 rrcurveto
          90 -97 45 -137 0 -176 rrcurveto
          0 -186 -52 -151 -105 -117 rrcurveto
          -107 -117 -139 -59 -172 0 rrcurveto
          -114 0 -114 19 -114 38 rrcurveto
          -28 9 -19 9 -11 7 rrcurveto
          0 0 0 1597 0 0 rrcurveto
          0 0 220 0 0 0 rrcurveto
          0 0 0 -472 0 0 rrcurveto
          0 0 -8 -159 0 0 rrcurveto
          252 -47 rmoveto
          -83 0 -81 -31 -80 -62 rrcurveto
          0 0 0 -706 0 0 rrcurveto
          38 -27 68 -13 99 0 rrcurveto
          95 0 77 37 59 75 rrcurveto
          63 81 32 112 0 143 rrcurveto
          0 261 -96 130 -191 0 rrcurveto
          endchar
        </CharString>
        <CharString name="Latin Small Letter C">
          1002 913 923 rmoveto
          -59 42 -86 21 -111 0 rrcurveto
          -87 0 -73 -30 -59 -60 rrcurveto
          -73 -75 -36 -110 0 -145 rrcurveto
          0 -125 30 -100 59 -76 rrcurveto
          59 -77 77 -38 97 0 rrcurveto
          76 0 75 15 73 29 rrcurveto
          19 7 16 8 13 8 rrcurveto
          0 0 45 -125 0 0 rrcurveto
          -78 -72 -117 -36 -155 0 rrcurveto
          -156 0 -124 55 -91 110 rrcurveto
          -87 104 -43 136 0 169 rrcurveto
          0 175 46 142 92 108 rrcurveto
          98 115 138 58 177 0 rrcurveto
          125 0 94 -20 61 -39 rrcurveto
          0 0 -35 -174 0 0 rrcurveto
          endchar
        </CharString>
        <CharString name="Latin Small Letter C with acute">
          1002 502 1384 rmoveto
          162 177 113 133 63 89 rrcurveto
          0 0 156 -135 0 0 rrcurveto
          -23 -40 -60 -66 -99 -92 rrcurveto
          -97 -90 -67 -52 -37 -14 rrcurveto
          0 0 -111 90 0 0 rrcurveto
          411 -461 rmoveto
          -59 42 -86 21 -111 0 rrcurveto
          -87 0 -73 -30 -59 -60 rrcurveto
          -73 -75 -36 -110 0 -145 rrcurveto
          0 -125 30 -100 59 -76 rrcurveto
          59 -77 77 -38 97 0 rrcurveto
          76 0 75 15 73 29 rrcurveto
          19 7 16 8 13 8 rrcurveto
          0 0 45 -125 0 0 rrcurveto
          -78 -72 -117 -36 -155 0 rrcurveto
          -156 0 -124 55 -91 110 rrcurveto
          -87 104 -43 136 0 169 rrcurveto
          0 175 46 142 92 108 rrcurveto
          98 115 138 58 177 0 rrcurveto
          125 0 94 -20 61 -39 rrcurveto
          0 0 -35 -174 0 0 rrcurveto
          endchar
        </CharString>
        <CharString name="Latin Small Letter C with caron">
          1002 260 1654 rmoveto
          0 0 126 56 0 0 rrcurveto
          0 0 249 -223 0 0 rrcurveto
          0 0 232 222 0 0 rrcurveto
          0 0 135 -56 0 0 rrcurveto
          0 0 -268 -332 0 0 rrcurveto
          0 0 -198 0 0 0 rrcurveto
          0 0 -276 333 0 0 rrcurveto
          653 -731 rmoveto
          -59 42 -86 21 -111 0 rrcurveto
          -87 0 -73 -30 -59 -60 rrcurveto
          -73 -75 -36 -110 0 -145 rrcurveto
          0 -125 30 -100 59 -76 rrcurveto
          59 -77 77 -38 97 0 rrcurveto
          76 0 75 15 73 29 rrcurveto
          19 7 16 8 13 8 rrcurveto
          0 0 45 -125 0 0 rrcurveto
          -78 -72 -117 -36 -155 0 rrcurveto
          -156 0 -124 55 -91 110 rrcurveto
          -87 104 -43 136 0 169 rrcurveto
          0 175 46 142 92 108 rrcurveto
          98 115 138 58 177 0 rrcurveto
          125 0 94 -20 61 -39 rrcurveto
          0 0 -35 -174 0 0 rrcurveto
          endchar
        </CharString>
        <CharString name="Latin Small Letter C with cedilla">
          1002 323 -294 rmoveto
          15 -9 28 -5 39 0 rrcurveto
          88 0 44 74 0 147 rrcurveto
          0 30 -3 26 -7 23 rrcurveto
          -129 21 -102 62 -73 105 rrcurveto
          -71 101 -35 126 0 151 rrcurveto
          0 175 46 142 92 108 rrcurveto
          98 115 138 58 177 0 rrcurveto
          125 0 94 -20 61 -39 rrcurveto
          0 0 -35 -174 0 0 rrcurveto
          -59 42 -86 21 -111 0 rrcurveto
          -87 0 -73 -30 -59 -60 rrcurveto
          -73 -75 -36 -110 0 -145 rrcurveto
          0 -125 30 -100 59 -76 rrcurveto
          59 -77 77 -38 97 0 rrcurveto
          76 0 75 15 73 29 rrcurveto
          19 7 16 8 13 8 rrcurveto
          0 0 45 -125 0 0 rrcurveto
          -66 -62 -100 -35 -135 -9 rrcurveto
          20 -43 10 -55 0 -66 rrcurveto
          0 -149 -53 -91 -105 -33 rrcurveto
          -27 -9 -24 -4 -21 0 rrcurveto
          -21 0 -18 1 -15 1 rrcurveto
          -15 1 -15 2 -13 3 rrcurveto
          -31 6 -20 7 -11 7 rrcurveto
          0 0 15 142 0 0 rrcurveto
          endchar
        </CharString>
        <CharString name="Latin Small Letter C with circumflex">
          1002 258 1349 rmoveto
          0 0 276 333 0 0 rrcurveto
          0 0 198 0 0 0 rrcurveto
          0 0 268 -332 0 0 rrcurveto
          0 0 -135 -56 0 0 rrcurveto
          0 0 -232 222 0 0 rrcurveto
          0 0 -249 -223 0 0 rrcurveto
          0 0 -126 56 0 0 rrcurveto
          655 -426 rmoveto
          -59 42 -86 21 -111 0 rrcurveto
          -87 0 -73 -30 -59 -60 rrcurveto
          -73 -75 -36 -110 0 -145 rrcurveto
          0 -125 30 -100 59 -76 rrcurveto
          59 -77 77 -38 97 0 rrcurveto
          76 0 75 15 73 29 rrcurveto
          19 7 16 8 13 8 rrcurveto
          0 0 45 -125 0 0 rrcurveto
          -78 -72 -117 -36 -155 0 rrcurveto
          -156 0 -124 55 -91 110 rrcurveto
          -87 104 -43 136 0 169 rrcurveto
          0 175 46 142 92 108 rrcurveto
          98 115 138 58 177 0 rrcurveto
          125 0 94 -20 61 -39 rrcurveto
          0 0 -35 -174 0 0 rrcurveto
          endchar
        </CharString>
        <CharString name="Latin Small Letter C with dot above">
          1002 913 923 rmoveto
          -59 42 -86 21 -111 0 rrcurveto
          -87 0 -73 -30 -59 -60 rrcurveto
          -73 -75 -36 -110 0 -145 rrcurveto
          0 -125 30 -100 59 -76 rrcurveto
          59 -77 77 -38 97 0 rrcurveto
          76 0 75 15 73 29 rrcurveto
          19 7 16 8 13 8 rrcurveto
          0 0 45 -125 0 0 rrcurveto
          -78 -72 -117 -36 -155 0 rrcurveto
          -156 0 -124 55 -91 110 rrcurveto
          -87 104 -43 136 0 169 rrcurveto
          0 175 46 142 92 108 rrcurveto
          98 115 138 58 177 0 rrcurveto
          125 0 94 -20 61 -39 rrcurveto
          0 0 -35 -174 0 0 rrcurveto
          -231 436 rmoveto
          -20 -8 -20 -4 -19 0 rrcurveto
          -20 0 -18 3 -17 7 rrcurveto
          -17 6 -16 9 -13 12 rrcurveto
          -28 25 -14 29 0 31 rrcurveto
          0 31 5 25 9 19 rrcurveto
          9 19 13 16 15 14 rrcurveto
          33 30 32 15 33 0 rrcurveto
          33 0 25 -3 18 -7 rrcurveto
          17 -7 15 -10 11 -13 rrcurveto
          23 -24 12 -28 0 -31 rrcurveto
          0 -31 -4 -25 -9 -19 rrcurveto
          -9 -19 -12 -17 -15 -13 rrcurveto
          -15 -14 -18 -11 -19 -7 rrcurveto
          endchar
        </CharString>
        <CharString name="Latin Small Letter D">
          1237 883 112 rmoveto
          -85 -85 -106 -43 -126 0 rrcurveto
          -127 0 -105 45 -82 89 rrcurveto
          -90 97 -45 137 0 176 rrcurveto
          0 186 52 151 104 115 rrcurveto
          105 117 139 59 171 0 rrcurveto
          66 0 62 -10 58 -19 rrcurveto
          0 0 -3 62 0 0 rrcurveto
          0 0 0 475 0 0 rrcurveto
          0 0 220 0 0 0 rrcurveto
          0 0 0 -1680 0 0 rrcurveto
          0 0 -95 0 0 0 rrcurveto
          -39 0 -26 4 -13 8 rrcurveto
          -23 14 -12 25 0 37 rrcurveto
          0 0 0 40 0 0 rrcurveto
          -12 834 rmoveto
          -38 33 -68 17 -99 0 rrcurveto
          -95 0 -76 -37 -59 -75 rrcurveto
          -63 -81 -32 -109 0 -138 rrcurveto
          0 -266 95 -133 191 0 rrcurveto
          84 0 81 31 79 61 rrcurveto
          0 0 0 697 0 0 rrcurveto
          endchar
        </CharString>
        <CharString name="Latin Small Letter D with caron">
          1648 883 112 rmoveto
          -85 -85 -106 -43 -126 0 rrcurveto
          -127 0 -105 45 -82 89 rrcurveto
          -90 97 -45 137 0 176 rrcurveto
          0 186 52 151 104 115 rrcurveto
          105 117 139 59 171 0 rrcurveto
          66 0 62 -10 58 -19 rrcurveto
          0 0 -3 62 0 0 rrcurveto
          0 0 0 475 0 0 rrcurveto
          0 0 220 0 0 0 rrcurveto
          0 0 0 -1680 0 0 rrcurveto
          0 0 -95 0 0 0 rrcurveto
          -39 0 -26 4 -13 8 rrcurveto
          -23 14 -12 25 0 37 rrcurveto
          0 0 0 40 0 0 rrcurveto
          -12 834 rmoveto
          -38 33 -68 17 -99 0 rrcurveto
          -95 0 -76 -37 -59 -75 rrcurveto
          -63 -81 -32 -109 0 -138 rrcurveto
          0 -266 95 -133 191 0 rrcurveto
          84 0 81 31 79 61 rrcurveto
          0 0 0 697 0 0 rrcurveto
          632 741 rmoveto
          41 -39 21 -80 0 -122 rrcurveto
          0 -125 -27 -114 -53 -101 rrcurveto
          -15 -29 -16 -24 -16 -19 rrcurveto
          0 0 -110 34 0 0 rrcurveto
          0 0 -8 28 0 0 rrcurveto
          5 19 6 18 6 17 rrcurveto
          5 17 5 18 5 21 rrcurveto
          11 48 5 47 0 45 rrcurveto
          0 45 -2 32 -3 21 rrcurveto
          -3 20 -5 19 -5 19 rrcurveto
          -11 36 -12 28 -14 19 rrcurveto
          0 0 14 47 0 0 rrcurveto
          0 0 176 55 0 0 rrcurveto
          endchar
        </CharString>
        <CharString name="Latin Small Letter D with stroke">
          1237 883 112 rmoveto
          -85 -85 -106 -43 -126 0 rrcurveto
          -127 0 -105 45 -82 89 rrcurveto
          -90 97 -45 137 0 176 rrcurveto
          0 186 52 151 104 115 rrcurveto
          105 117 139 59 171 0 rrcurveto
          66 0 62 -10 58 -19 rrcurveto
          0 0 -3 62 0 0 rrcurveto
          0 0 0 117 0 0 rrcurveto
          0 0 -270 0 0 0 rrcurveto
          0 0 0 141 0 0 rrcurveto
          0 0 270 0 0 0 rrcurveto
          0 0 0 217 0 0 rrcurveto
          0 0 220 0 0 0 rrcurveto
          0 0 0 -217 0 0 rrcurveto
          0 0 141 0 0 0 rrcurveto
          0 0 0 -141 0 0 rrcurveto
          0 0 -141 0 0 0 rrcurveto
          0 0 0 -1322 0 0 rrcurveto
          0 0 -95 0 0 0 rrcurveto
          -39 0 -26 4 -13 8 rrcurveto
          -23 14 -12 25 0 37 rrcurveto
          0 0 0 40 0 0 rrcurveto
          -12 834 rmoveto
          -38 33 -68 17 -99 0 rrcurveto
          -95 0 -76 -37 -59 -75 rrcurveto
          -63 -81 -32 -109 0 -138 rrcurveto
          0 -266 95 -133 191 0 rrcurveto
          84 0 81 31 79 61 rrcurveto
          0 0 0 697 0 0 rrcurveto
          endchar
        </CharString>
        <CharString name="Latin Small Letter Dotless J">
          574 -59 -331 rmoveto
          29 -15 35 -7 39 0 rrcurveto
          39 0 30 7 20 13 rrcurveto
          20 13 16 19 11 25 rrcurveto
          22 48 11 76 0 104 rrcurveto
          0 0 0 1186 0 0 rrcurveto
          0 0 220 0 0 0 rrcurveto
          0 0 0 -1101 0 0 rrcurveto
          0 -283 -67 -171 -135 -61 rrcurveto
          -44 -19 -55 -10 -66 0 rrcurveto
          -66 0 -42 4 -17 9 rrcurveto
          0 0 0 163 0 0 rrcurveto
          endchar
        </CharString>
        <CharString name="Latin Small Letter E">
          1123 332 522 rmoveto
          10 -197 73 -118 135 -39 rrcurveto
          41 -12 36 -6 33 0 rrcurveto
          33 0 30 2 27 3 rrcurveto
          27 3 26 5 27 5 rrcurveto
          62 13 45 15 28 16 rrcurveto
          0 0 42 -126 0 0 rrcurveto
          -55 -45 -93 -32 -130 -17 rrcurveto
          -37 -5 -36 -3 -34 0 rrcurveto
          -161 0 -125 52 -88 104 rrcurveto
          -87 103 -44 144 0 185 rrcurveto
          0 171 43 138 86 105 rrcurveto
          93 113 129 57 164 0 rrcurveto
          117 0 95 -35 74 -71 rrcurveto
          81 -79 43 -108 4 -137 rrcurveto
          0 -101 -4 -68 -7 -35 rrcurveto
          0 0 -703 0 0 0 rrcurveto
          509 190 rmoveto
          0 192 -76 96 -151 0 rrcurveto
          -161 0 -92 -111 -24 -221 rrcurveto
          0 0 503 0 0 0 rrcurveto
          1 15 0 14 0 15 rrcurveto
          endchar
        </CharString>
        <CharString name="Latin Small Letter E with acute">
          1123 487 1384 rmoveto
          162 177 113 133 63 89 rrcurveto
          0 0 156 -135 0 0 rrcurveto
          -23 -40 -60 -66 -99 -92 rrcurveto
          -97 -90 -67 -52 -37 -14 rrcurveto
          0 0 -111 90 0 0 rrcurveto
          -155 -862 rmoveto
          10 -197 73 -118 135 -39 rrcurveto
          41 -12 36 -6 33 0 rrcurveto
          33 0 30 2 27 3 rrcurveto
          27 3 26 5 27 5 rrcurveto
          62 13 45 15 28 16 rrcurveto
          0 0 42 -126 0 0 rrcurveto
          -55 -45 -93 -32 -130 -17 rrcurveto
          -37 -5 -36 -3 -34 0 rrcurveto
          -161 0 -125 52 -88 104 rrcurveto
          -87 103 -44 144 0 185 rrcurveto
          0 171 43 138 86 105 rrcurveto
          93 113 129 57 164 0 rrcurveto
          117 0 95 -35 74 -71 rrcurveto
          81 -79 43 -108 4 -137 rrcurveto
          0 -101 -4 -68 -7 -35 rrcurveto
          0 0 -703 0 0 0 rrcurveto
          509 190 rmoveto
          0 192 -76 96 -151 0 rrcurveto
          -161 0 -92 -111 -24 -221 rrcurveto
          0 0 503 0 0 0 rrcurveto
          1 15 0 14 0 15 rrcurveto
          endchar
        </CharString>
        <CharString name="Latin Small Letter E with breve">
          1123 332 522 rmoveto
          10 -197 73 -118 135 -39 rrcurveto
          41 -12 36 -6 33 0 rrcurveto
          33 0 30 2 27 3 rrcurveto
          27 3 26 5 27 5 rrcurveto
          62 13 45 15 28 16 rrcurveto
          0 0 42 -126 0 0 rrcurveto
          -55 -45 -93 -32 -130 -17 rrcurveto
          -37 -5 -36 -3 -34 0 rrcurveto
          -161 0 -125 52 -88 104 rrcurveto
          -87 103 -44 144 0 185 rrcurveto
          0 171 43 138 86 105 rrcurveto
          93 113 129 57 164 0 rrcurveto
          117 0 95 -35 74 -71 rrcurveto
          81 -79 43 -108 4 -137 rrcurveto
          0 -101 -4 -68 -7 -35 rrcurveto
          0 0 -703 0 0 0 rrcurveto
          509 190 rmoveto
          0 192 -76 96 -151 0 rrcurveto
          -161 0 -92 -111 -24 -221 rrcurveto
          0 0 503 0 0 0 rrcurveto
          1 15 0 14 0 15 rrcurveto
          -76 628 rmoveto
          -45 -21 -50 -11 -55 0 rrcurveto
          -56 0 -50 11 -44 21 rrcurveto
          -88 42 -59 69 -29 95 rrcurveto
          -11 35 -5 30 0 23 rrcurveto
          0 23 0 17 1 11 rrcurveto
          0 0 154 0 0 0 rrcurveto
          0 -97 36 -64 73 -30 rrcurveto
          22 -9 27 -5 32 0 rrcurveto
          31 0 27 5 22 9 rrcurveto
          22 9 18 11 14 14 rrcurveto
          14 13 11 15 8 17 rrcurveto
          7 16 6 16 4 15 rrcurveto
          5 21 3 21 0 23 rrcurveto
          0 0 150 0 0 0 rrcurveto
          1 -10 0 -17 0 -23 rrcurveto
          0 -24 -6 -32 -13 -40 rrcurveto
          -13 -41 -22 -38 -30 -35 rrcurveto
          -31 -35 -37 -29 -44 -21 rrcurveto
          endchar
        </CharString>
</ttFont>
